<?xml version="1.0" standalone="no"?>
<!DOCTYPE svg PUBLIC "-//W3C//DTD SVG 1.1//EN" "http://www.w3.org/Graphics/SVG/1.1/DTD/svg11.dtd" >
<svg xmlns="http://www.w3.org/2000/svg">
<metadata></metadata>
<defs>
<font id="goudy_trajan_regularregular" horiz-adv-x="1576" >
<font-face units-per-em="2048" ascent="1638" descent="-410" />
<missing-glyph horiz-adv-x="655" />
<glyph unicode="&#xfb01;" horiz-adv-x="1703" d="M154 1217q0 10 28 10q30 0 96.5 -4t106.5 -4q252 0 381 6q12 0 38 4t42 4q10 0 10 -14q0 -3 -1 -9.5t-1 -9.5q0 -31 5 -64t5 -55q0 -18 -14 -18q-4 0 -7 3.5t-5 9.5l-2 7q-11 46 -57 59t-138 13h-190q-22 0 -28.5 -7t-6.5 -30v-428q0 -9 5 -14t10 -5.5t15 -0.5h129 q44 0 94.5 8t69.5 27q5 5 11 24t13.5 35t16.5 16q5 0 9 -4t4 -10q0 -19 -5.5 -59.5t-5.5 -63.5q0 -28 4.5 -84.5t4.5 -83.5q0 -26 -15 -26q-4 0 -6.5 0.5t-4.5 2.5t-3 3.5t-1.5 5.5t-1 6.5t-1 8.5t-0.5 9q-5 54 -25 72q-21 21 -45.5 27t-101.5 6h-148q-12 0 -17 -4.5 t-5 -18.5v-313q0 -164 28 -205q19 -26 64 -31q31 0 31 -12t-29 -12q-17 0 -70.5 3t-89.5 3q-25 0 -74.5 -4t-82.5 -4q-29 0 -29 10t24 14q46 6 70 50q12 21 21.5 95t9.5 171v735q0 59 -19 93t-71 42q-4 1 -12 2t-13 2t-10 2.5t-7.5 3.5t-2.5 5zM1167 1217q0 2 2.5 4.5t6.5 4 t10.5 2.5t13.5 1q9 0 62.5 -5t91.5 -5q42 0 80.5 6t60.5 6q39 0 39 -12q0 -9 -37 -17q-3 -1 -8 -2.5t-9 -2.5t-8.5 -2.5t-8.5 -3t-7 -3.5q-25 -15 -32 -49.5t-7 -83.5v-809q0 -36 1 -59t4.5 -52t10 -47.5t18.5 -35.5t30 -27q4 -3 25 -5.5t39 -6.5t18 -9q0 -12 -25 -12 q-26 0 -85 4t-93 4q-19 0 -65 -3t-87 -3q-32 0 -32 12q0 2 1.5 4t5 3.5t6.5 2t8.5 2t8.5 2.5q47 16 62 29q22 20 22 166v844q0 70 -15.5 101.5t-68.5 39.5q-39 8 -39 17z" />
<glyph unicode="&#xfb02;" horiz-adv-x="1947" d="M154 1217q0 10 28 10q30 0 96.5 -4t106.5 -4q252 0 381 6q12 0 38 4t42 4q10 0 10 -14q0 -3 -1 -9.5t-1 -9.5q0 -31 5 -64t5 -55q0 -18 -14 -18q-4 0 -7 3.5t-5 9.5l-2 7q-11 46 -57 59t-138 13h-190q-22 0 -28.5 -7t-6.5 -30v-428q0 -9 5 -14t10 -5.5t15 -0.5h129 q44 0 94.5 8t69.5 27q5 5 11 24t13.5 35t16.5 16q5 0 9 -4t4 -10q0 -19 -5.5 -59.5t-5.5 -63.5q0 -28 4.5 -84.5t4.5 -83.5q0 -26 -15 -26q-4 0 -6.5 0.5t-4.5 2.5t-3 3.5t-1.5 5.5t-1 6.5t-1 8.5t-0.5 9q-5 54 -25 72q-21 21 -45.5 27t-101.5 6h-148q-12 0 -17 -4.5 t-5 -18.5v-313q0 -164 28 -205q19 -26 64 -31q31 0 31 -12t-29 -12q-17 0 -70.5 3t-89.5 3q-25 0 -74.5 -4t-82.5 -4q-29 0 -29 10t24 14q46 6 70 50q12 21 21.5 95t9.5 171v735q0 59 -19 93t-71 42q-4 1 -12 2t-13 2t-10 2.5t-7.5 3.5t-2.5 5zM1180 6q0 2 1.5 4t5 2.5t6 1 t7 1.5t6.5 1q44 5 60 37q26 53 26 221v787q0 80 -26 115q-3 4 -7 7.5t-9.5 6.5t-8 4.5t-10.5 3.5t-9.5 2.5t-11 3t-10.5 2.5t-5 1t-5.5 1.5l-4.5 1.5t-4 3t-1 4q0 8 28 8q17 0 65 -3t85 -3q43 0 81 3t64 3q21 0 21 -11q0 -8 -29 -14q-36 -8 -53 -31q-23 -26 -23 -108v-731 q0 -66 6 -137q4 -89 56 -103q63 -16 196 -16q67 0 96.5 4t44.5 13.5t37 35.5q30 37 39 37q5 0 9 -3t4 -7q0 -6 -2.5 -14.5t-8 -21.5t-6.5 -16q-17 -47 -24 -92q-2 -9 -5.5 -11.5t-15.5 -2.5q-159 0 -237 2q-25 0 -72.5 0.5l-95 1t-72.5 0.5q-19 0 -68 -2t-88 -2 q-32 0 -32 10z" />
<glyph unicode="&#xfb03;" horiz-adv-x="2703" d="M154 1217q0 10 28 10q30 0 96.5 -4t106.5 -4q252 0 381 6q12 0 38 4t42 4q10 0 10 -14q0 -3 -1 -9.5t-1 -9.5q0 -31 5 -64t5 -55q0 -18 -14 -18q-4 0 -7 3.5t-5 9.5l-2 7q-11 46 -57 59t-138 13h-190q-22 0 -28.5 -7t-6.5 -30v-428q0 -9 5 -14t10 -5.5t15 -0.5h129 q44 0 94.5 8t69.5 27q5 5 11 24t13.5 35t16.5 16q5 0 9 -4t4 -10q0 -19 -5.5 -59.5t-5.5 -63.5q0 -28 4.5 -84.5t4.5 -83.5q0 -26 -15 -26q-4 0 -6.5 0.5t-4.5 2.5t-3 3.5t-1.5 5.5t-1 6.5t-1 8.5t-0.5 9q-5 54 -25 72q-21 21 -45.5 27t-101.5 6h-148q-12 0 -17 -4.5 t-5 -18.5v-313q0 -164 28 -205q19 -26 64 -31q31 0 31 -12t-29 -12q-17 0 -70.5 3t-89.5 3q-25 0 -74.5 -4t-82.5 -4q-29 0 -29 10t24 14q46 6 70 50q12 21 21.5 95t9.5 171v735q0 59 -19 93t-71 42q-4 1 -12 2t-13 2t-10 2.5t-7.5 3.5t-2.5 5zM1153 1217q0 10 29 10 q30 0 96 -4t106 -4q252 0 381 6q12 0 38 4t42 4q10 0 10 -14q0 -3 -1 -9.5t-1 -9.5q0 -31 5.5 -64t5.5 -55q0 -18 -15 -18q-4 0 -7 3.5t-5 10l-2 6.5q-4 17 -12.5 29t-23 20t-29.5 12.5t-38 7t-42.5 3t-49.5 0.5h-190q-22 0 -28.5 -7t-6.5 -30v-428q0 -9 5 -14t10 -5.5 t16 -0.5h129q44 0 94.5 8t69.5 27q4 4 16 39.5t25 35.5q5 0 8.5 -4t3.5 -10q0 -19 -5 -59.5t-5 -63.5q0 -28 4 -84t4 -84q0 -26 -14 -26q-3 0 -5.5 0.5t-4 1.5l-3 2t-2.5 3.5t-1.5 4t-1 5t-0.5 5.5t-0.5 7t-0.5 7q-5 55 -24 72q-15 15 -28 21t-39.5 9t-80.5 3h-147 q-12 0 -17.5 -4.5t-5.5 -18.5v-313q0 -162 29 -205q19 -27 63 -31q31 0 31 -12t-29 -12q-17 0 -70 3t-89 3q-25 0 -75 -4t-83 -4q-29 0 -29 10t25 14q16 2 26.5 6.5t21.5 15t21 28.5q12 21 21.5 95t9.5 171v735q0 59 -19 93t-71 42q-4 1 -12 2t-13 2t-10 2.5t-7.5 3.5 t-2.5 5zM2167 1217q0 5 9.5 8.5t23.5 3.5q9 0 62 -5t91 -5q42 0 80.5 6t60.5 6q39 0 39 -12q0 -9 -36 -17q-4 -1 -13 -3.5t-16.5 -5t-11.5 -5.5q-25 -15 -32 -49.5t-7 -83.5v-809q0 -31 0.5 -49.5t2.5 -44.5t6 -42.5t10.5 -34t17.5 -30t26 -20.5q4 -3 25 -5.5t39 -6.5t18 -9 q0 -12 -25 -12q-26 0 -85 4t-93 4q-19 0 -64.5 -3t-86.5 -3q-33 0 -33 12q0 2 1.5 4t5.5 3.5t7 2.5t8.5 2t8.5 2q45 15 61 29q23 21 23 166v844q0 70 -15.5 101.5t-68.5 39.5q-39 8 -39 17z" />
<glyph unicode="&#xfb04;" horiz-adv-x="2947" d="M154 1217q0 10 28 10q30 0 96.5 -4t106.5 -4q252 0 381 6q12 0 38 4t42 4q10 0 10 -14q0 -3 -1 -9.5t-1 -9.5q0 -31 5 -64t5 -55q0 -18 -14 -18q-4 0 -7 3.5t-5 9.5l-2 7q-11 46 -57 59t-138 13h-190q-22 0 -28.5 -7t-6.5 -30v-428q0 -9 5 -14t10 -5.5t15 -0.5h129 q44 0 94.5 8t69.5 27q5 5 11 24t13.5 35t16.5 16q5 0 9 -4t4 -10q0 -19 -5.5 -59.5t-5.5 -63.5q0 -28 4.5 -84.5t4.5 -83.5q0 -26 -15 -26q-4 0 -6.5 0.5t-4.5 2.5t-3 3.5t-1.5 5.5t-1 6.5t-1 8.5t-0.5 9q-5 54 -25 72q-21 21 -45.5 27t-101.5 6h-148q-12 0 -17 -4.5 t-5 -18.5v-313q0 -164 28 -205q19 -26 64 -31q31 0 31 -12t-29 -12q-17 0 -70.5 3t-89.5 3q-25 0 -74.5 -4t-82.5 -4q-29 0 -29 10t24 14q46 6 70 50q12 21 21.5 95t9.5 171v735q0 59 -19 93t-71 42q-4 1 -12 2t-13 2t-10 2.5t-7.5 3.5t-2.5 5zM1153 1217q0 10 29 10 q30 0 96 -4t106 -4q252 0 381 6q12 0 38 4t42 4q10 0 10 -14q0 -3 -1 -9.5t-1 -9.5q0 -31 5.5 -64t5.5 -55q0 -18 -15 -18q-4 0 -7 3.5t-5 10l-2 6.5q-4 17 -12.5 29t-23 20t-29.5 12.5t-38 7t-42.5 3t-49.5 0.5h-190q-22 0 -28.5 -7t-6.5 -30v-428q0 -9 5 -14t10 -5.5 t16 -0.5h129q44 0 94.5 8t69.5 27q4 4 16 39.5t25 35.5q5 0 8.5 -4t3.5 -10q0 -19 -5 -59.5t-5 -63.5q0 -28 4 -84t4 -84q0 -26 -14 -26q-3 0 -5.5 0.5t-4 1.5l-3 2t-2.5 3.5t-1.5 4t-1 5t-0.5 5.5t-0.5 7t-0.5 7q-5 55 -24 72q-15 15 -28 21t-39.5 9t-80.5 3h-147 q-12 0 -17.5 -4.5t-5.5 -18.5v-313q0 -162 29 -205q19 -27 63 -31q31 0 31 -12t-29 -12q-17 0 -70 3t-89 3q-25 0 -75 -4t-83 -4q-29 0 -29 10t25 14q16 2 26.5 6.5t21.5 15t21 28.5q12 21 21.5 95t9.5 171v735q0 59 -19 93t-71 42q-4 1 -12 2t-13 2t-10 2.5t-7.5 3.5 t-2.5 5zM2179 6q0 2 1.5 4t5 2.5t6.5 1t7.5 1.5t6.5 1q43 5 59 37q27 55 27 221v787q0 79 -27 115q-3 3 -5.5 6t-6 5.5t-6.5 4t-7.5 3.5t-7 3t-8 2t-8 2t-8.5 2.5t-8 1.5q-1 0 -5 1l-6 1.5t-4.5 1.5t-4 3t-1.5 4q0 8 29 8q17 0 64.5 -3t84.5 -3q43 0 81.5 3t64.5 3 q20 0 20 -11q0 -8 -29 -14q-36 -8 -53 -31q-22 -24 -22 -108v-731q0 -66 6 -137q2 -40 13.5 -67.5t41.5 -35.5q63 -16 197 -16q67 0 96.5 4t44.5 13.5t37 35.5q30 37 39 37q12 0 12 -10q0 -9 -16 -52q-19 -51 -25 -92q-2 -9 -5 -11.5t-15 -2.5q-160 0 -238 2q-29 0 -120 1 t-120 1q-19 0 -67.5 -2t-87.5 -2q-33 0 -33 10z" />
<glyph horiz-adv-x="2048" />
<glyph horiz-adv-x="2048" />
<glyph unicode="&#xd;" horiz-adv-x="2048" />
<glyph unicode=" "  horiz-adv-x="655" />
<glyph unicode="&#x09;" horiz-adv-x="655" />
<glyph unicode="&#xa0;" horiz-adv-x="655" />
<glyph unicode="!" horiz-adv-x="440" d="M123 94q0 43 27.5 69.5t68.5 26.5t69.5 -25.5t28.5 -68.5q0 -45 -27 -73.5t-71 -28.5q-40 0 -68 28t-28 72zM125 1438q57 -4 94 -4l94 4q-31 -234 -39 -408l-30 -567q0 -15 -6.5 -36t-18.5 -21t-18 19t-6 34l-31 573q-6 106 -39 406z" />
<glyph unicode="&#x22;" horiz-adv-x="638" d="M123 1468q37 -4 74 -4l73 4l-49 -360q-9 -57 -24 -57t-25 57zM369 1468q36 -4 73 -4l74 4l-49 -360q-9 -57 -25 -57q-15 0 -24 55z" />
<glyph unicode="#" horiz-adv-x="1120" d="M76 510l6 39q1 8 4.5 11.5t9.5 4t23 0.5h196l50 314h-201q-20 0 -24.5 4t-2.5 18l6 43q1 12 7.5 14.5t29.5 2.5h197l74 464q3 20 7 24.5t15 4.5h47q11 0 13 -4.5t-1 -24.5l-73 -464h276l74 464q3 20 7 24.5t15 4.5h48q11 0 13 -4.5t-1 -24.5l-74 -464h201q19 0 25 -4.5 t4 -16.5l-7 -39q-3 -16 -9.5 -19t-22.5 -3h-203l-49 -314h202q19 0 23.5 -4.5t1.5 -21.5l-6 -39q-1 -11 -7.5 -14t-21.5 -3h-205l-77 -501q-3 -17 -7 -20t-20 -3h-41q-12 0 -14.5 4.5t0.5 26.5l78 493h-277l-78 -501q-3 -17 -7 -20t-19 -3h-41q-12 0 -15 4.5t0 26.5l78 493 h-201q-23 0 -27 6t1 21zM397 565h277l49 314h-277z" />
<glyph unicode="$" horiz-adv-x="899" d="M102 244q0 80 15 80q6 0 10 -15t8 -38t10 -35q54 -121 228 -136l33 588l-87 55q-90 58 -140 143.5t-50 188.5q0 82 40 158t107 113q57 32 168 43l5 84q1 4 2 6.5t2.5 5t5 3.5t8.5 1h37q11 0 14.5 -2t3.5 -8l-6 -88q52 -2 117 -13.5t92 -11.5q18 0 27.5 4t13.5 4q6 0 6 -6 q0 -8 -5 -24t-5 -23q0 -15 2 -43.5t2 -42.5q0 -88 -16 -88q-4 0 -6.5 8.5t-6 22.5t-9 30t-16.5 34t-26 32q-56 48 -172 63l-29 -530l117 -74q48 -31 81.5 -59.5t60.5 -65t40 -80.5t13 -98q0 -71 -28 -139t-75.5 -120t-113.5 -86t-138 -40l-4 -100q-4 -21 -16 -21h-43 q-17 0 -17 13q0 2 1.5 15.5t3 32.5t2.5 29l2 29q-142 4 -238 43q-1 1 -6.5 3.5t-7.5 3.5t-5 3.5t-4 5.5t-1 7q-7 53 -7 135zM221 1130q0 -155 191 -276l2 -2l26 487q-93 -6 -156 -62t-63 -147zM446 98q85 4 138 41q51 35 84.5 98.5t33.5 124.5q0 43 -15.5 81.5t-43.5 70.5 t-58 56t-69 48l-41 25z" />
<glyph unicode="%" horiz-adv-x="1910" d="M102 954q0 82 18.5 162.5t56 154.5t105.5 119.5t156 45.5q91 0 160.5 -39t109.5 -104t60 -142.5t20 -163.5q0 -88 -22 -168t-64.5 -146t-115 -105.5t-164.5 -39.5q-81 0 -145 38.5t-101 102t-55.5 136.5t-18.5 149zM213 1063q0 -53 6 -110t24 -124.5t45 -120t74 -87.5 t107 -35q62 0 112 52t73.5 119t23.5 126q0 58 -6 117t-24 130t-46 124.5t-78 89.5t-114 36q-48 0 -88 -33.5t-62.5 -84.5t-34.5 -103t-12 -96zM514 -12l797 1454h82l-797 -1454h-82zM1122 426q0 64 11 128.5t37 129t63.5 113.5t96.5 79.5t130 30.5q91 0 160 -39t109 -104.5 t59.5 -142.5t19.5 -162q0 -88 -22 -168t-64.5 -146t-115 -105.5t-164.5 -39.5q-81 0 -145 38.5t-101 102t-55.5 136.5t-18.5 149zM1233 535q0 -53 6 -110t24 -125t45 -120.5t74 -87.5t107 -35q62 0 112.5 51t74.5 117.5t24 126.5q0 47 -4.5 96t-15 107.5t-31 109t-49 93 t-72.5 67.5t-98 25q-48 0 -88 -33.5t-62.5 -83.5t-34.5 -102t-12 -96z" />
<glyph unicode="&#x26;" horiz-adv-x="1634" d="M82 498q0 191 166 340q43 39 82 61q20 7 20 16q0 7 -16 15q-117 74 -117 213q0 154 100.5 238.5t257.5 84.5q96 0 234 -49q6 -2 33 -12t48.5 -16.5t31.5 -6.5q6 0 18 3.5t18 3.5q9 0 9 -13q0 -14 -2 -42t-2 -42q0 -26 4 -77t4 -76q0 -27 -10 -27q-9 0 -9 27t-34 78 q-62 91 -160.5 139.5t-210.5 48.5q-92 0 -152.5 -57t-60.5 -148q0 -109 77 -195.5t185 -86.5q55 0 55 -21q0 -23 -57 -23q-161 0 -261 -96t-100 -256q0 -139 72 -253t191 -177t256 -63q87 0 170.5 21.5t155 63.5t115.5 115t44 166q0 80 -14 139.5t-52 122.5q-137 19 -215 19 q-35 0 -71.5 -7t-72 -22t-58.5 -43.5t-23 -66.5q0 -76 25 -101q3 -3 13.5 -9.5t20 -12t9.5 -6.5q0 -15 -19 -15q-47 0 -75.5 50t-28.5 100q0 132 68.5 188.5t203.5 56.5q142 0 242 -10q19 -2 54.5 -7t64.5 -8t55 -3q24 0 38 0.5t39 4.5t39.5 11.5t26 23.5t11.5 38 q0 35 -16.5 47.5t-33 14.5t-16.5 11q0 15 29 15q40 0 66 -49t26 -93q0 -31 -7 -54.5t-16.5 -39t-29 -26t-34 -16t-43 -8t-45.5 -3t-50 -0.5q22 -61 22 -129q0 -120 -49 -221q-55 -112 -150 -185.5t-204.5 -104t-239.5 -30.5q-105 0 -198 18.5t-175.5 59.5t-142.5 102 t-94.5 150.5t-34.5 200.5z" />
<glyph unicode="'" horiz-adv-x="393" d="M123 1468q37 -4 74 -4l73 4l-49 -360q-9 -57 -24 -57t-25 57z" />
<glyph unicode="(" horiz-adv-x="577" d="M61 680q0 182 70 362.5t191 331.5q80 97 131 133q11 11 16 11q1 0 3.5 -2.5t2.5 -4.5t-5.5 -8.5t-6.5 -7.5q-128 -134 -201.5 -360t-73.5 -430q0 -411 172 -685q24 -38 101 -137q12 -12 12 -20l-6 -4q-2 1 -6 4t-6 4q-180 137 -287 361t-107 452z" />
<glyph unicode=")" horiz-adv-x="577" d="M102 -135q0 2 6 8.5t7 7.5q128 138 201 362t73 429q0 254 -61 444t-211 379q-13 14 -13 16q0 7 7 7q2 -1 6 -4.5t6 -4.5q178 -133 285.5 -358t107.5 -451q0 -184 -69.5 -365.5t-190.5 -332.5q-76 -91 -131 -133q-10 -10 -16 -10q-2 0 -4.5 2.5t-2.5 3.5z" />
<glyph unicode="*" horiz-adv-x="946" d="M82 1171l80 132q252 -218 289 -234q0 55 -14 146t-28 155l-14 64h162q-62 -256 -68 -365q48 27 119.5 85.5t118.5 103.5l47 45l76 -121q-305 -115 -344 -146q44 -23 133.5 -55t156.5 -53l68 -21l-86 -129q-248 214 -289 230q0 -56 16.5 -147.5t32.5 -154.5l17 -63h-162 q58 304 58 365q-49 -29 -119 -87t-115 -101l-45 -44l-76 131q301 102 340 129q-36 25 -124.5 59t-159.5 55z" />
<glyph unicode="+" horiz-adv-x="1019" d="M102 662v98h361v356h96v-356h359v-98h-357v-361h-98v361h-361z" />
<glyph unicode="," horiz-adv-x="413" d="M109 96q0 25 39 70t63 45q20 0 63 -48t43 -81q0 -112 -157 -297q-10 -12 -21 -12q-4 0 -4 6q0 3 17.5 42t35 89.5t17.5 83.5q0 21 -24 41.5t-48 36t-24 24.5z" />
<glyph unicode="-" horiz-adv-x="696" d="M123 686q0 4 1.5 7.5t5.5 6.5l6 4.5t7.5 4.5t6.5 4l352 151q50 25 63 25q8 0 8 -27q0 -34 -6 -44.5t-26 -20.5l-301 -154q-59 -29 -78 -29q-13 0 -26 28.5t-13 43.5z" />
<glyph unicode="." horiz-adv-x="440" d="M123 94q0 43 27.5 69.5t68.5 26.5t69.5 -25.5t28.5 -68.5q0 -45 -27 -73.5t-71 -28.5q-40 0 -68 28t-28 72z" />
<glyph unicode="/" horiz-adv-x="825" d="M41 -111q0 7 4 19l655 1657q6 18 15 18q2 0 14 -4l45 -16q10 -3 10 -11q0 -6 -4 -14l-661 -1665q-8 -18 -19 -18q-6 0 -16 4l-33 14q-10 3 -10 16z" />
<glyph unicode="0" horiz-adv-x="1280" d="M102 668q0 162 29 295t80 225.5t121 155.5t150.5 92.5t170.5 29.5q79 0 149.5 -27.5t122.5 -74t95 -108.5t72 -129.5t48.5 -139.5t28.5 -136.5t9 -121.5q0 -119 -18.5 -227.5t-60 -207t-103 -170.5t-154.5 -114.5t-207 -42.5q-100 0 -187 42t-149.5 112.5t-107.5 161.5 t-67 189.5t-22 195.5zM256 850q0 -197 22 -343t71.5 -256t134 -166t204.5 -56q154 0 239 145t85 379q0 98 -3 177t-13 170.5t-27 161t-46.5 136.5t-69.5 110.5t-98.5 70t-131.5 26.5q-107 0 -191.5 -73.5t-130 -199.5t-45.5 -282z" />
<glyph unicode="1" horiz-adv-x="862" d="M102 1286q0 13 29 25q14 5 57 17t87 27t81 31q38 16 69 39.5t45.5 38.5t18.5 15q11 0 11 -19q0 -68 -6.5 -287t-6.5 -288v-523q0 -91 1.5 -135.5t10 -95t25.5 -68.5q52 -57 160 -57q35 0 35 -12q0 -19 -35 -19q-32 0 -123.5 12.5t-122.5 12.5q-45 0 -192 -14q-1 0 -45 -3 t-56 -3q-34 0 -34 12q0 15 30 18q79 5 111 15q19 6 34.5 18t26 32.5t18 39.5t12.5 51.5t7.5 55.5t4 65t1.5 66v71v686q0 128 -10 159q-15 39 -59 40q-15 0 -81 -18.5t-83 -18.5q-21 0 -21 14z" />
<glyph unicode="2" horiz-adv-x="1116" d="M82 -2q0 6 31.5 41t75.5 80.5t47 48.5l223 246q332 365 332 608q0 70 -23 137.5t-65 123t-109.5 89t-149.5 33.5q-118 0 -206 -82t-88 -168q0 -12 -9 -12t-14.5 19.5t-5.5 31.5q0 18 1 56t1 57q0 12 -1.5 23t-4.5 25t-4 23q0 8 6 8q8 0 19 -2t18 -2q12 0 42 13t65.5 29 t98.5 29t134 13q122 0 229 -61t169 -161t62 -212q0 -62 -15 -122.5t-46 -118t-63 -105.5t-82.5 -104.5t-87 -94t-94 -94.5t-87.5 -88l-174 -180q-10 -13 -10 -27q0 -20 25 -20h378q132 0 193 51q7 5 24 30t27 48q14 33 23 33q6 0 6 -9q0 -8 -3.5 -21t-12 -40.5t-15.5 -52.5 q-6 -23 -14 -101q-3 -24 -25 -24q-7 0 -25 1t-26 1q-51 0 -153.5 3t-153.5 3q-80 0 -154.5 -2t-124.5 -5t-88 -6t-58 -5l-20 -2q-10 0 -14 4t-4 14z" />
<glyph unicode="3" horiz-adv-x="1060" d="M102 229q0 25 9 25q7 0 12.5 -12t9.5 -29t6 -20q23 -54 77 -92t117 -55t128 -17t118 18t88.5 48t60 69.5t35.5 81t11 84.5q0 196 -106 307t-283 111q-14 0 -29.5 -1.5t-31.5 -1.5q-9 0 -16 6t-7 17t14.5 18t40.5 7q149 0 232 38q80 37 123 113.5t43 181.5 q0 119 -94.5 199t-217.5 80q-144 0 -243 -123q-15 -18 -22.5 -45t-11.5 -43t-11 -16q-15 0 -15 18q0 26 3 72.5t3 70.5q0 9 -1 28t-1 28q0 12 13 12q4 0 13 -2t13 -2q18 0 61 15.5t106.5 31.5t133.5 16q99 0 193 -40t158.5 -120t64.5 -180q0 -67 -28.5 -125t-73 -97 t-84.5 -63t-78 -38q-2 0 -6 -3.5t-4 -6.5t3 -6t5 -3q32 -4 70 -22t78 -52t72.5 -78t53.5 -106.5t21 -132.5q0 -104 -40 -187t-108 -134t-154 -78t-182 -27q-129 0 -313 49q-7 2 -11 4t-5.5 5.5t-2 6.5t-1 8.5t-0.5 8.5q-2 20 -2 66q0 19 -3.5 57t-3.5 57z" />
<glyph unicode="4" horiz-adv-x="1165" d="M82 463q0 22 45 78l580 735q29 36 56 71.5t41 54.5t26 34.5t18.5 21.5t11.5 6q10 0 12 -5t2 -19q0 -40 -2 -119t-2 -119v-629q0 -12 1 -18.5t7 -13t19 -6.5h141q25 0 25 -13q0 -4 -6 -22l-8 -29q-6 -21 -14.5 -25t-37.5 -4h-100q-20 0 -23.5 -3t-3.5 -21v-205 q0 -197 148 -197q45 0 45 -12q0 -16 -39 -16q-33 0 -116.5 6t-116.5 6q-32 0 -104.5 -5t-117.5 -5q-34 0 -34 12q0 8 14.5 12t25.5 4q164 0 164 162v232q0 16 -5 23t-21 7h-607q-24 0 -24 21zM217 547q0 -12 16 -12h478q28 0 28 47v592q0 30 -8 30q-5 0 -24 -24l-385 -482 q-105 -133 -105 -151z" />
<glyph unicode="5" horiz-adv-x="1060" d="M102 231q0 41 13 41q12 0 19.5 -20.5t18 -55.5t23.5 -57q26 -43 116.5 -76.5t194.5 -33.5q136 0 232 102t96 264q0 114 -30 194t-96.5 131.5t-158.5 80.5t-229 45l-137 16q-17 3 -20 7q-1 3 -1 8q0 32 15 92q36 180 59 297q2 13 11 67t12 70q3 15 12 22t19 8t34 1h404 q37 0 97 5t87 5q8 0 8 -6q0 -15 -2.5 -29t-7 -32t-6.5 -29q-4 -23 -4 -64q0 -22 -13 -22q-4 0 -7 7.5t-6.5 18.5t-8.5 17q-35 38 -213 38h-279q-33 0 -45 -7.5t-18 -37.5l-51 -280q0 -1 -3.5 -20.5t-3.5 -20.5q0 -7 17 -10q196 -21 268 -35q207 -41 323.5 -160.5 t116.5 -310.5q0 -106 -31 -191.5t-82 -140.5t-119 -92.5t-138.5 -53.5t-145.5 -16q-39 0 -76.5 4.5t-95 14.5l-80.5 14q-56 8 -70 16.5t-14 38.5q0 28 -2 87t-2 89z" />
<glyph unicode="6" horiz-adv-x="1224" d="M123 600q0 135 25.5 252.5t68 203t99.5 155.5t119.5 115.5t129.5 76.5t126.5 44t113.5 13q45 0 86 -7t41 -21q0 -15 -19 -15q-4 0 -31.5 3t-60.5 3q-41 0 -85.5 -9t-97 -33t-100.5 -60t-93 -94.5t-78.5 -132t-53.5 -178t-20 -226.5q0 -310 102.5 -485.5t282.5 -175.5 q293 0 293 383q0 123 -35.5 227t-111 172t-177.5 68q-86 0 -151 -48q-10 -10 -21 -10q-12 0 -12 13q0 8 14 18q78 57 199 57q181 0 313.5 -125.5t132.5 -302.5q0 -239 -126 -376.5t-365 -137.5q-96 0 -180 40.5t-143 106.5t-101.5 149t-63 169.5t-20.5 167.5z" />
<glyph unicode="7" horiz-adv-x="1036" d="M61 1223q0 34 16.5 101t16.5 101q0 17 12 17q38 0 115 -4t115 -4h631q18 0 23 -2t5 -9q0 -11 -12 -39q-24 -58 -170.5 -371t-165.5 -364q-159 -446 -207 -704q-47 10 -102 37q-21 10 -38.5 22t-24.5 18l-7 7q48 182 181 499q36 88 153.5 308.5t212.5 377.5 q12 18 30.5 59.5t18.5 59.5q0 10 -22 10h-543q-157 0 -195 -67q-6 -11 -10 -31.5t-8 -33.5t-10 -13q-15 0 -15 25z" />
<glyph unicode="8" horiz-adv-x="1173" d="M123 358q0 77 26.5 140t76.5 111t103 81.5t126 67.5q-62 34 -106 66.5t-84.5 75t-61.5 96t-21 116.5q0 158 110 256t296 98q107 0 199 -37.5t150 -113t58 -174.5q0 -75 -22.5 -127.5t-61.5 -87t-110 -74.5q-48 -25 -105 -47q63 -31 107 -56.5t94.5 -66.5t81.5 -84.5 t51.5 -105.5t20.5 -134q0 -93 -38.5 -168.5t-102.5 -122.5t-144.5 -72.5t-167.5 -25.5q-92 0 -174.5 22t-151 66.5t-109 122t-40.5 178.5zM244 401q0 -153 104.5 -262.5t272.5 -109.5q76 0 148.5 31t123.5 94.5t51 144.5q0 76 -28.5 136.5t-98 113.5t-114.5 79.5t-148 77.5 q-30 15 -45 23q-58 -26 -102 -54t-83 -67.5t-60 -91.5t-21 -115zM295 1180q0 -45 11.5 -83t38 -70.5t52 -56t71.5 -50.5t76.5 -42t86.5 -42q59 27 99.5 49.5t78.5 53.5t57 67.5t19 80.5q0 123 -102 220.5t-238 97.5q-100 0 -175 -63t-75 -162z" />
<glyph unicode="9" horiz-adv-x="1224" d="M102 952q0 239 129 376.5t351 137.5q93 0 176.5 -37t145 -99.5t107 -143.5t68.5 -171.5t23 -180.5q0 -187 -44 -339t-113 -248t-159.5 -161.5t-178 -92t-173.5 -26.5q-58 0 -132 20.5t-126.5 52t-52.5 58.5q0 17 18 17q9 0 24.5 -13t36.5 -29t79 -29t143 -13q40 0 84 9.5 t95 34t98 61.5t91 96t76.5 133t52 178t19.5 225q0 177 -50 323t-138 230t-195 84q-83 0 -143.5 -31t-94.5 -86t-49.5 -121t-15.5 -145q0 -89 20.5 -171t59.5 -148.5t101.5 -106t139.5 -39.5q21 0 40.5 3t31.5 6t27.5 10.5t21 10.5t20 12.5t15.5 10.5q9 6 19 6q12 0 12 -14 q0 -4 -2.5 -8t-5.5 -6l-2 -2q-75 -62 -199 -62q-120 0 -222.5 53t-165.5 152.5t-63 222.5z" />
<glyph unicode=":" horiz-adv-x="440" d="M123 94q0 43 27.5 69.5t68.5 26.5t69.5 -25.5t28.5 -68.5q0 -45 -27 -73.5t-71 -28.5q-40 0 -68 28t-28 72zM123 819q0 43 27.5 69.5t68.5 26.5t69.5 -25.5t28.5 -68.5q0 -45 -27 -73.5t-71 -28.5q-40 0 -68 28t-28 72z" />
<glyph unicode=";" horiz-adv-x="440" d="M109 96q0 25 39 70t63 45q20 0 63 -48t43 -81q0 -112 -157 -297q-10 -12 -21 -12q-4 0 -4 6q0 3 17.5 42t35 89.5t17.5 83.5q0 21 -24 41.5t-48 36t-24 24.5zM123 819q0 43 27.5 69.5t68.5 26.5t69.5 -25.5t28.5 -68.5q0 -45 -27 -73.5t-71 -28.5q-40 0 -68 28t-28 72z " />
<glyph unicode="&#x3c;" horiz-adv-x="1019" d="M102 668v102l816 375v-103l-709 -325l709 -326v-102z" />
<glyph unicode="=" horiz-adv-x="1019" d="M102 518v96h816v-96h-816zM102 854v98h816v-98h-816z" />
<glyph unicode="&#x3e;" horiz-adv-x="1019" d="M102 289v102l711 326l-711 325v103l816 -375v-102z" />
<glyph unicode="?" horiz-adv-x="694" d="M61 1327q0 17 17 47q31 48 92 70t129 22q111 0 191.5 -74.5t80.5 -185.5q0 -74 -35.5 -146t-86 -131.5t-101 -117.5t-86 -125.5t-35.5 -134.5q0 -22 15.5 -39.5t31 -30.5t15.5 -24q0 -20 -4 -26.5t-23 -6.5q-26 0 -46 32t-28 67t-8 61q0 50 24.5 110.5t60 118t71 117.5 t60 130t24.5 134q0 102 -50 156.5t-151 54.5q-28 0 -61 -20t-43 -46q-1 -3 -3.5 -9t-3.5 -8.5t-3.5 -6.5t-5.5 -5.5t-7.5 -3t-11.5 -1.5q-8 0 -13.5 7t-5.5 15zM176 94q0 43 27.5 69.5t68.5 26.5t70 -25.5t29 -68.5q0 -45 -27.5 -73.5t-71.5 -28.5q-40 0 -68 28t-28 72z" />
<glyph unicode="@" horiz-adv-x="1724" d="M123 592q0 170 70 330.5t186 278.5t275 189.5t329 71.5q303 0 461 -147t158 -393q0 -101 -38.5 -202t-103 -180.5t-158 -129.5t-196.5 -50q-150 0 -150 211q0 13 5 76l-5 2q-90 -133 -186.5 -207.5t-161.5 -74.5q-41 0 -71.5 53.5t-30.5 128.5q0 102 27 193t72.5 157 t104 114.5t123 72.5t128.5 24q60 0 106 -23q15 17 59.5 47.5t65.5 30.5q12 0 12 -16q0 -3 -15 -22t-35.5 -55.5t-31.5 -76.5q-30 -105 -30 -366q0 -44 4.5 -74.5t16.5 -58.5t37.5 -42t63.5 -14q120 0 209.5 132t89.5 343q0 105 -35 195t-101.5 158.5t-171.5 107.5t-236 39 q-164 0 -300 -62t-227.5 -170.5t-141.5 -256.5t-50 -318q0 -265 151.5 -417t395.5 -152q176 0 294.5 46.5t229.5 135.5q22 19 39 19q12 0 12 -13q0 -14 -31 -45q-85 -84 -246 -149.5t-339 -65.5q-132 0 -244.5 38.5t-200.5 113t-138 196t-50 277.5zM649 594q0 -41 13 -79 t34 -38q47 0 131.5 87t141.5 181q20 140 53 269q-18 9 -56.5 19.5t-64.5 10.5q-69 0 -121 -45.5t-79 -117t-39.5 -144t-12.5 -143.5z" />
<glyph unicode="A" horiz-adv-x="1290" d="M-41 6q0 4 11.5 7t28 7.5t24.5 12.5q27 26 61.5 93.5t52.5 111.5t51 129l347 866q14 36 31.5 82t29 76t22.5 58.5t18.5 42t12.5 13.5t9.5 -5t7.5 -10t6.5 -13t3.5 -9q19 -46 49 -130t43 -117l389 -1037q35 -92 60 -124q26 -32 57 -42l17 -4q17 -3 28.5 -6t11.5 -6 q0 -10 -14 -10q-33 0 -98.5 4t-98.5 4q-28 0 -82 -3t-82 -3q-36 0 -36 6q0 8 12.5 11.5t30 4.5t20.5 2q45 14 45 72q0 37 -24 111l-97 256q-16 44 -30 54.5t-66 10.5h-408q-47 0 -60 -8t-30 -51l-86 -234q-9 -24 -20.5 -69.5t-11.5 -63.5q0 -52 38 -73q3 -1 16 -4t23.5 -7 t10.5 -8q0 -10 -21 -10q-20 0 -71 3t-72 3q-25 0 -66 -3t-65 -3q-29 0 -29 12zM375 610q0 -8 5.5 -10t20.5 -2h396q51 0 51 18q0 13 -107 302l-63 169q-45 121 -60 121q-13 0 -45 -80l-79 -202q-3 -9 -34 -87.5t-58 -150t-27 -78.5z" />
<glyph unicode="B" horiz-adv-x="1210" d="M160 1430q0 14 57 14q27 0 81.5 -5t80.5 -5q34 0 100.5 4t100.5 4q97 0 182.5 -40.5t139.5 -118t54 -175.5q0 -230 -180 -332l-8 -4q-8 -5 -12 -8.5t-4 -7.5q0 -5 43 -19q140 -47 226.5 -147t86.5 -240q0 -86 -39 -156.5t-104 -115t-145 -68.5t-165 -24q-49 0 -140 7 t-140 7q-29 0 -93 -3t-94 -3q-22 0 -22 10q0 5 9.5 8t25 4.5t16.5 1.5q43 8 64 52q26 53 26 342v856q0 126 -90 145q-4 1 -21 2.5t-26.5 5t-9.5 9.5zM438 303q0 -173 25 -211q42 -63 180 -63q144 0 232 69t88 213q0 100 -41.5 178.5t-110.5 124.5t-151.5 69.5t-172.5 23.5 q-18 0 -27 -2t-15.5 -10.5t-6.5 -26.5v-365zM438 838q0 -36 17 -45q42 -19 163 -19h48q82 0 125 74.5t43 185.5q0 136 -96 239t-230 103q-47 0 -58.5 -10.5t-11.5 -62.5v-465z" />
<glyph unicode="C" horiz-adv-x="1460" d="M82 731q0 154 53 293q81 218 248.5 330t402.5 112q184 0 322 -30q10 -2 84.5 -21.5t93.5 -19.5q6 0 13 5t10 5q6 0 6 -23q0 -14 -3 -42t-3 -42q0 -20 3 -59t3 -59q0 -31 -8 -31q-5 0 -8 2.5t-6 8.5t-5 12t-6 16.5t-8 19.5q-13 30 -53 70q-145 127 -478 127 q-129 0 -229 -50.5t-160 -138t-90.5 -196.5t-30.5 -234q0 -148 46.5 -284.5t130.5 -242.5t212 -169t281 -63q173 0 303 92q62 46 78 86l2 7q2 7 4 13.5t5.5 14t7 12t6.5 4.5q8 0 8 -25q0 -20 -4.5 -48.5t-12 -63.5t-10.5 -51q-3 -21 -6.5 -26.5t-21.5 -12.5 q-166 -62 -418 -62q-360 0 -561 201t-201 563z" />
<glyph unicode="D" horiz-adv-x="1619" d="M158 1430q0 14 51 14q27 0 79.5 -5t78.5 -5q73 0 220 7t220 7q101 0 214 -21.5t187 -62.5q158 -88 244 -256.5t86 -359.5q0 -230 -85.5 -401.5t-253.5 -267t-402 -95.5q-71 0 -211.5 8t-210.5 8q-33 0 -93.5 -4t-93.5 -4q-28 0 -28 12q0 3 3 5t8.5 3t10.5 1.5t11.5 1.5 t9.5 1q55 7 76 47q28 49 28 252v942q0 76 -27.5 116t-101.5 44q-20 0 -20 13zM438 469q0 -45 2 -110t9.5 -146.5t19.5 -93.5q2 -2 19.5 -12t19.5 -11q114 -57 317 -57q578 0 578 651q0 191 -90.5 363t-251.5 260q-70 38 -165 58t-183 20q-86 0 -152 -2q-9 0 -29 -1 t-26.5 -1.5t-20 -2.5t-18 -5t-12.5 -9.5t-10 -15.5t-4.5 -22.5t-2.5 -31.5v-831z" />
<glyph unicode="E" horiz-adv-x="1099" d="M145 4q0 8 35 12q26 3 40.5 6t33.5 15t27 33q26 69 26 514v694q0 68 -26.5 99.5t-94.5 43.5q-28 5 -28 13q0 12 26 12q30 0 88 -6t88 -6q80 0 241 5t241 5q18 0 52 2t52 2q8 0 8 -14q0 -6 -1 -18t-1 -17q0 -17 2 -53t2 -54q0 -12 -8 -12q-7 0 -16 14q-15 28 -30 38.5 t-54 21.5q-47 12 -117 12h-248q-21 0 -28.5 -1.5t-12 -10t-4.5 -27.5v-483q0 -26 5 -33.5t30 -7.5h234q93 0 118 22q21 17 27 39q0 2 1 7.5t2.5 11t3 11.5t4 9.5t5.5 3.5q11 0 11 -39q0 -16 -3.5 -46t-3.5 -46q0 -24 2.5 -72t2.5 -73q0 -21 -9 -21q-4 0 -6.5 7.5t-4 19 t-1.5 12.5q-6 17 -20 35q-23 29 -103 29h-264q-20 0 -25.5 -7.5t-5.5 -29.5v-479q0 -53 29 -80q43 -39 201 -39q223 0 276 74q3 3 7.5 11.5t9 13.5t8.5 5q8 0 8 -8q0 -20 -23 -86.5t-36 -79.5q-14 -14 -52 -14q-70 0 -228.5 3t-227.5 3q-38 0 -113 -3t-113 -3q-39 0 -39 10z " />
<glyph unicode="F" horiz-adv-x="1085" d="M154 1434q0 10 26 10q38 0 115 -5t115 -5q289 0 434 8q11 1 42.5 4.5t49.5 3.5q4 0 4 -14q0 -7 -1 -20.5t-1 -20.5q0 -21 6 -61t6 -60q0 -19 -10 -19q-8 0 -8 23q-8 53 -65 69.5t-165 16.5h-219q-28 0 -36.5 -8.5t-8.5 -36.5v-506q0 -13 7 -19t14 -7t20 -1h150 q52 0 110 8.5t80 30.5q10 10 17.5 33.5t13 41.5t12.5 18q6 0 6 -21q0 -23 -6 -70t-6 -71q0 -33 5 -98.5t5 -98.5q0 -29 -10 -29t-11.5 22.5t-5.5 53.5t-20 47q-25 25 -57.5 34t-120.5 9h-170q-19 0 -26 -4.5t-7 -23.5v-371q0 -197 35 -248q21 -31 76 -35q31 0 31 -10 t-29 -10q-27 0 -84 3t-84 3q-31 0 -95.5 -5t-97.5 -5q-24 0 -24 10t22 14q30 5 49 17t35 43q13 26 24 113.5t11 203.5v866q0 61 -17.5 101.5t-66.5 56.5q-3 1 -21.5 3.5t-33 6.5t-14.5 9z" />
<glyph unicode="G" horiz-adv-x="1566" d="M82 745q0 138 49 269.5t144 238t221 160.5q62 27 156.5 40t178.5 13q166 0 291 -30q8 -2 79.5 -23.5t96.5 -21.5q33 0 49.5 11t18.5 11q8 0 8 -14q0 -21 -8 -69t-8 -81v-57q0 -82 -15 -82q-18 0 -18 27q0 31 -12.5 53.5t-38.5 52.5q-69 78 -200.5 119t-252.5 41 q-95 0 -164.5 -11.5t-142.5 -45.5q-74 -34 -129.5 -91.5t-87.5 -128.5t-48 -148t-16 -159q0 -432 261 -647q175 -145 407 -145q164 0 242 63q40 32 52.5 82.5t12.5 132.5v232q0 29 -8.5 64t-25.5 48q-18 17 -45 25.5t-43.5 12.5t-16.5 11q0 13 31 13q22 0 86.5 -6.5 t109.5 -6.5q23 0 75 5.5t73 5.5q20 0 20 -11q0 -5 -14.5 -9.5t-36 -11.5t-33.5 -15q-26 -19 -33.5 -64t-7.5 -149q0 -33 1 -184.5t1 -184.5q0 -13 -18 -27q-53 -37 -194 -61.5t-230 -24.5q-817 0 -817 778z" />
<glyph unicode="H" horiz-adv-x="1820" d="M176 4q0 5 10.5 9.5t24.5 7.5t16 4q58 23 66 49q14 41 14 164v1011q0 135 -80 168q-2 1 -16 3.5t-23.5 7t-9.5 10.5t19 6q31 0 95 -5t95 -5q26 0 77 6t75 6q28 0 28 -14q0 -7 -12 -7q-44 -7 -72 -26q-45 -31 -45 -180v-388q0 -27 5 -33.5t30 -6.5h873q25 0 30.5 6.5 t5.5 33.5v386q0 183 -86 196q-43 7 -43 19q0 10 50 10q23 0 77 -4t78 -4q30 0 81 6t81 6q27 0 27 -10q0 -5 -41 -19q-35 -9 -58 -35q-16 -19 -24.5 -53.5t-9.5 -59t-1 -65.5v-624q0 -417 29 -496q9 -26 26 -41t32 -19t42 -8q13 0 13 -10q0 -12 -60 -12q-23 0 -67 3t-66 3 q-30 0 -92 -3t-92 -3q-14 0 -14 8q0 5 10 8.5t28.5 9t32.5 13.5q25 16 35 49q12 44 12 207v375q0 25 -7 31.5t-32 6.5h-868q-25 0 -31 -6.5t-6 -31.5v-439q0 -144 49 -188q13 -11 26 -16t30.5 -7t27.5 -6q9 -4 9 -8q0 -10 -19 -10q-25 0 -76 5t-116 5q-21 0 -77 -3t-97 -3 q-19 0 -19 10z" />
<glyph unicode="I" horiz-adv-x="745" d="M168 1434q0 12 35 12q25 0 82 -6t82 -6q33 0 90 7t75 7q39 0 39 -12q0 -4 -15.5 -9.5t-37.5 -11.5t-31 -12q-49 -30 -49 -160v-956q0 -111 11.5 -171.5t54.5 -84.5q15 -8 41 -12t42.5 -7t16.5 -10q0 -12 -20 -12q-32 0 -103 5t-102 5q-34 0 -92 -3t-92 -3q-19 0 -19 10 q0 6 17.5 10t43.5 14t42 25q28 26 28 197v999q0 81 -18.5 118t-81.5 50q-39 8 -39 17z" />
<glyph unicode="J" horiz-adv-x="686" d="M88 -354q0 16 25 16q31 0 56 10t44 26t33.5 44.5t24.5 56t17 71t10.5 79t5.5 90.5t2.5 95t0.5 102v960q0 37 -1 58.5t-4.5 48.5t-11.5 42.5t-21 32t-34.5 26t-50.5 15.5q-4 1 -16.5 3t-18.5 4t-6 6q0 14 54 14q27 0 81.5 -6t100.5 -6q31 0 87 6t87 6q20 0 20 -10 q0 -6 -16 -11t-39 -11t-33 -13q-32 -25 -39.5 -96.5t-7.5 -292.5v-959q0 -81 -31 -162.5t-76.5 -139.5t-98.5 -94t-97 -36q-16 0 -24 1t-15.5 6.5t-7.5 17.5z" />
<glyph unicode="K" horiz-adv-x="1513" d="M168 6q0 6 19 8t46.5 11.5t42.5 31.5q31 47 31 289v918q0 116 -63 141q-7 3 -26 6.5t-31.5 8t-12.5 10.5q0 14 43 14q28 0 82.5 -5t81.5 -5q28 0 82.5 4t81.5 4q28 0 28 -8q0 -6 -10 -9.5t-24 -5t-17 -2.5q-35 -16 -49.5 -31t-24.5 -66t-10 -153v-405q0 -12 6 -12 q3 0 21 14.5t43 37t49 44t44.5 40t23.5 21.5l321 295q135 120 135 164q0 24 -12 36t-26.5 13t-26.5 4t-12 11q0 10 28 10q26 0 83 -3t83 -3q82 0 135.5 4t61.5 4q20 0 20 -6t-13 -11t-31.5 -9t-24.5 -7q-77 -32 -218 -156l-510 -462q-20 -20 -20 -27q0 -14 25 -33l555 -526 q51 -49 122.5 -106t110.5 -70q27 -10 49 -13q2 0 18 -0.5t25.5 -3.5t9.5 -10q0 -14 -92 -14q-29 0 -87 3t-87 3q-6 0 -19.5 -2t-19.5 -2q-5 0 -8.5 0.5t-6.5 3t-4.5 4l-5 5l-5.5 5.5l-603 576q-121 121 -129 121t-8 -17v-491q0 -45 12.5 -91t41.5 -67q27 -22 79 -25 q7 0 17 -3.5t10 -8.5q0 -10 -20 -10q-26 0 -80 4t-115 4q-34 0 -98.5 -2t-98.5 -2q-18 0 -18 10z" />
<glyph unicode="L" horiz-adv-x="1056" d="M180 4q0 5 6 7t14.5 2t10.5 1q47 9 65 47q31 61 31 263v927q0 95 -33 138q-4 6 -9.5 10t-9.5 7t-12.5 5.5t-12 3.5t-14.5 3.5t-13 2.5q-23 8 -23 13q0 8 25 8q29 0 85 -4t85 -4t85 4t85 4q12 0 12 -10q0 -8 -29 -15q-23 -5 -37 -12.5t-26 -24.5q-27 -36 -27 -108v-885 q0 -81 6 -164q1 -24 3 -40t8.5 -35.5t20.5 -32t36 -17.5q74 -16 227 -16q142 0 170 22q10 8 28 29.5t32 38t18 16.5q8 0 8 -8q0 -7 -20 -66.5t-27 -103.5q-1 -7 -2 -9t-4 -3.5t-10 -1.5q-90 0 -269.5 2t-269.5 2q-31 0 -92 -2t-92 -2q-29 0 -29 8z" />
<glyph unicode="M" horiz-adv-x="1898" d="M92 -2q0 8 19 8q34 5 59 23q59 44 76 225q5 49 38 380t54 505l35 295q0 8 4 20t12 12q12 0 27 -30q1 -3 43 -95q10 -20 41 -89.5t143.5 -313t292.5 -631.5q14 -28 25 -28q5 0 11 7t16 27t19.5 41.5l28.5 64.5t37 81l426 921q12 28 17.5 36.5t15.5 8.5q11 0 14 -30 l33 -371q16 -191 56 -570.5t59 -416.5q18 -38 53 -55q10 -5 25.5 -9t24.5 -7t9 -7q0 -7 -11 -8.5t-44 -1.5q-34 0 -102.5 5t-102.5 5q-24 0 -74 -3t-75 -3q-17 0 -17 10q0 6 23 6q29 3 63 23q54 31 54 174q0 14 -11 160l-51 661q-4 41 -18 41q-15 0 -54 -88l-405 -891 q-2 -5 -6 -14t-6.5 -13.5t-6 -12t-5.5 -11.5t-5 -9.5t-5.5 -8.5l-5 -6t-5 -4t-4.5 -1q-10 0 -25 29q-11 21 -27 56.5t-37 84.5t-74 169t-118 265q-116 264 -198 418q-17 35 -29 35q-8 0 -12 -35l-52 -690q-8 -114 -8 -174q0 -108 45 -137q26 -17 57 -22t38 -7q6 -3 6 -8 q0 -6 -31 -6q-29 0 -87 6t-87 6t-85 -5t-85 -5q-31 0 -31 8z" />
<glyph unicode="N" horiz-adv-x="1781" d="M143 4q0 5 14.5 7.5t35.5 6t32 11.5q28 20 38.5 89.5t10.5 131.5v856l-1 133q-1 133 -1 145q0 72 19 72q7 0 19 -9t21.5 -18.5t22.5 -23.5t15 -16l1024 -1117q24 -24 30 -24q11 0 11 53l-13 821q0 65 -8 152t-27 112q-12 18 -36 28t-41 14.5t-17 9.5q0 10 19 10 q24 0 73.5 -7t75.5 -7t76.5 5t75.5 5q26 0 26 -8q0 -4 -11 -8t-29.5 -9.5t-30.5 -11.5q-16 -9 -25.5 -73t-11.5 -113.5t-2 -85.5v-1106q0 -70 -12 -70q-11 0 -33 19.5t-49.5 50.5t-28.5 32l-981 1065q-38 41 -43 41q-8 0 -8 -53v-870q0 -58 13.5 -120.5t45.5 -86.5 q23 -17 51 -23q33 -7 33 -12q0 -12 -39 -12q-26 0 -72.5 5t-72.5 5t-78 -3t-78 -3q-33 0 -33 10z" />
<glyph unicode="O" d="M82 705q0 131 22 221q58 236 235.5 388t416.5 152q171 0 276 -36q213 -75 338 -263.5t125 -418.5q0 -128 -26 -243t-81 -214t-134 -170.5t-191 -112.5t-246 -41q-329 0 -532 204.5t-203 533.5zM233 782q0 -108 23.5 -215t73.5 -204t120 -171.5t170 -118.5t216 -44 q165 0 283 73.5t175.5 199t57.5 288.5q0 92 -15 185t-44.5 185t-79 172t-113 141t-151.5 96.5t-191 35.5q-132 0 -235 -50.5t-165 -138t-93.5 -197.5t-31.5 -237z" />
<glyph unicode="P" horiz-adv-x="1206" d="M166 2q0 3 3 5t7.5 3.5t8.5 2.5t9 2t7 1q28 5 43.5 13t29.5 28q33 45 33 238v967q0 117 -61 149q-6 3 -22.5 7t-28 7.5t-11.5 6.5q0 10 15 10q23 0 68 -4t67 -4q29 0 82.5 3.5t70.5 4.5q57 4 172 4q123 0 205 -31q116 -43 184 -136t68 -216q0 -71 -16 -137.5t-48.5 -125 t-78 -102t-109 -69t-137.5 -25.5q-25 0 -79 8.5t-54 20.5q0 6 6 6q16 0 48 -6t48 -6q80 0 148 50t98 126q25 64 25 166q0 301 -207 385q-69 28 -201 28h-29q-42 0 -55.5 -5t-19.5 -23q-17 -56 -17 -219v-668q0 -374 33 -412q38 -43 121 -43q20 0 20 -10t-45 -10q-29 0 -82 4 t-110 4q-27 0 -90.5 -3t-89.5 -3q-29 0 -29 8z" />
<glyph unicode="Q" d="M82 705q0 131 22 221q61 245 236 392.5t416 147.5q164 0 302 -54t234.5 -150.5t150.5 -235t54 -303.5q0 -132 -42 -271t-116 -239q-22 -33 -61 -72q-14 -14 -14 -20q0 -7 16 -15l164 -106q162 -107 384.5 -197t371.5 -90q23 0 67.5 6.5t65.5 6.5q10 0 10 -5 q0 -15 -83.5 -39.5t-121.5 -31.5q-61 -12 -125 -12q-248 0 -670 280l-159 107q-24 16 -35 16q-3 0 -8.5 -2t-12 -4.5t-8.5 -3.5q-87 -36 -151 -50t-152 -14q-333 0 -534 202.5t-201 535.5zM231 788q0 -90 17.5 -180t50 -175t84.5 -158t117.5 -128t152 -86.5t183.5 -31.5 q175 0 299 84q110 75 164.5 206t54.5 277q0 77 -10 154.5t-32.5 158t-55.5 152.5t-82.5 135.5t-109.5 109.5t-140 72.5t-172 26.5q-104 0 -190.5 -33t-147 -90.5t-102.5 -136t-61.5 -168.5t-19.5 -189z" />
<glyph unicode="R" horiz-adv-x="1509" d="M156 1430q0 12 28 12q32 0 93 -4t92 -4q44 0 131 7t131 7q70 0 133 -12.5t119 -40t97 -68t65 -101t24 -134.5q0 -109 -59 -217.5t-150 -174.5q-8 -12 -8 -20t14 -29l277 -372q24 -33 58 -71.5t79 -82.5t93.5 -73t84.5 -29q6 0 17.5 1t17.5 1q16 0 16 -13q0 -16 -43 -16 q-54 0 -85 1t-74 5.5t-71.5 14.5t-62 26.5t-61 43t-53.5 63.5l-215 305q-9 13 -32 50t-38.5 58.5t-43.5 41.5t-58 20h-205q-29 0 -29 -27v-276q0 -194 33 -254q16 -33 53 -45q9 -3 29 -5t33.5 -5t13.5 -9q0 -12 -33 -12q-29 0 -88 4t-88 4q-27 0 -83.5 -3t-84.5 -3 q-55 0 -55 10q0 8 15.5 11t36 5.5t28.5 8.5q59 43 59 172v1065q0 141 -127 153q-24 4 -24 11zM438 721q0 -15 7 -22t14 -8t22 -1h195q81 0 108 12q75 35 114.5 129t39.5 189q0 162 -103.5 256t-267.5 94h-61q-68 0 -68 -100v-549z" />
<glyph unicode="S" horiz-adv-x="1038" d="M123 190q0 91 16 91q7 0 12 -17.5t9.5 -43.5t9.5 -38q75 -153 307 -153q115 0 180 47q57 38 95.5 108.5t38.5 139.5q0 156 -207 284l-219 137q-100 62 -155.5 158.5t-55.5 212.5q0 90 44 173.5t119 125.5q91 51 240 51q72 0 151 -14t107 -14q20 0 31 5t14 5q6 0 6 -8 t-4 -25.5t-4 -25.5q0 -17 1 -49t1 -48q0 -98 -18 -98q-5 0 -9.5 23.5t-19.5 59t-41 58.5q-41 36 -113.5 56t-134.5 20q-112 0 -190 -63t-78 -172q0 -176 211 -308l211 -133q110 -69 163.5 -145t53.5 -193q0 -103 -47.5 -191t-132.5 -153q-62 -47 -124.5 -66.5t-141.5 -19.5 q-70 0 -151.5 13t-139.5 36q-1 1 -6.5 3t-7 2.5t-5.5 3t-5 4.5t-3 5t-2 7q-6 49 -6 149z" />
<glyph unicode="T" horiz-adv-x="1234" d="M41 1298q0 13 15.5 58.5t17.5 54.5l2 15q2 15 5.5 24.5t8.5 9.5q10 0 29 -6.5t24 -7.5q66 -12 172 -12h654q37 0 107.5 4t107.5 4q10 0 10 -8q0 -24 -12.5 -71.5t-12.5 -74.5q0 -18 -6 -18q-3 0 -5 3.5t-5 10t-6 10.5q-11 14 -38 24.5t-50 14.5q-51 10 -170 10h-166 q-21 0 -27 -19.5t-6 -94.5v-873q0 -248 31 -295q14 -20 35 -31t37.5 -13t54.5 -5q14 0 14 -10t-55 -10q-25 0 -77 4t-97 4q-36 0 -107.5 -4t-107.5 -4q-10 0 -10 10q0 4 9 7t22 5t14 2q39 5 59.5 17t30.5 41q16 45 16 293v923q0 26 -8.5 39.5t-32.5 13.5h-364 q-36 0 -58.5 -10t-28 -21.5t-8.5 -21.5t-8 -10q-10 0 -10 18z" />
<glyph unicode="U" horiz-adv-x="1579" d="M82 1427q0 15 27 15q29 0 90 -4t90 -4q34 0 102 5t101 5q16 0 16 -8q0 -5 -14 -11t-32 -11t-22 -7q-42 -20 -59 -51t-22 -88t-5 -195v-528q0 -241 121.5 -378.5t327.5 -137.5q217 0 350 133t133 383v336q0 36 -6 172.5t-12 210.5q-5 76 -22.5 105t-80.5 40 q-8 1 -19.5 2.5t-17.5 2.5t-12.5 2.5t-9 3.5t-2.5 5q0 17 35 17q31 0 94 -4t94 -4q27 0 84 2t84 2q23 0 23 -13q0 -10 -25 -10q-27 0 -47 -9t-33 -28t-21 -40.5t-12 -55t-5 -62t-1 -71.5v-553q0 -293 -150 -461t-440 -168q-278 0 -423.5 140t-145.5 405v721q0 125 -20 147 q-13 15 -42 24t-50 13.5t-21 9.5z" />
<glyph unicode="V" horiz-adv-x="1429" d="M-41 1432q0 10 16 10q35 0 100.5 -4t100.5 -4q28 0 81 5t77 5q10 0 10 -8q0 -3 -7.5 -6.5t-16 -7.5t-9.5 -5q-24 -18 -24 -49q0 -25 28 -115t50 -141l311 -741q3 -6 7 -18q38 -90 46 -96l4 -1q13 0 60 113l370 876q25 65 25 109q0 34 -25 53q-3 2 -13.5 5t-19 7t-8.5 8 q0 11 21 11q23 0 71 -2t72 -2t75 5t75 5q34 0 34 -10q0 -9 -18 -9q-39 -3 -72 -22q-52 -34 -120 -189l-500 -1159q-24 -57 -33.5 -74.5t-15.5 -17.5q-3 0 -6 3t-7 11.5t-7.5 17.5l-10.5 27t-14 33l-498 1182q-38 93 -53 117q-21 32 -62.5 51.5t-83.5 19.5q-10 0 -10 7z" />
<glyph unicode="W" horiz-adv-x="2168" d="M-41 1432q0 12 16 12q35 0 104.5 -5t104.5 -5q34 0 100.5 5t100.5 5q10 0 10 -8q0 -5 -26.5 -13t-53 -24.5t-26.5 -42.5q0 -38 49 -182l307 -830q22 -61 33 -61q10 0 33 69l340 946q4 12 9.5 27t9 25t7.5 21.5t7 18.5t6.5 15t6 13t5.5 9t6 5.5t6 1.5q4 0 7.5 -2.5t7 -9 t7 -13.5t8 -20t8.5 -24.5t11 -31t13 -35.5l335 -927q17 -48 26 -66t17 -18q7 0 14.5 15.5t26.5 66.5l318 866q18 56 18 108q0 28 -24 45t-48 25.5t-24 13.5q0 11 20 11q29 0 88 -2t87 -2q24 0 72 5t73 5q35 0 35 -12q0 -7 -23 -7q-40 -3 -67 -22q-68 -48 -121 -193 l-445 -1214q-7 -29 -20 -29q-11 0 -18 21l-381 1036q-2 6 -7 18q-30 80 -41 82q-3 0 -7 -5.5t-9 -17.5t-8.5 -22t-9.5 -29t-9 -28l-372 -1026q-2 -9 -8 -19t-13 -10q-5 0 -9.5 5.5t-8.5 16.5l-4 11l-465 1233q-4 11 -12.5 35t-12 32.5t-11 26.5t-13 25t-15 19.5t-19 18.5 t-23 13t-29.5 12t-34.5 7t-27 3.5t-8.5 6.5z" />
<glyph unicode="X" horiz-adv-x="1327" d="M27 -4q0 10 45 10q12 0 23 3t17 6t19 11t19 11q51 30 100 113q221 381 274 475q56 99 56 100q0 6 -60 117l-153 288q-3 5 -8 14q-19 35 -28.5 53t-27.5 48.5t-29.5 47t-28 39.5t-30.5 36t-31 25.5t-34 19.5q-20 8 -72 8q-10 0 -10 6q0 15 24 15q38 0 112.5 -4t112.5 -4 q72 0 109 4q60 6 61 6q15 0 15 -10q0 -4 -4 -4q-7 -3 -26 -8t-28.5 -9t-18.5 -14.5t-9 -26.5q0 -50 28 -104l205 -387q11 -21 15 -21q3 0 6 3.5t5 8t3 5.5l205 372q13 24 29 65.5t16 59.5q0 37 -35 49q-1 0 -13.5 2t-21 4.5t-8.5 6.5q0 8 22 8q24 0 75 -5t75 -5q28 0 87 6 t87 6q23 0 23 -10q0 -7 -16 -10.5t-39 -8.5t-34 -12q-35 -24 -71.5 -65t-59.5 -80l-284 -486q-2 -2 -2 -10q0 -10 53 -105l256 -473q47 -86 104 -130t146 -44q14 0 14 -8q0 -14 -55 -14q-38 0 -115 5t-115 5q-25 0 -75 -2t-74 -2q-18 0 -18 8q0 2 35.5 16.5t35.5 36.5 q0 53 -47 150l-209 395q-13 19 -18 19q-7 0 -21 -21l-231 -426q-12 -23 -27.5 -63.5t-15.5 -57.5q0 -19 8.5 -28t30.5 -15q22 -7 22 -10q0 -8 -20 -8q-21 0 -64 4t-65 4q-32 0 -90 -7t-90 -7q-41 0 -41 10z" />
<glyph unicode="Y" horiz-adv-x="1318" d="M-41 1432q0 14 51 14q27 0 83 -6t85 -6q27 0 79 7t77 7q43 0 43 -8q0 -4 -16.5 -8.5t-33 -13.5t-16.5 -25q0 -48 43 -115l287 -432q17 -24 24 -34t16.5 -22t15 -16t10.5 -4q14 0 45 51l229 361q43 68 64.5 125t21.5 84q0 20 -15.5 31t-15.5 12q0 8 17 8q15 0 44 -4t44 -4 q26 0 80 7t82 7q57 0 57 -16q0 -7 -19 -7q-31 0 -65 -12q-30 -11 -84.5 -74t-118.5 -165l-272 -431q-2 -3 -11 -15.5t-12.5 -17t-10.5 -15t-10 -17t-7 -16.5t-5.5 -19t-1.5 -18v-424q0 -113 43 -150q24 -20 56 -29t50.5 -11.5t18.5 -8.5q0 -10 -41 -10q-30 0 -91 4t-91 4 q-28 0 -86 -2t-86 -2q-43 0 -43 8q0 5 8 8t22.5 5t18.5 3q52 16 71 65t19 124v407q0 9 -1.5 17t-3.5 13.5t-6.5 13.5t-7 11.5t-9 13t-9.5 13.5l-407 613q-26 37 -44.5 55.5t-49.5 32.5q-16 7 -88 22q-6 0 -16.5 3t-10.5 8z" />
<glyph unicode="Z" horiz-adv-x="1452" d="M61 0q0 9 10.5 22t34.5 37.5t39 42.5l910 1207q12 15 12 24q0 7 -7.5 8.5t-29.5 1.5h-295q-264 0 -405 -6q-109 -4 -166 -63q-17 -18 -21 -36.5t-4 -51.5q0 -19 -8 -19q-18 0 -18 93q0 22 10 73.5t10 77.5q0 10 1 14.5t7 8.5t19 4q63 0 187.5 -2t187.5 -2h507q42 0 123 3 t123 3q25 0 25 -13q0 -4 -12.5 -18.5t-29.5 -31.5t-20 -21q-112 -132 -250 -320l-444 -596q-4 -6 -33 -45.5t-60 -82t-63.5 -88.5t-53.5 -78t-21 -37q0 -13 17.5 -16t84.5 -3h283q346 0 506 23q44 5 67 16.5t45 44.5q6 9 13 21t11.5 20.5t9.5 16.5t9.5 12t7.5 4q11 0 11 -15 q0 -8 -1.5 -16t-6.5 -20t-8.5 -19t-13 -25.5t-13.5 -27.5q-29 -65 -45 -113q-9 -26 -27 -26q-3 0 -10.5 2t-38.5 4t-90 2q-65 0 -166 3t-166 3h-569q-15 0 -76.5 -3t-77.5 -3q-21 0 -21 6z" />
<glyph unicode="[" horiz-adv-x="509" d="M102 -78q0 2 2 37t2 76q7 579 7 772l-7 573q0 40 -2 85t-2 46q0 10 11 11t36.5 -2.5t40.5 -3.5q16 0 66.5 4.5t80.5 3.5t30 -11q0 -2 -0.5 -3t-2 -2t-3.5 -2t-5 -1.5l-6 -1t-7.5 -1t-8.5 -1t-10 -1t-11 -1.5q-45 -6 -60 -47.5t-15 -167.5v-1053q0 -130 7 -191t21.5 -81.5 t46.5 -24.5q6 -1 16 -2q37 -5 38 -12q0 -9 -30.5 -9.5t-80.5 3.5t-66 4q-15 0 -40.5 -3.5t-36.5 -2.5t-11 10z" />
<glyph unicode="\" horiz-adv-x="825" d="M41 1552q0 8 10 11l45 16q12 4 15 4q8 0 14 -18l655 -1657q4 -12 4 -19q0 -13 -10 -16l-33 -14l-16 -4q-10 0 -18 18l-662 1665q-4 8 -4 14z" />
<glyph unicode="]" horiz-adv-x="509" d="M143 -80q0 2 0.5 3t2 2t3.5 2t5 1.5l6 1t7.5 1t8.5 1t10 1t11 1.5q32 4 46.5 24.5t21.5 81.5t7 191v1053q0 126 -15 167.5t-60 47.5q-49 6 -52 10q-2 2 -2 4q0 10 30 11t80 -3.5t66 -4.5q15 0 41 3.5t37 2.5t11 -11q0 -1 -2.5 -46t-2.5 -85q-6 -348 -6 -573l6 -772 q0 -41 2.5 -76t2.5 -37q0 -9 -11.5 -10t-37 2.5t-40.5 3.5q-16 0 -66 -4t-80 -3.5t-30 9.5z" />
<glyph unicode="^" horiz-adv-x="1064" d="M102 621l381 815h99l381 -815h-103l-328 710l-327 -710h-103z" />
<glyph unicode="_" horiz-adv-x="956" d="M8 -324h940v-86h-940v86z" />
<glyph unicode="`" horiz-adv-x="450" d="M0 1583q0 9 57.5 66t67.5 57q18 0 150 -63t161 -82q15 -10 15 -17q0 -10 -11 -10q-5 0 -15.5 4t-12.5 4q-46 14 -127.5 28t-139.5 21.5t-67 7.5q-10 0 -34.5 -13t-33.5 -13q-10 0 -10 10z" />
<glyph unicode="a" horiz-adv-x="1214" d="M0 8q0 6 23 10q30 4 58 39.5t48 81.5l416 1008q5 12 12.5 31t11.5 29t10 24t9.5 21t7.5 14.5t7.5 10.5t6.5 3q20 0 29 -35q18 -39 46 -113.5t36 -95.5l342 -878q34 -83 56 -109q21 -24 48 -31q4 -1 18 -3.5t21.5 -4.5t7.5 -6q0 -7 -9.5 -8.5t-43.5 -1.5q-24 0 -63 3 t-74 3q-43 0 -77.5 -3t-45.5 -3q-59 0 -59 8q0 11 45 16q51 6 51 60q0 36 -23 94l-84 217q-10 27 -26.5 40t-52.5 13h-357q-37 0 -47.5 -6.5t-23.5 -42.5l-76 -196q-29 -83 -29 -121q0 -51 35 -56q41 -6 41 -14q0 -12 -35 -12q-25 0 -58.5 3t-56.5 3q-13 0 -45.5 -3 t-60.5 -3q-39 0 -39 14zM377 518q0 -8 16 -8h346q39 0 39 14q0 23 -80 224l-69 174q-40 100 -45 100q-8 0 -33 -66l-105 -256q-69 -169 -69 -182z" />
<glyph unicode="b" horiz-adv-x="1114" d="M160 1212q0 15 55 15q21 0 68 -4t75 -4q37 0 91 3t86 3q135 0 235 -79.5t100 -205.5q0 -111 -53 -188q-21 -31 -53 -56.5t-53 -37.5t-21 -15q0 -6 16.5 -10t56 -18.5t79.5 -41.5q162 -106 162 -276q0 -73 -35 -133t-92.5 -97.5t-129 -58t-147.5 -20.5q-57 0 -131 6 t-115 6q-19 0 -61.5 -3t-83.5 -3q-45 0 -45 10q0 9 41 14q39 5 59 43q25 40 25 289v725q0 109 -76 121q-3 0 -10.5 0.5t-14 1.5t-13.5 2t-11 4t-4 8zM416 258q0 -144 20 -176q39 -53 152 -53q124 0 200 57.5t76 177.5q0 85 -35.5 151t-95 105t-131 58.5t-149.5 19.5 q-20 0 -28.5 -5.5t-8.5 -25.5v-309zM416 713q0 -33 10 -37q38 -17 141 -17h41q68 0 105 63.5t37 154.5q0 114 -82 201t-197 87q-37 0 -46 -9t-9 -50v-393z" />
<glyph unicode="c" horiz-adv-x="1320" d="M82 621q0 126 44 239.5t123.5 199.5t198 136.5t259.5 50.5q177 0 329 -37q98 -24 109 -24q3 0 8 4t10 4q13 0 13 -20q0 -8 -3.5 -31t-3.5 -41q0 -15 3.5 -48.5t3.5 -52.5q0 -28 -15 -28q-8 0 -13.5 7.5t-11.5 22.5t-10 21q-23 37 -43 57q-126 109 -415 109 q-111 0 -197.5 -43t-138.5 -116.5t-78.5 -165.5t-26.5 -197q0 -125 40.5 -240.5t114 -204.5t184.5 -142.5t243 -53.5q143 0 262 77q52 37 68 76q1 3 3.5 9.5t4.5 11t4.5 9.5t5.5 8t6 3q15 0 15 -22q0 -31 -25 -140q-1 -2 -2 -6t-1 -5.5t-1 -4t-1.5 -3.5l-1.5 -3t-2.5 -2.5 t-3 -2t-4.5 -2.5t-5.5 -2t-6.5 -3q-146 -54 -366 -54q-318 0 -497 171.5t-179 478.5z" />
<glyph unicode="d" horiz-adv-x="1462" d="M158 1212q0 15 51 15q20 0 65.5 -4t73.5 -4q58 0 184.5 6t200.5 6q89 0 189 -18t165 -54q140 -75 216.5 -219.5t76.5 -304.5q0 -297 -173 -473t-484 -176q-86 0 -196 7t-173 7q-19 0 -71 -3t-93 -3q-30 0 -30 12q0 4 8.5 6.5t20.5 4t14 1.5q45 7 61 37q25 45 25 213v799 q0 63 -22.5 96.5t-84.5 36.5q-24 0 -24 12zM416 383q0 -266 41 -287q109 -59 293 -59q258 0 378.5 144t120.5 405q0 156 -80 304.5t-215 221.5q-59 32 -143 48t-160 16h-157q-45 0 -61.5 -11.5t-16.5 -60.5v-721z" />
<glyph unicode="e" horiz-adv-x="1011" d="M145 6q0 6 11 12t26 7q69 4 84 43q23 59 23 428v587q0 58 -23 84.5t-84 36.5q-24 4 -24 13q0 12 28 12q17 0 70 -5t86 -5q71 0 211 4t211 4q14 0 44 2t48 2q12 0 12 -14q0 -3 -1 -11t-1 -12l2 -59q0 -8 1 -20t1 -19q0 -17 -10 -17q-4 0 -8 3t-6.5 6.5t-6 10t-5.5 9.5 q-15 22 -46.5 33.5t-56.5 13.5t-65 2h-215q-22 0 -28.5 -4.5t-6.5 -26.5v-409v-16t2.5 -9.5t7.5 -6.5t14 -1h205q110 0 123 59q6 29 18 29q17 0 17 -35q0 -12 -3 -37.5t-3 -40.5q0 -19 2 -58t1 -64q0 -21 -14 -21q-3 0 -5.5 1.5t-4 5t-2 6.5t-1.5 7.5t-1 6.5q-3 22 -18 37 q-19 24 -86 24h-230q-14 0 -18 -6.5t-4 -24.5v-403q0 -46 24 -68q36 -32 170 -32q200 0 240 63q2 4 6 10.5t5.5 9t5 5t7.5 2.5q15 0 15 -15q0 -14 -8 -30l-29 -70q-13 -34 -18 -39q-12 -12 -50 -12q-119 0 -226 3t-173 3q-23 0 -86.5 -3t-112.5 -3q-41 0 -41 12z" />
<glyph unicode="f" horiz-adv-x="999" d="M154 1217q0 10 28 10q30 0 96.5 -4t106.5 -4q252 0 381 6q12 0 38 4t42 4q10 0 10 -14q0 -3 -1 -9.5t-1 -9.5q0 -31 5 -64t5 -55q0 -18 -14 -18q-4 0 -7 3.5t-5 9.5l-2 7q-11 46 -57 59t-138 13h-190q-22 0 -28.5 -7t-6.5 -30v-428q0 -9 5 -14t10 -5.5t15 -0.5h129 q44 0 94.5 8t69.5 27q5 5 11 24t13.5 35t16.5 16q5 0 9 -4t4 -10q0 -19 -5.5 -59.5t-5.5 -63.5q0 -28 4.5 -84.5t4.5 -83.5q0 -26 -15 -26q-4 0 -6.5 0.5t-4.5 2.5t-3 3.5t-1.5 5.5t-1 6.5t-1 8.5t-0.5 9q-5 54 -25 72q-21 21 -45.5 27t-101.5 6h-148q-12 0 -17 -4.5 t-5 -18.5v-313q0 -164 28 -205q19 -26 64 -31q31 0 31 -12t-29 -12q-17 0 -70.5 3t-89.5 3q-25 0 -74.5 -4t-82.5 -4q-29 0 -29 10t24 14q46 6 70 50q12 21 21.5 95t9.5 171v735q0 59 -19 93t-71 42q-4 1 -12 2t-13 2t-10 2.5t-7.5 3.5t-2.5 5z" />
<glyph unicode="g" horiz-adv-x="1406" d="M82 633q0 113 45 225t129.5 204t192.5 138q55 24 138.5 35.5t155.5 11.5q80 0 150 -8t166 -35q77 -22 94 -22q26 0 39 9t20 9q13 0 13 -16q0 -22 -7.5 -60.5t-7.5 -64.5q0 -66 -3.5 -92.5t-16.5 -26.5q-7 0 -12 4.5t-7 9.5t-2 11q0 25 -10.5 45t-32.5 43 q-59 66 -172 100.5t-219 34.5q-83 0 -142.5 -9.5t-123.5 -39.5q-64 -29 -112 -77.5t-76.5 -108t-42 -124t-13.5 -133.5q0 -163 55.5 -306.5t172.5 -239.5q71 -59 167 -91t185 -32q141 0 209 53q35 27 45 68.5t10 111.5v197q0 28 -8 54t-21 38q-26 23 -63 31q-3 1 -13.5 2.5 t-14 4t-3.5 7.5q0 12 35 12q24 0 78 -5t92 -5q25 0 65.5 4t63.5 4q25 0 25 -10q0 -6 -16 -12t-35.5 -11.5t-24.5 -9.5q-33 -33 -33 -180v-311q0 -13 -18 -25q-44 -28 -162.5 -51t-212.5 -23q-721 0 -721 662z" />
<glyph unicode="h" horiz-adv-x="1650" d="M176 6q0 6 35 14q54 13 68 46q12 29 12 139v854q0 52 -14.5 87t-53.5 54q-6 3 -18.5 4.5t-19.5 4.5t-7 10q0 8 35 8q37 0 74 -4t67 -4q42 0 84 5t62 5q32 0 32 -15q0 -4 -4 -6t-14.5 -3t-17.5 -3q-48 -14 -63 -57t-15 -121v-317q0 -22 3 -27.5t21 -5.5h764q18 0 22.5 6 t4.5 27v325q0 155 -70 164q-41 7 -41 18t49 11q37 0 69.5 -3t55.5 -3q36 0 82.5 5t69.5 5q31 0 31 -10q0 -11 -35 -17q-22 -4 -38 -16.5t-25 -28.5t-14 -40.5t-6 -45t-1 -49.5v-528q0 -357 26 -420q12 -34 44 -47q7 -3 21.5 -5t24 -5t9.5 -9q0 -14 -58 -14q-29 0 -65 3 t-57 3q-41 0 -85 -3t-71 -3q-21 0 -21 10t27 14q29 4 44 16.5t24 37.5q10 33 10 176v315q0 21 -5.5 27t-23.5 6h-760q-17 0 -21.5 -6t-4.5 -27v-370q0 -120 41 -158q21 -16 47 -19q1 0 12.5 -1.5t18 -4.5t6.5 -8q0 -10 -23 -10q-18 0 -64.5 4t-101.5 4q-31 0 -78.5 -3 t-76.5 -3q-23 0 -23 12z" />
<glyph unicode="i" horiz-adv-x="704" d="M168 1217q0 12 33 12q9 0 62 -5t91 -5q42 0 81 6t61 6q39 0 39 -12q0 -9 -37 -17q-40 -13 -41 -14q-39 -24 -39 -133v-809q0 -63 2.5 -97.5t17 -71t43.5 -52.5q4 -3 25 -5.5t39 -6.5t18 -9q0 -12 -24 -12q-26 0 -85.5 4t-93.5 4q-19 0 -64.5 -3t-86.5 -3q-33 0 -33 12 q0 2 1.5 4t5.5 3.5t7 2.5t8.5 2t8.5 2q45 15 61 29q23 21 23 166v844q0 70 -15.5 101.5t-68.5 39.5q-39 8 -39 17z" />
<glyph unicode="j" horiz-adv-x="636" d="M88 -297q0 16 27 16q34 0 60 14t43 35t29.5 60t19 74t9.5 91.5t4 99t1 110.5v811q0 46 -2.5 71.5t-12.5 53t-32 42t-58 21.5q-39 6 -39 12q0 15 51 15q24 0 74 -5t80 -5q41 0 88 5t72 5q22 0 22 -10q0 -6 -17 -12t-37 -12t-24 -9q-26 -19 -32 -79t-6 -249v-811 q0 -70 -28 -139t-69.5 -117.5t-89 -79t-86.5 -30.5q-17 0 -24 0.5t-15 5.5t-8 16z" />
<glyph unicode="k" horiz-adv-x="1347" d="M168 8q0 7 25 10q53 9 73 37q25 31 25 240v776q0 103 -51 119q-15 5 -33 8.5t-25.5 6t-7.5 7.5q0 15 43 15q21 0 64.5 -4t72.5 -4q37 0 82.5 3t69.5 3q31 0 31 -8t-13.5 -11t-30.5 -4.5t-36 -16.5t-27 -44q-12 -41 -12 -152v-311q0 -29 8 -29q5 0 20 15l414 362 q111 98 111 133q0 23 -11 31t-30 10q-2 0 -6 1q-23 2 -23 11q0 13 33 13q24 0 73 -3t72 -3q85 0 135 4q6 0 17.5 1t17.5 1q25 0 25 -6q0 -8 -43 -19l-23 -6q-32 -13 -87.5 -54.5t-98.5 -78.5l-447 -391q-16 -11 -16 -21t21 -26l485 -445q43 -41 105.5 -89.5t95.5 -59.5 q29 -11 53 -11q41 0 41 -14t-57 -14q-23 0 -58 2t-63 2q-14 0 -49 -1t-46 -1q-16 0 -30 14l-604 561q-23 23 -29 23t-6 -17v-403q0 -38 10.5 -77t34.5 -56q23 -18 67 -21q7 0 18 -3.5t11 -8.5q0 -10 -31 -10q-22 0 -74.5 3t-97.5 3q-23 0 -73.5 -2t-92.5 -2q-22 0 -22 12z " />
<glyph unicode="l" horiz-adv-x="948" d="M180 6q0 5 27 10q43 5 59 37q27 55 27 221v787q0 79 -27 115q-14 18 -65 30q-21 5 -21 11q0 8 29 8q17 0 64.5 -3t84.5 -3q43 0 81.5 3t64.5 3q20 0 20 -11q0 -8 -28 -14q-37 -8 -54 -31q-22 -24 -22 -108v-731q0 -66 6 -137q4 -89 55 -103q63 -16 197 -16q67 0 96.5 4 t44.5 13.5t37 35.5q30 37 39 37q12 0 12 -10q0 -9 -16 -52q-19 -51 -25 -92q-2 -9 -5 -11.5t-15 -2.5q-160 0 -238 2q-30 0 -120 1t-119 1q-19 0 -68 -2t-88 -2q-33 0 -33 10z" />
<glyph unicode="m" horiz-adv-x="1697" d="M92 0q0 5 8 8t19 4.5t25 7.5t22 15q26 27 39 82t26 172l105 928q5 30 20 30q7 0 16.5 -8.5t14.5 -19.5l451 -951q12 -24 18 -24q9 0 25 32l446 938q5 12 9.5 19t9.5 10.5t12 3.5q10 0 13 -6.5t5 -21.5q4 -52 14.5 -158t14.5 -158q0 -3 1 -10.5t1 -11.5q22 -233 53 -508.5 t47 -304.5q15 -29 43 -45q5 -3 20 -6.5t25.5 -7t10.5 -7.5q0 -7 -11.5 -8.5t-44.5 -1.5q-18 0 -58.5 4t-74.5 4q-16 0 -78 -3t-94 -3q-26 0 -26 10q0 7 11.5 10t30 6t29.5 9q51 27 51 149q0 31 -8 138.5t-23.5 292.5t-21.5 263q-3 31 -10 31q-2 0 -3.5 -1t-3.5 -4l-4 -6 t-4.5 -7.5l-5 -9t-5 -10.5t-5 -10.5t-5.5 -11.5t-5 -12l-352 -749q-20 -40 -32 -57t-22 -17t-19.5 15.5t-28.5 57.5q-3 7 -5 11q-255 575 -372 782q-13 19 -17 19q-6 0 -6 -19l-45 -583q-8 -94 -8 -146q0 -93 39 -114q25 -15 49 -19q3 0 9.5 -0.5t11 -1t10 -2t8 -4t2.5 -6.5 q0 -8 -33 -8q-21 0 -67.5 5t-86.5 5q-30 0 -75 -4t-72 -4q-33 0 -33 8z" />
<glyph unicode="n" horiz-adv-x="1607" d="M143 6q0 3 16 7.5t34.5 8.5t21.5 7q20 18 30.5 79.5t10.5 106.5v778q0 29 -0.5 72t-1 75t-0.5 36q0 61 22 61q20 0 62 -47l907 -954q13 -13 19 -13q8 0 8 33l-10 696q0 47 -8 125.5t-21 96.5q-12 17 -33.5 25.5t-36 12t-14.5 9.5q0 10 22 11q30 0 71 -6.5t73 -6.5 q12 0 52.5 4t68.5 4t28 -8q0 -5 -11.5 -9t-28.5 -8.5t-25 -9.5q-19 -11 -26 -91t-7 -138v-951q0 -47 -18 -47q-20 0 -50 35l-909 952q-23 23 -27 23q-8 0 -8 -31v-735q0 -44 13 -98t39 -76q14 -9 43 -19q2 -1 7.5 -1.5t10.5 -1.5t9.5 -3.5t4.5 -5.5q0 -12 -41 -12 q-18 0 -63 4t-70 4q-18 0 -58 -3t-73 -3t-33 12z" />
<glyph unicode="o" horiz-adv-x="1413" d="M82 598q0 112 20 186q54 197 212.5 330t363.5 133q148 0 246 -33q187 -65 297 -225t110 -354q0 -109 -23 -207t-71.5 -182t-118.5 -145t-169 -95.5t-218 -34.5q-291 0 -470 173.5t-179 453.5zM225 666q0 -92 20.5 -182.5t64 -172.5t104.5 -145t147.5 -100t186.5 -37 q213 0 329.5 131.5t116.5 341.5q0 78 -12.5 156.5t-38 156.5t-68 145t-97.5 119t-132 81.5t-166 29.5q-114 0 -203 -42.5t-143 -116.5t-81.5 -166.5t-27.5 -198.5z" />
<glyph unicode="p" horiz-adv-x="1103" d="M166 4q0 5 6.5 8t18 4.5t12.5 1.5q38 7 61 35q27 35 27 199v819q0 100 -43 121q-15 7 -32.5 10t-25.5 4.5t-8 7.5q0 11 19 11q14 0 70 -3t85 -3q28 0 88.5 5t128.5 5q139 0 213 -27q100 -38 164 -119t64 -182q0 -102 -38.5 -189t-120 -143.5t-191.5 -56.5 q-24 0 -72.5 7.5t-48.5 19.5q0 6 8 6q13 0 41 -5t45 -5q67 0 125.5 42t85.5 105q20 48 20 139q0 69 -16 130t-57.5 115.5t-104.5 80.5q-59 24 -172 24h-24q-54 0 -62 -22q-14 -51 -14 -186v-566q0 -313 26 -346q34 -37 103 -37q22 0 22 -10t-43 -10q-25 0 -80 3t-94 3 q-19 0 -65 -3t-88 -3q-33 0 -33 10z" />
<glyph unicode="q" horiz-adv-x="1413" d="M82 598q0 112 20 186q29 98 84 182.5t128.5 146.5t168.5 98t197 36q145 0 267 -46t206.5 -128.5t132 -200.5t47.5 -258q0 -139 -52.5 -281.5t-143.5 -213.5q-7 -7 -7 -10q0 -8 23 -21l133 -84q144 -90 337.5 -167t320.5 -77q11 0 53.5 5.5t62.5 5.5q17 0 17 -7 q0 -14 -109 -43q-102 -26 -186 -26q-111 0 -272.5 66t-319.5 169l-137 90q-22 13 -29 13q-2 0 -18 -4q-77 -32 -135.5 -45t-137.5 -13q-296 0 -473.5 172t-177.5 455zM225 670q0 -92 21 -183t64.5 -173.5t104 -146t147.5 -101t188 -37.5q151 0 258 71q95 63 142.5 172.5 t47.5 233.5q0 65 -8.5 131t-28.5 133.5t-48.5 128.5t-71.5 114.5t-95 92.5t-121.5 61.5t-148.5 22.5q-90 0 -165 -28t-127.5 -76.5t-88.5 -115t-53 -142t-17 -158.5z" />
<glyph unicode="r" horiz-adv-x="1355" d="M156 1212q0 13 30 13q19 0 70 -3t92 -3q42 0 116 6t116 6q79 0 147 -17.5t123 -53t87 -95.5t32 -139q0 -88 -53 -179.5t-132 -152.5q-8 -8 -8 -14q0 -10 12 -25l244 -313q117 -147 211 -201q35 -18 55 -18q4 0 17 1t20 1q21 0 21 -13q0 -16 -45 -16q-57 0 -89.5 1.5 t-76.5 8t-73.5 20t-62 39t-59.5 62.5l-219 299q-3 5 -16 22.5t-18 24.5t-17 20.5t-20 19t-20 10.5t-24 5h-180q-20 0 -20 -20v-236q0 -40 0.5 -56t2 -50.5t6 -51.5t12 -39.5t20 -34.5t30.5 -17q6 -2 25.5 -3.5t33 -4.5t13.5 -9q0 -12 -35 -12q-42 0 -94 3t-78 3 q-17 0 -54 -3t-77 -3q-55 0 -55 12q0 7 15 10.5t33.5 6t23.5 6.5q51 34 51 143v901q0 120 -111 129q-22 4 -22 10zM416 612q0 -12 6 -17.5t11 -6t16 -0.5h169q70 0 93 12q66 32 98.5 107.5t32.5 156.5q0 136 -90 216.5t-228 80.5h-55q-53 0 -53 -84v-465z" />
<glyph unicode="s" horiz-adv-x="956" d="M123 164q0 78 20 78q12 0 17.5 -16t8.5 -38.5t7 -29.5q63 -129 264 -129q95 0 152 39q117 80 117 206q0 77 -50 134t-131 106l-190 117q-86 53 -137 137t-51 178q0 76 40.5 149t106.5 107q39 21 100.5 33t110.5 12q68 0 137 -12t90 -12q12 0 23 4t18 4q10 0 10 -8l-3 -18 q-3 -18 -3 -52q0 -7 1 -28.5t1 -28.5q0 -84 -22 -84q-11 0 -17 24q-18 69 -49 94q-36 30 -99 48t-114 18q-102 0 -165.5 -53t-63.5 -146q0 -146 184 -258l182 -112q100 -62 147.5 -125.5t47.5 -163.5q0 -173 -162 -293q-103 -74 -235 -74q-152 0 -262 45q-25 8 -27 21 q-4 41 -4 127z" />
<glyph unicode="t" horiz-adv-x="1103" d="M41 1102q0 15 15.5 50.5t15.5 53.5q0 2 0.5 10t1.5 12.5t5 8.5t11 4q6 0 49 -12q36 -10 150 -10h571q56 0 107 3t82 3q14 0 14 -13q0 -12 -10.5 -53t-10.5 -65q0 -21 -10 -21q-6 0 -9.5 7t-13 18.5t-28.5 19.5q-52 21 -137 21h-199q-15 0 -18.5 -7.5t-3.5 -37.5v-791 q0 -209 26 -248q16 -24 37.5 -30.5t67.5 -10.5q18 0 18 -10t-53 -10q-22 0 -72 3t-82 3q-21 0 -74.5 -3t-99.5 -3q-29 0 -29 10q0 3 2 5t6.5 3t8 1.5t9.5 1.5t9 1q68 8 84 50q15 40 15 245v783q0 27 -5.5 36t-23.5 9h-322q-66 0 -77 -43q-4 -15 -15 -15q-12 0 -12 21z" />
<glyph unicode="u" horiz-adv-x="1449" d="M82 1210q0 15 31 15q18 0 65.5 -3t85.5 -3q31 0 84 4t88 4q31 0 31 -10q0 -5 -7.5 -8.5t-21 -6.5t-20.5 -6q-33 -13 -49.5 -28.5t-26.5 -53.5t-10 -106v-545q0 -199 113.5 -316.5t291.5 -117.5q189 0 311.5 113t122.5 321v479q0 129 -20.5 185.5t-79.5 66.5 q-5 1 -21.5 2.5t-26 4.5t-9.5 9q0 15 37 15q19 0 70.5 -3t92.5 -3q31 0 76 2t72 2t27 -13q0 -12 -29 -12q-32 0 -53 -16.5t-30 -50.5t-12 -68t-3 -88v-469q0 -259 -140.5 -397t-400.5 -138q-245 0 -384.5 116.5t-139.5 346.5v613q0 105 -15 122q-16 16 -65 27q-4 1 -10.5 2 t-10 2t-7.5 2t-5.5 3t-1.5 5z" />
<glyph unicode="v" horiz-adv-x="1296" d="M-20 1214q0 11 20 11q19 0 74.5 -3t99.5 -3q20 0 66 4t73 4q17 0 17 -8q0 -2 -3.5 -4t-12.5 -6t-17 -9q-18 -12 -18 -39q0 -21 23.5 -96.5t43.5 -120.5l287 -661q26 -62 31 -62t45 92l327 744q21 47 21 92q0 39 -29 47q-29 7 -29 14q0 13 25 13q15 0 54 -2t69 -2 q19 0 63 4t70 4q37 0 37 -10q0 -6 -10 -7t-31 -5.5t-41 -16.5q-21 -12 -43.5 -45t-32.5 -53t-29 -60l-438 -981q-34 -76 -47 -76q-15 0 -35 47l-448 1029q-31 70 -47 98q-18 28 -52 44.5t-67 16.5q-16 0 -16 6z" />
<glyph unicode="w" horiz-adv-x="1945" d="M-20 1214q0 13 30 12q21 0 78.5 -3.5t95.5 -3.5q26 0 83 4t91 3q17 0 17 -7q0 -8 -29 -15q-19 -6 -30 -10.5t-23 -16t-12 -26.5q0 -19 5 -42.5t8.5 -34.5t16 -44t13.5 -35l270 -702q16 -45 20 -45q6 0 19 37l315 852q2 6 6 16q8 20 11.5 29t9 19.5t11 14t13.5 3.5 t14.5 -8t12 -20.5t14.5 -37.5l312 -838q7 -19 11 -28.5t8 -18.5t7 -12.5t6 -3.5q5 0 10 10.5t17 40.5q3 6 4 10l279 736q6 15 11 44t5 48q0 24 -21.5 37.5t-43 19.5t-21.5 12q0 8 5.5 10.5t19.5 2.5q17 0 61.5 -2t81.5 -2q26 0 69.5 4t67.5 3q37 0 37 -12q0 -6 -27 -6 q-31 -3 -57.5 -21t-46 -47.5t-31.5 -55t-24 -58.5l-385 -1018q-13 -37 -29 -37q-15 0 -29 37l-338 889q-15 43 -22 43q-6 0 -23 -45l-336 -897q-10 -27 -24 -27q-15 0 -27 31l-415 1065q-16 41 -25.5 60t-30.5 41t-51 30q-8 2 -26 4t-28.5 4.5t-10.5 7.5z" />
<glyph unicode="x" horiz-adv-x="1198" d="M41 -2q0 8 17 11.5t45 9t47 16.5q49 27 86 94l270 453q16 24 16 39q0 9 -16 41l-166 296q-38 68 -61.5 106.5t-59 79t-67.5 52.5q-18 8 -62 8q-14 0 -14 8q0 13 28 13q20 0 75.5 -3t94.5 -3q68 0 113.5 4t63.5 4t18 -8q0 -6 -7.5 -9t-19 -4.5t-16.5 -3.5q-31 -12 -31 -39 q0 -40 25 -88l170 -313q10 -19 14 -19q6 0 14 17l173 299q11 18 25.5 54t14.5 52q0 34 -30 41q-39 8 -39 13q0 8 26 8q20 0 65 -4t71 -4q37 0 80 5t69 5q25 0 25 -10q0 -11 -37 -15q-25 -4 -41 -14q-64 -42 -115 -123l-239 -393q-11 -18 -11 -25q0 -5 13 -28l258 -459 q40 -73 89 -110.5t122 -37.5q20 0 20 -8q0 -14 -45 -14q-30 0 -90 4t-98 4q-16 0 -69.5 -2t-84.5 -2q-22 0 -22 8t20 12q1 1 8.5 3t10 3.5t8.5 4.5t8.5 6t5 7.5t2.5 10.5q0 48 -41 127l-180 326q-8 16 -15 16q-5 0 -14 -18l-199 -352q-10 -17 -24 -53t-14 -50q0 -27 30 -35 q1 0 9 -1.5t12 -3t4 -5.5q0 -8 -31 -8q-19 0 -55.5 3t-59.5 3q-22 0 -71.5 -6t-79.5 -6q-41 0 -41 10z" />
<glyph unicode="y" horiz-adv-x="1157" d="M-41 1214q0 15 51 15q35 0 79 -5t69 -5q15 0 65.5 6t69.5 6q45 0 45 -8t-28.5 -16.5t-28.5 -24.5q0 -45 36 -97l267 -391q24 -35 34 -35q2 0 4 0.5t4 3t4 4t5 6l5 7.5t6 9.5t7 10.5l203 304q44 66 59 101.5t15 74.5q0 11 -4 17.5t-9.5 9t-9.5 5t-4 5.5q0 8 21 8 q6 0 38 -3t70 -3q4 0 45.5 6t65.5 6q55 0 55 -12q0 -11 -22 -11q-26 0 -56 -12q-24 -8 -54.5 -40.5t-86.5 -117.5l-293 -438q-3 -4 -9 -13t-8.5 -13t-6 -11.5t-4.5 -15t-1 -17.5v-358q0 -100 37 -125q30 -20 84 -31q29 -4 29 -12q0 -10 -43 -10q-32 0 -84.5 3t-81.5 3 q-17 0 -62 -2t-81 -2q-45 0 -45 10q0 5 7 7t20 3.5t20 3.5q75 21 75 160v344q0 26 -30 68l-359 518q-51 73 -102 82q-13 2 -29 4.5t-24 4t-15.5 3.5t-10.5 4t-3 6z" />
<glyph unicode="z" horiz-adv-x="1300" d="M61 2q0 9 11 21t34.5 36.5t43.5 49.5l784 1003q10 13 10 18q0 9 -26 9h-261q-231 0 -354 -6q-39 -2 -79.5 -16.5t-63.5 -37.5q-19 -19 -19 -73q0 -19 -14 -19q-23 0 -23 82q0 20 9.5 62.5t9.5 66.5q0 9 1 13t8 8t22 4q37 0 141.5 -2t187.5 -2h445q63 0 120.5 3t94.5 3 q26 0 26 -11q0 -7 -5.5 -14.5t-21.5 -22.5t-28 -28q-37 -40 -71 -81.5t-84 -107t-64 -83.5l-524 -682q-66 -92 -66 -101q0 -10 14 -12t70 -2h363q377 0 413 61q23 40 35.5 57t22.5 17q16 0 16 -14q0 -18 -29 -74q-32 -63 -49 -115q-3 -9 -12 -16.5t-19 -7.5q-12 0 -140 6 t-216 6h-555q-17 0 -59 -3t-76 -3q-23 0 -23 8z" />
<glyph unicode="{" horiz-adv-x="690" d="M61 711q0 10 21.5 16t50 11.5t39.5 13.5q74 58 74 174v368q0 72 22.5 121.5t65.5 76t95 38t122 12.5q10 0 23.5 -4t13.5 -12q0 -12 -49 -15q-92 -6 -130 -50.5t-38 -135.5v-342q0 -88 -20 -145.5t-48.5 -79t-56.5 -29.5t-48 -10.5t-20 -9.5q0 -4 20 -5.5t48 -10.5 t56.5 -31t48.5 -80t20 -144v-346q0 -96 37 -138t131 -48q49 -3 49 -10q0 -21 -37 -21q-57 1 -99 7t-83 22t-66.5 43t-41 72t-15.5 106v369q0 113 -68 172q-16 15 -46 20t-50.5 9t-20.5 16z" />
<glyph unicode="|" horiz-adv-x="512" d="M205 -102v1628h102v-1628h-102z" />
<glyph unicode="}" horiz-adv-x="690" d="M102 -104q0 7 50 10q94 6 130.5 47.5t36.5 138.5v346q0 86 20 144t48.5 80t56.5 31t48 10.5t20 5.5q0 7 -20 9.5t-48 10.5t-56.5 29.5t-48.5 79t-20 145.5v342q0 91 -37.5 135.5t-129.5 50.5q-50 3 -50 15q0 8 13.5 12t23.5 4q70 -1 122 -12.5t95 -38t65.5 -76 t22.5 -121.5v-368q0 -116 74 -174q11 -8 39.5 -13.5t50 -11.5t21.5 -16q0 -12 -20.5 -16t-50.5 -9t-46 -20q-68 -59 -68 -172v-369q0 -61 -15.5 -106t-41 -72t-66.5 -43t-83 -22t-99 -7q-37 0 -37 21z" />
<glyph unicode="~" horiz-adv-x="944" d="M102 635q0 113 50 170t133 57q46 0 103 -20t102 -44.5t95.5 -44.5t84.5 -20q75 0 78 127h94q0 -227 -176 -227q-62 0 -136.5 32.5t-141 64.5t-107.5 32q-81 0 -84 -125z" />
<glyph unicode="&#xa1;" horiz-adv-x="440" d="M121 1325q0 47 26.5 80t71.5 33q43 0 70.5 -34t27.5 -77t-27 -71.5t-71 -28.5q-43 0 -70.5 29t-27.5 69zM125 0q33 300 39 406l31 573q0 15 6 34t18 19t18.5 -21t6.5 -36l30 -567q8 -174 39 -408q-55 4 -94 4z" />
<glyph unicode="&#xa2;" horiz-adv-x="1054" d="M102 723q0 102 39 205q59 149 176.5 229t280.5 80h29l18 168q2 8 5.5 12t13.5 4h36q19 0 19 -10l-21 -180q59 -6 133 -23.5t105 -17.5q1 0 9 3t13 3q13 0 13 -25q0 -7 -2 -25t-2 -32q0 -13 2 -39.5t2 -42.5q0 -2 -0.5 -5.5t-1.5 -9t-4.5 -9.5t-8.5 -4q-17 0 -24 26 q-34 113 -240 141l-100 -917q36 -8 86 -8q117 0 205 63q33 21 49 56q1 3 3.5 10t4 10.5t4 8.5t6 7t8.5 2q9 0 12 -9t3 -15q0 -17 -4.5 -38t-10.5 -44.5t-8 -40.5q-1 -10 -2 -13.5t-5.5 -7.5t-14.5 -8q-95 -37 -291 -37h-51l-25 -227q-3 -20 -16 -20h-43q-17 0 -17 12 q0 1 2.5 17t5 36t3.5 31l16 162q-196 32 -303 167t-107 355zM223 762q0 -108 34.5 -206t102.5 -173.5t160 -110.5l101 906q-18 2 -52 2q-59 0 -109 -16t-87.5 -44.5t-66.5 -67t-47 -85.5t-27 -98.5t-9 -106.5z" />
<glyph unicode="&#xa3;" horiz-adv-x="1146" d="M41 16q0 13 11.5 20.5t27.5 11t43.5 13t50.5 23.5q32 20 51 33t48.5 40t47.5 60t36.5 80t27 113.5t8.5 148.5q0 46 -14 125h-219q-37 0 -37 12q0 3 1.5 8.5t6 19.5t8.5 30q3 12 8.5 14t28.5 2h186q-43 172 -43 272q0 114 48 209.5t142.5 155t217.5 59.5q72 0 130.5 -14 t86.5 -14q20 0 31 5t14 5q6 0 6 -8q0 -4 -3 -50.5t-3 -97.5q0 -98 -18 -98q-5 0 -9.5 23.5t-19.5 59t-41 58.5q-88 76 -207 76q-109 0 -181.5 -67.5t-72.5 -178.5q0 -45 7.5 -104.5t13 -88t23.5 -112t20 -90.5h260h16.5t10 -1t7 -3t1.5 -6q0 -2 -15 -51q-4 -16 -10 -20.5 t-20 -4.5h-234q10 -62 10 -100q0 -75 -21.5 -149t-52.5 -128t-62.5 -97t-53 -69.5t-21.5 -31.5q0 -18 18 -21.5t87 -3.5h174q317 0 391 57q19 14 40.5 42.5t38 47.5t28.5 19q10 0 10 -17q0 -9 -7.5 -27t-20.5 -45t-15 -32q-9 -20 -23.5 -60.5t-21.5 -58.5q-8 -24 -29 -24 q-1 0 -34 4t-105 4q-66 0 -176 3t-176 3h-281q-44 0 -89.5 -2t-55.5 -2q-31 0 -31 20z" />
<glyph unicode="&#xa4;" horiz-adv-x="1251" d="M41 629q0 2 1.5 6.5t6 16t8.5 28.5q3 12 8.5 14t28.5 2h113v35q0 43 2 66h-131q-37 0 -37 14q0 2 1.5 6.5t6 16t8.5 28.5q3 12 9 14.5t28 2.5h123q12 90 37 171.5t70 158.5t105.5 133t147.5 90t191 34q75 0 141 -18t114.5 -35.5t80.5 -17.5q6 0 12 5t10 5q7 0 7 -23 q0 -14 -3.5 -42t-3.5 -42q0 -20 3.5 -59t3.5 -59q0 -31 -9 -31q-10 0 -20 24t-30 62t-50 63q-79 66 -133.5 86.5t-165.5 20.5q-158 0 -252 -142.5t-108 -383.5h634q35 0 35 -11q0 -4 -1 -7.5t-5 -14t-8 -23.5q-4 -17 -10.5 -21.5t-20.5 -4.5h-627q0 -55 3 -101h577h16.5 t10 -1t7 -3t1.5 -6t-1 -7.5t-5 -14t-8 -23.5q-4 -17 -10.5 -22t-20.5 -5h-563q12 -131 41.5 -235t80 -184.5t128 -124t178.5 -43.5q74 0 124.5 20.5t116.5 71.5q32 25 53 60t30.5 56t19.5 21q8 0 8 -25q0 -26 -14.5 -90t-16.5 -75q-1 -5 -1.5 -11.5t-1 -8t-1.5 -5t-3.5 -5 t-6 -3l-10.5 -4.5q-96 -36 -173 -49t-184 -13q-95 0 -183 44t-159.5 124.5t-120.5 204.5t-63 274h-133q-37 0 -37 15z" />
<glyph unicode="&#xa5;" horiz-adv-x="1183" d="M20 1432q0 14 52 14q27 0 62.5 -6t64.5 -6q27 0 72.5 7t70.5 7q43 0 43 -8q0 -4 -16.5 -8.5t-33 -13.5t-16.5 -25q0 -12 5 -29.5t9.5 -28t15 -32.5t11.5 -25l172 -350q30 -62 43 -81.5t21 -19.5q6 0 19 20t47 83l172 301q24 41 40.5 89t16.5 71q0 20 -15.5 31t-15.5 12 q0 8 17 8q15 0 43.5 -4t42.5 -4q26 0 70.5 7t72.5 7q57 0 57 -16q0 -7 -18 -7q-31 0 -66 -12q-30 -11 -60 -51.5t-95 -159.5l-224 -407q-4 -7 -14.5 -25.5t-15 -27.5t-11.5 -23.5t-9.5 -27t-2.5 -25.5v-101h211h16.5t10 -1t7 -3t1.5 -6t-1 -7.5t-5 -14t-8 -23.5 q-4 -17 -10.5 -22t-20.5 -5h-201v-100h211h16.5t10 -1t7 -3t1.5 -6t-1 -7.5t-5 -14t-8 -23.5q-4 -17 -10.5 -22t-20.5 -5h-201v-127q0 -80 29 -113q20 -23 33.5 -31t44.5 -18q5 -1 18.5 -2.5t23 -3.5t9.5 -6q0 -10 -41 -10q-30 0 -91 5t-91 5q-28 0 -79 -5t-79 -5 q-43 0 -43 8t20 8q15 0 27 4q86 35 86 199v92h-207q-37 0 -37 14q0 2 2 6.5t6.5 16.5t8.5 29q3 12 8.5 14t28.5 2h190v100h-207q-37 0 -37 15q0 2 2 6.5t6.5 16t8.5 28.5q3 12 8.5 14t28.5 2h190v92q0 16 -10 40t-29 59.5t-20 38.5l-267 516q-28 54 -55.5 74t-85.5 36 q-1 0 -9 1.5t-13 3.5t-5 6z" />
<glyph unicode="&#xa6;" horiz-adv-x="348" d="M123 -96v667h102v-667h-102zM123 858v670h102v-670h-102z" />
<glyph unicode="&#xa7;" horiz-adv-x="1140" d="M158 606q0 208 221 301q-129 107 -129 238q0 158 97.5 237.5t262.5 79.5q72 0 145 -15t101 -15q20 0 31 5t14 5q6 0 6 -8t-4 -26t-4 -26q0 -16 1 -48t1 -48q0 -98 -18 -98q-5 0 -9.5 23.5t-19.5 59t-41 58.5q-76 66 -217 66q-101 0 -165 -49t-64 -146q0 -50 26 -94.5 t69 -78.5t98 -70t112 -67.5t112 -73t98 -85t69 -104t26 -129.5q0 -193 -199 -326q109 -92 109 -233q0 -105 -61 -186.5t-155 -122t-202 -40.5q-39 0 -115.5 8.5t-140.5 8.5q-26 0 -29 24q-6 49 -6 150q0 90 17 90q7 0 12 -16t10 -43.5t8 -38.5q16 -51 95.5 -83t162.5 -32 q65 0 130.5 27.5t111 80.5t45.5 117t-34 118t-87.5 93.5t-119 77t-131 78.5t-119 88.5t-87.5 116t-34 151.5zM270 664q0 -66 28.5 -119.5t81 -94.5t106.5 -73.5t125 -75.5t118 -82l8 6q54 35 90.5 94.5t36.5 120.5q0 49 -20.5 93.5t-51 78t-79 69.5t-91 61.5t-100 61.5 t-94.5 62q-158 -64 -158 -202z" />
<glyph unicode="&#xa8;" horiz-adv-x="518" d="M0 1616q0 35 23.5 58.5t58.5 23.5t58.5 -21t23.5 -55q0 -39 -22.5 -63.5t-61.5 -24.5q-36 0 -58 23t-22 59zM354 1616q0 35 23.5 58.5t58.5 23.5t58.5 -21t23.5 -55q0 -39 -23 -63.5t-61 -24.5q-36 0 -58 23t-22 59z" />
<glyph unicode="&#xa9;" horiz-adv-x="1732" d="M119 715q0 205 99.5 377.5t272 273t377.5 100.5q152 0 290.5 -59.5t238 -160t158.5 -239.5t59 -292q0 -203 -100 -375t-271.5 -272.5t-374.5 -100.5q-153 0 -291.5 59t-239 158.5t-159.5 238.5t-59 292zM221 717q0 -179 84 -333t233.5 -245.5t329.5 -91.5q134 0 254 54.5 t204.5 146t133.5 214t49 255.5q0 179 -82.5 332t-230.5 245t-328 92t-329.5 -91.5t-233.5 -245t-84 -332.5zM420 739q0 200 117.5 320.5t318.5 120.5q141 0 264 -35q15 -6 33 -6l2 2h2q4 4 8 4q7 0 11 -9.5t4 -15.5q0 -8 -2 -24.5t-2 -24.5q0 -10 2 -30.5t2 -30.5 q0 -9 -3.5 -23t-11.5 -14q-5 0 -9 2t-6.5 6t-3.5 6.5t-2.5 8.5t-2.5 8q-49 120 -314 120q-76 0 -133.5 -28t-91.5 -77t-50.5 -111t-16.5 -136q0 -184 107 -310t288 -126q89 0 166 51q41 25 51 57q0 1 2.5 10t6 12t9.5 3q7 0 12 -8t5 -15q0 -19 -10 -55.5t-11 -44.5 q-3 -17 -5 -20t-17 -9q-86 -36 -248 -36q-223 0 -347 117.5t-124 340.5z" />
<glyph unicode="&#xaa;" horiz-adv-x="860" d="M41 547q0 2 1.5 6.5t6 16t8.5 28.5q3 12 8.5 14t28.5 2h690h16.5t10 -1t7 -3t1.5 -6t-1 -7.5t-5 -14t-8 -23.5q-4 -17 -10.5 -22t-20.5 -5h-696q-37 0 -37 15zM53 748q0 10 15 14q39 7 69 74l250 575q28 68 38 76q4 2 7 2q19 0 39 -55l244 -596q16 -36 26 -52 q9 -14 26 -21t29.5 -10.5t12.5 -9.5q0 -12 -14 -12q-6 0 -48 2t-55 2q-25 0 -56.5 -2t-33.5 -2q-35 0 -35 12q0 9 9.5 12.5t20.5 3t20.5 6t9.5 21.5q0 12 -34 102t-40 95q-6 4 -21 4h-245q-11 0 -15 -3.5t-10 -18.5l-47 -121l-16 -53q0 -15 7.5 -22t16 -8t16 -4.5t7.5 -10.5 t-7 -11t-14 -4l-86 4l-61 -4q-25 0 -25 15zM295 1042h192q26 0 32.5 2t6.5 9q0 6 -18 51l-82 196q-6 15 -10 15q-2 0 -10 -17l-48 -106z" />
<glyph unicode="&#xab;" horiz-adv-x="972" d="M61 750q0 11 15 29t65 61l285 256q55 49 72 49q4 0 8 -3.5t4 -8.5q0 -9 -21 -37t-34 -41l-176 -199q-70 -79 -70 -96q0 -20 45 -70l211 -225q45 -45 45 -51q0 -11 -18.5 -30t-30.5 -19q-3 0 -7 2.5t-11 8.5t-14.5 12.5t-21 19.5t-26.5 24l-250 227q-70 62 -70 91z M401 750q0 11 15 29t65 61l285 256q55 49 72 49q4 0 8 -3.5t4 -8.5q0 -9 -21 -37t-34 -41l-177 -199q-69 -77 -69 -96q0 -20 45 -70l211 -225q45 -45 45 -51q0 -11 -18.5 -30t-30.5 -19q-3 0 -7 2.5t-11 8.5t-14.5 12.5t-21 19.5t-26.5 24l-250 227q-70 62 -70 91z" />
<glyph unicode="&#xac;" horiz-adv-x="1044" d="M86 612v97h803v-406h-101v309h-702z" />
<glyph unicode="&#xad;" horiz-adv-x="798" d="M70 471l28 107q1 9 9 11.5t32 2.5h482q57 0 57 -19q0 -5 -2 -8.5t-6 -6.5t-8 -5t-11.5 -4t-11.5 -3t-13.5 -2.5t-13.5 -2.5l-117 -17q-117 -16 -213 -31t-124 -22q-16 -4 -34 -11.5l-30 -12.5t-16 -5q-14 0 -8 29z" />
<glyph unicode="&#xae;" horiz-adv-x="1732" d="M119 715q0 153 59 292t159 239.5t239 160t292 59.5q152 0 290.5 -59.5t238 -160t158.5 -239.5t59 -292q0 -203 -100.5 -375t-272.5 -272.5t-375 -100.5q-152 0 -290 59.5t-238.5 159.5t-159.5 238.5t-59 290.5zM221 717q0 -179 85 -333t235.5 -245.5t330.5 -91.5 q132 0 251.5 55.5t203.5 147.5t133 214t49 253q0 133 -49 255.5t-133.5 213.5t-204.5 145.5t-254 54.5q-181 0 -330.5 -91.5t-233 -244.5t-83.5 -333zM467 1149q0 22 25 22q20 0 60 -2t60 -2q28 0 84 4.5t84 4.5q55 0 104 -12t91 -37t67 -69t25 -102q0 -68 -37.5 -130.5 t-97.5 -104.5l-2 -6q2 -4 42.5 -55.5t88 -110.5t51.5 -64q42 -52 97.5 -99t99.5 -46h14q25 0 25 -16q0 -19 -35 -19h-66q-68 0 -117.5 21t-87.5 71q-106 135 -159 215q-13 19 -21 29t-24 21.5t-33 11.5h-129q-8 0 -8 -6v-179q0 -122 30 -141q6 -4 24.5 -9.5t33 -10.5 t14.5 -9q0 -18 -31 -18q-19 0 -56 3t-56 3q-17 0 -53 -3t-54 -3q-9 0 -26 4.5t-17 11.5q0 6 10.5 11.5t25 9.5t17.5 6q33 14 33 90v629q0 44 -16 55q-6 5 -26.5 10.5t-37 10.5t-16.5 10zM668 739q0 -6 37 -6q16 -2 49 -2h55q47 0 63 6q44 19 68.5 72t24.5 106 q0 94 -64.5 144.5t-161.5 50.5h-39q-32 0 -32 -49v-322z" />
<glyph unicode="&#xaf;" horiz-adv-x="624" d="M57 1534q0 9 11 31q4 9 8.5 22.5t7.5 20.5t8 12.5t12 5.5q11 0 35 -6t39 -6h240q44 0 82 8t45 8q18 0 18 -16q0 -5 -4 -14.5t-13 -29t-16 -38.5q0 -1 -2 -4.5t-2.5 -4.5t-2.5 -3.5t-4 -3t-5 -0.5q-1 0 -13 5t-34.5 10t-48.5 5h-258q-27 0 -54.5 -7t-29.5 -7q-19 0 -19 12 z" />
<glyph unicode="&#xb0;" horiz-adv-x="630" d="M80 1130q0 85 58 143t143 58h4q89 0 143.5 -56.5t54.5 -137.5l-2 2q0 -88 -60 -145.5t-142 -57.5q-87 0 -143 57t-56 137zM164 1133q0 -47 34 -82t81 -35q49 0 81.5 35t32.5 86q0 47 -30 83.5t-87 36.5q-51 0 -81.5 -38t-30.5 -86z" />
<glyph unicode="&#xb1;" horiz-adv-x="1019" d="M102 115v96h816v-96h-816zM102 662v98h361v356h96v-356h359v-98h-357v-361h-98v361h-361z" />
<glyph unicode="&#xb2;" horiz-adv-x="708" d="M61 578q0 5 12 18.5t39 39.5t31 30l162 163q209 213 209 353q0 54 -23 103.5t-72.5 83.5t-115.5 34q-72 0 -127 -46.5t-55 -94.5q0 -15 -12 -15q-9 0 -15 14t-6 23v68q0 6 -2 16.5t-2 15.5q0 19 22 19q24 0 54 12q100 39 176 39q80 0 150 -37.5t110.5 -98.5t40.5 -130 q0 -35 -8 -68t-27 -66.5t-37 -59.5t-52.5 -63.5t-57.5 -60t-68 -65.5l-166 -158q-4 -4 -4 -10q0 -2 8 -2h242q88 0 117 27q21 21 34 53q6 14 17 14q12 0 12 -12q0 -6 -10 -41q-7 -27 -9.5 -40t-4 -27.5t-2.5 -20.5q-3 -21 -25 -21h-33q-65 0 -98 2q-13 0 -50 1t-48 1 q-99 0 -285 -12q-21 0 -21 19z" />
<glyph unicode="&#xb3;" horiz-adv-x="665" d="M61 715q0 22 15 22q10 0 14 -7.5t5.5 -18.5t4.5 -15q29 -47 82.5 -69.5t116.5 -22.5q95 0 144 51.5t49 118.5q0 111 -66 175.5t-176 64.5q-6 0 -13 -1t-8 -1h-16q-23 0 -23 20q0 10 11 16.5t30 6.5q92 0 146 24q100 41 100 166q0 67 -57.5 112.5t-132.5 45.5 q-41 0 -82 -19t-68 -53q-11 -17 -16 -41q-3 -22 -19 -22t-16 16q0 35 2 47q0 5 1 19.5t1 19.5q0 3 -1 8t-1 8v17q0 7 2 10t4.5 3.5t7.5 0.5q1 0 4 -1t5 -1h10q29 0 92 19.5t100 19.5q103 0 189 -59t86 -150q0 -40 -17 -74.5t-44.5 -58t-53 -38.5t-51.5 -25q63 -15 122.5 -79 t59.5 -159q0 -125 -91 -192.5t-224 -67.5q-75 0 -201 31q-20 8 -20 24q0 17 -3.5 52.5t-3.5 56.5z" />
<glyph unicode="&#xb4;" horiz-adv-x="450" d="M0 1544q0 8 14 17q29 19 161.5 82t150.5 63q10 0 67.5 -57t57.5 -66q0 -10 -11 -10q-6 0 -29.5 8t-48.5 8q-59 0 -156 -13t-167 -34q-1 0 -12.5 -4t-16.5 -4q-10 0 -10 10z" />
<glyph unicode="&#xb5;" horiz-adv-x="1898" d="M92 -2q0 8 19 8q34 5 59 23q59 44 76 225q5 49 38 380t54 505l35 295q0 8 4 20t12 12q12 0 27 -30q1 -3 43 -95q10 -20 41 -89.5t143.5 -313t292.5 -631.5q14 -28 25 -28q5 0 11 7t16 27t19.5 41.5l28.5 64.5t37 81l426 921q12 28 17.5 36.5t15.5 8.5q11 0 14 -30 l33 -371q16 -191 56 -570.5t59 -416.5q18 -38 53 -55q10 -5 25.5 -9t24.5 -7t9 -7q0 -7 -11 -8.5t-44 -1.5q-34 0 -102.5 5t-102.5 5q-24 0 -74 -3t-75 -3q-17 0 -17 10q0 6 23 6q29 3 63 23q54 31 54 174q0 14 -11 160l-51 661q-4 41 -18 41q-15 0 -54 -88l-405 -891 q-2 -5 -6 -14t-6.5 -13.5t-6 -12t-5.5 -11.5t-5 -9.5t-5.5 -8.5l-5 -6t-5 -4t-4.5 -1q-10 0 -25 29q-11 21 -27 56.5t-37 84.5t-74 169t-118 265q-116 264 -198 418q-17 35 -29 35t-12 -35l-52 -690q-8 -114 -8 -174q0 -108 45 -137q26 -17 57 -22t38 -7q6 -3 6 -8 q0 -6 -31 -6q-29 0 -87 6t-87 6t-85 -5t-85 -5q-31 0 -31 8z" />
<glyph unicode="&#xb6;" horiz-adv-x="1249" d="M102 1032q0 171 128.5 289.5t318.5 118.5q17 0 113 -3t118 -3l142 3q142 3 194 3q31 0 31 -17q0 -10 -17 -10q-63 0 -93.5 -27t-30.5 -88v-1165q0 -301 4 -381q0 -30 -51 -48.5t-85 -18.5q-10 0 -10 10q0 3 1.5 12.5t3.5 26t3 33.5q11 118 11 366v1194q0 31 -16.5 43 t-57.5 12q-21 0 -31 -1t-22 -5.5t-16.5 -15t-4.5 -29.5v-1190q0 -383 6 -463q0 -29 -50 -47t-85 -18q-16 0 -16 12q0 1 1.5 8t4.5 24.5t6 41.5q10 97 10 442v473h-37q-207 0 -340 114.5t-133 303.5zM438 1032q0 -33 0.5 -56.5t4 -66.5t9.5 -74t19 -68t31 -60.5t46.5 -39.5 t63.5 -16v664q0 39 -6 53t-24 14q-33 0 -58 -13.5t-40.5 -41t-25 -56.5t-13.5 -74t-5.5 -79.5t-1.5 -85.5z" />
<glyph unicode="&#xb7;" horiz-adv-x="440" d="M123 750q0 43 27.5 69.5t68.5 26.5t69.5 -25.5t28.5 -68.5q0 -45 -27 -74t-71 -29q-40 0 -68 28.5t-28 72.5z" />
<glyph unicode="&#xb8;" horiz-adv-x="430" d="M0 -492q0 6 4.5 10t9 6t13.5 4.5t10 2.5q278 96 278 201q0 90 -141 90q-22 0 -22 12q0 11 20 41l86 127h59l-86 -113q-8 -11 -8 -16q0 -6 25 -6q69 0 125.5 -27t56.5 -86q0 -33 -15.5 -63t-51.5 -55t-60.5 -41.5t-79.5 -36t-69 -24.5t-65 -20l-9 -3q-51 -17 -64 -17 q-16 0 -16 14z" />
<glyph unicode="&#xb9;" horiz-adv-x="532" d="M61 1339q0 12 25 23l39 12q65 17 104 31q38 13 68 43q12 12 20 12q15 0 15 -18q0 -52 -3 -164t-3 -176v-309q0 -150 18 -168q31 -33 98 -33q29 0 29 -17q0 -7 -9 -12.5t-20 -5.5q-22 0 -80.5 7t-76.5 7q-45 0 -123 -8l-6 -1q-6 -1 -11 -1q-14 -2 -49 -2q-28 0 -28 16 t24 19q25 0 74 8q34 5 45.5 65.5t11.5 161.5v406q0 27 -0.5 41t-3.5 34t-11 29t-20 9q-9 0 -52 -12.5t-54 -12.5q-21 0 -21 16z" />
<glyph unicode="&#xba;" horiz-adv-x="878" d="M51 1094q0 163 104 272t267 109q93 0 151 -19q114 -37 184 -130t70 -212q0 -175 -99 -282t-273 -107q-173 0 -288.5 99.5t-115.5 269.5zM59 547q0 2 2 6.5t6.5 16t8.5 28.5q3 12 8.5 14t28.5 2h669h16.5t10 -1t7 -3t1.5 -6t-1 -7.5t-5 -14t-8 -23.5q-4 -17 -10.5 -22 t-20.5 -5h-676q-37 0 -37 15zM152 1133q0 -93 36.5 -173.5t109 -133t167.5 -52.5q123 0 194.5 70.5t71.5 193.5q0 56 -11.5 110.5t-36 105t-60 88.5t-87 60.5t-112.5 22.5q-130 0 -201 -80.5t-71 -211.5z" />
<glyph unicode="&#xbb;" horiz-adv-x="972" d="M123 377q0 9 21 37t34 41l176 198q70 79 70 97q0 19 -45 69l-211 225q-45 45 -45 52q0 11 18.5 30t30.5 19q5 0 12 -6t28.5 -26t39.5 -36l250 -227q69 -61 69 -90q0 -12 -15 -29.5t-64 -60.5l-285 -256q-55 -49 -72 -49q-5 0 -8.5 3.5t-3.5 8.5zM463 377q0 9 21 37t34 41 l176 198q70 79 70 97q0 19 -45 69l-211 225q-45 45 -45 52q0 11 18.5 30t30.5 19q5 0 12 -6t28.5 -26t39.5 -36l250 -227q69 -61 69 -90q0 -11 -15 -29t-65 -61l-284 -256q-55 -49 -72 -49q-5 0 -8.5 3.5t-3.5 8.5z" />
<glyph unicode="&#xbc;" horiz-adv-x="1615" d="M61 1339q0 12 25 23l39 12q65 17 104 31q38 13 68 43q12 12 20 12q15 0 15 -18q0 -52 -3 -164t-3 -176v-309q0 -150 18 -168q31 -33 98 -33q29 0 29 -17q0 -7 -9 -12.5t-20 -5.5q-22 0 -80.5 7t-76.5 7q-45 0 -123 -8l-6 -1q-6 -1 -11 -1q-14 -2 -49 -2q-28 0 -28 16 t24 19q25 0 74 8q34 5 45.5 65.5t11.5 161.5v406q0 27 -0.5 41t-3.5 34t-11 29t-20 9q-9 0 -52 -12.5t-54 -12.5q-21 0 -21 16zM408 -111q0 7 4 19l655 1657q6 18 14 18q3 0 15 -4l45 -16q10 -3 10 -11q0 -6 -4 -14l-662 -1665q-8 -18 -18 -18q-6 0 -16 4l-33 14 q-10 3 -10 16zM852 283q0 8 33 49l370 436q87 104 96 110q4 3 7 3q12 0 15 -4.5t3 -18.5q0 -13 -1 -36t-1 -34v-442q0 -14 8 -14h84q19 0 43 6t29 6q6 0 9 -0.5t5 -3t2 -8.5q0 -5 -7.5 -24t-8.5 -21q-1 -4 -2.5 -10.5t-2.5 -10t-2 -8.5t-2 -8t-2.5 -6.5t-2.5 -5.5t-3 -3.5 t-4 -2.5t-4 -1q-6 0 -16.5 15.5t-30.5 15.5h-84q-8 0 -8 -8v-121q0 -106 86 -106q37 0 37 -17q0 -18 -35 -18q-19 0 -74 4t-73 4q-23 0 -70 -3t-71 -3q-31 0 -31 16q0 15 35 15q10 0 21 2t30.5 9.5t32 28t12.5 50.5v137q0 10 -8 10h-389q-25 0 -25 21zM969 342q0 -10 18 -10 h277q6 0 8 3t2 15v314q0 28 -8 28q-5 0 -15 -10l-229 -266q-53 -61 -53 -74z" />
<glyph unicode="&#xbd;" horiz-adv-x="1693" d="M61 1339q0 12 25 23l39 12q65 17 104 31q38 13 68 43q12 12 20 12q15 0 15 -18q0 -52 -3 -164t-3 -176v-309q0 -150 18 -168q31 -33 98 -33q29 0 29 -17q0 -7 -9 -12.5t-20 -5.5q-22 0 -80.5 7t-76.5 7q-45 0 -123 -8l-6 -1q-6 -1 -11 -1q-14 -2 -49 -2q-28 0 -28 16 t24 19q25 0 74 8q34 5 45.5 65.5t11.5 161.5v406q0 27 -0.5 41t-3.5 34t-11 29t-20 9q-9 0 -52 -12.5t-54 -12.5q-21 0 -21 16zM410 -111q0 7 4 19l655 1657q6 18 14 18q3 0 15 -4l45 -16q10 -3 10 -11q0 -6 -4 -14l-662 -1665q-8 -18 -18 -18q-6 0 -16 4l-33 14 q-10 3 -10 16zM1047 6q0 3 5.5 10.5t15 18t19 19.5t22.5 21.5t19 18.5l162 164q209 213 209 352q0 86 -56.5 153.5t-154.5 67.5q-72 0 -127 -46.5t-55 -94.5q0 -14 -12 -14q-9 0 -15 14t-6 23v67q0 6 -2 17t-2 16q0 18 23 18q20 0 53 13q100 39 176 39q122 0 211.5 -81 t89.5 -186q0 -42 -14 -83.5t-32.5 -73.5t-57 -76.5t-65.5 -71.5t-81 -78l-166 -157q-4 -4 -4 -10q0 -3 8 -3h242q64 0 98.5 16.5t53.5 63.5q6 15 16 15q12 0 12 -13q0 -6 -10 -41q-9 -35 -16 -88q-3 -20 -25 -20h-33q-65 0 -98 2q-13 0 -50 1t-48 1q-99 0 -285 -12 q-20 0 -20 18z" />
<glyph unicode="&#xbe;" horiz-adv-x="1681" d="M61 715q0 22 15 22q10 0 14 -7.5t5.5 -18.5t4.5 -15q29 -47 82.5 -69.5t116.5 -22.5q95 0 144 51.5t49 118.5q0 111 -66 175.5t-176 64.5q-6 0 -13 -1t-8 -1h-16q-23 0 -23 20q0 10 11 16.5t30 6.5q92 0 146 24q100 41 100 166q0 67 -57.5 112.5t-132.5 45.5 q-41 0 -82 -19t-68 -53q-11 -17 -16 -41q-3 -22 -19 -22t-16 16q0 35 2 47q0 5 1 19.5t1 19.5q0 3 -1 8t-1 8v17q0 7 2 10t4.5 3.5t7.5 0.5q1 0 4 -1t5 -1h10q29 0 92 19.5t100 19.5q103 0 189 -59t86 -150q0 -40 -17 -74.5t-44.5 -58t-53 -38.5t-51.5 -25q63 -15 122.5 -79 t59.5 -159q0 -125 -91 -192.5t-224 -67.5q-75 0 -201 31q-20 8 -20 24q0 17 -3.5 52.5t-3.5 56.5zM469 -111q0 7 4 19l655 1657q6 18 15 18q2 0 14 -4l45 -16q10 -3 10 -11q0 -6 -4 -14l-661 -1665q-8 -18 -19 -18q-6 0 -16 4l-33 14q-10 3 -10 16zM918 283q0 9 32 49 l371 436q88 105 94 110q4 3 8 3q13 0 16 -5t3 -18t-1 -36t-1 -34v-442q0 -14 8 -14h84q19 0 43 6t29 6q6 0 9 -0.5t5 -3t2 -8.5q0 -5 -7.5 -24t-8.5 -21q-1 -4 -2.5 -10.5t-2.5 -10t-2 -8.5t-2 -8t-2.5 -6.5t-2.5 -5.5t-3 -3.5t-4 -2.5t-4 -1q-6 0 -16.5 15.5t-30.5 15.5 h-84q-8 0 -8 -8v-121q0 -106 86 -106q37 0 37 -17q0 -18 -35 -18q-19 0 -74 4t-74 4q-23 0 -70 -3t-71 -3q-31 0 -31 16q0 15 35 15q10 0 21 2t30.5 9.5t32 28t12.5 50.5v137q0 10 -8 10h-389q-24 0 -24 21zM1034 342q0 -10 19 -10h276q6 0 8 3t2 15v314q0 28 -8 28 q-4 0 -14 -10l-230 -266q-53 -61 -53 -74z" />
<glyph unicode="&#xbf;" horiz-adv-x="694" d="M123 227q0 74 35.5 146.5t86 132t101 118t86 126t35.5 133.5q0 23 -15.5 40.5t-30.5 30t-15 23.5t0.5 15t2.5 9.5t7.5 7t15.5 1.5q26 0 46 -32t28 -67t8 -61q0 -49 -24.5 -109t-60 -118t-71 -118.5t-60 -130.5t-24.5 -134q0 -102 50 -156.5t151 -54.5q33 0 56 15.5 t33 34.5t23 34.5t27 15.5q8 0 13.5 -7.5t5.5 -15.5q0 -18 -19 -47q-62 -92 -219 -92q-111 0 -191.5 74.5t-80.5 185.5zM324 1321q0 47 26.5 80t71.5 33q43 0 69.5 -31t26.5 -74q0 -44 -27.5 -75t-70.5 -31q-44 0 -70 27.5t-26 70.5z" />
<glyph unicode="&#xc0;" horiz-adv-x="1290" d="M-41 6q0 4 11.5 7t28 7.5t24.5 12.5q27 26 61.5 93.5t52.5 111.5t51 129l347 866q14 36 31.5 82t29 76t22.5 58.5t18.5 42t12.5 13.5t9.5 -5t7.5 -10t6.5 -13t3.5 -9q19 -46 49 -130t43 -117l389 -1037q35 -92 60 -124q26 -32 57 -42l17 -4q17 -3 28.5 -6t11.5 -6 q0 -10 -14 -10q-33 0 -98.5 4t-98.5 4q-28 0 -82 -3t-82 -3q-36 0 -36 6q0 8 12.5 11.5t30 4.5t20.5 2q45 14 45 72q0 37 -24 111l-97 256q-16 44 -30 54.5t-66 10.5h-408q-47 0 -60 -8t-30 -51l-86 -234q-9 -24 -20.5 -69.5t-11.5 -63.5q0 -52 38 -73q3 -1 16 -4t23.5 -7 t10.5 -8q0 -10 -21 -10q-20 0 -71 3t-72 3q-25 0 -66 -3t-65 -3q-29 0 -29 12zM350 1604q0 9 57.5 65.5t67.5 56.5q18 0 150 -63t161 -82q15 -10 15 -16q0 -11 -10 -11q-5 0 -16 4t-13 5q-46 14 -127.5 28t-139.5 21.5t-67 7.5q-10 0 -34.5 -13.5t-33.5 -13.5q-10 0 -10 11z M375 610q0 -8 5.5 -10t20.5 -2h396q51 0 51 18q0 13 -107 302l-63 169q-45 121 -60 121q-13 0 -45 -80l-79 -202q-3 -9 -34 -87.5t-58 -150t-27 -78.5z" />
<glyph unicode="&#xc1;" horiz-adv-x="1290" d="M-41 6q0 4 11.5 7t28 7.5t24.5 12.5q27 26 61.5 93.5t52.5 111.5t51 129l347 866q14 36 31.5 82t29 76t22.5 58.5t18.5 42t12.5 13.5t9.5 -5t7.5 -10t6.5 -13t3.5 -9q19 -46 49 -130t43 -117l389 -1037q35 -92 60 -124q26 -32 57 -42l17 -4q17 -3 28.5 -6t11.5 -6 q0 -10 -14 -10q-33 0 -98.5 4t-98.5 4q-28 0 -82 -3t-82 -3q-36 0 -36 6q0 8 12.5 11.5t30 4.5t20.5 2q45 14 45 72q0 37 -24 111l-97 256q-16 44 -30 54.5t-66 10.5h-408q-47 0 -60 -8t-30 -51l-86 -234q-9 -24 -20.5 -69.5t-11.5 -63.5q0 -52 38 -73q3 -1 16 -4t23.5 -7 t10.5 -8q0 -10 -21 -10q-20 0 -71 3t-72 3q-25 0 -66 -3t-65 -3q-29 0 -29 12zM375 610q0 -8 5.5 -10t20.5 -2h396q51 0 51 18q0 13 -107 302l-63 169q-45 121 -60 121q-13 0 -45 -80l-79 -202q-3 -9 -34 -87.5t-58 -150t-27 -78.5zM465 1565q0 7 14 16q29 19 161.5 82 t150.5 63q10 0 67 -56.5t57 -65.5q0 -11 -10 -11q-6 0 -29.5 8.5t-48.5 8.5q-59 0 -156 -13t-167 -34q-2 -1 -13 -5t-16 -4q-10 0 -10 11z" />
<glyph unicode="&#xc2;" horiz-adv-x="1290" d="M-41 6q0 4 11.5 7t28 7.5t24.5 12.5q27 26 61.5 93.5t52.5 111.5t51 129l347 866q14 36 31.5 82t29 76t22.5 58.5t18.5 42t12.5 13.5t9.5 -5t7.5 -10t6.5 -13t3.5 -9q19 -46 49 -130t43 -117l389 -1037q35 -92 60 -124q26 -32 57 -42l17 -4q17 -3 28.5 -6t11.5 -6 q0 -10 -14 -10q-33 0 -98.5 4t-98.5 4q-28 0 -82 -3t-82 -3q-36 0 -36 6q0 8 12.5 11.5t30 4.5t20.5 2q45 14 45 72q0 37 -24 111l-97 256q-16 44 -30 54.5t-66 10.5h-408q-47 0 -60 -8t-30 -51l-86 -234q-9 -24 -20.5 -69.5t-11.5 -63.5q0 -52 38 -73q3 -1 16 -4t23.5 -7 t10.5 -8q0 -10 -21 -10q-20 0 -71 3t-72 3q-25 0 -66 -3t-65 -3q-29 0 -29 12zM375 610q0 -8 5.5 -10t20.5 -2h396q51 0 51 18q0 13 -107 302l-63 169q-45 121 -60 121q-13 0 -45 -80l-79 -202q-3 -9 -34 -87.5t-58 -150t-27 -78.5zM438 1548q0 16 27 29q30 16 134 81 t114 71q12 8 20 8q3 0 31 -21q8 -6 53.5 -37.5t73 -48t37.5 -16.5t10 -8q0 -5 -40.5 -38.5t-51.5 -33.5q-9 0 -97 56.5t-92 56.5q-6 0 -16.5 -4.5t-26 -13t-30 -17t-35 -20.5t-33.5 -19q-12 -6 -26 -15.5t-22.5 -14.5t-12.5 -5q-17 0 -17 10z" />
<glyph unicode="&#xc3;" horiz-adv-x="1290" d="M-41 6q0 4 11.5 7t28 7.5t24.5 12.5q27 26 61.5 93.5t52.5 111.5t51 129l347 866q14 36 31.5 82t29 76t22.5 58.5t18.5 42t12.5 13.5t9.5 -5t7.5 -10t6.5 -13t3.5 -9q19 -46 49 -130t43 -117l389 -1037q35 -92 60 -124q26 -32 57 -42l17 -4q17 -3 28.5 -6t11.5 -6 q0 -10 -14 -10q-33 0 -98.5 4t-98.5 4q-28 0 -82 -3t-82 -3q-36 0 -36 6q0 8 12.5 11.5t30 4.5t20.5 2q45 14 45 72q0 37 -24 111l-97 256q-16 44 -30 54.5t-66 10.5h-408q-47 0 -60 -8t-30 -51l-86 -234q-9 -24 -20.5 -69.5t-11.5 -63.5q0 -52 38 -73q3 -1 16 -4t23.5 -7 t10.5 -8q0 -10 -21 -10q-20 0 -71 3t-72 3q-25 0 -66 -3t-65 -3q-29 0 -29 12zM375 610q0 -8 5.5 -10t20.5 -2h396q51 0 51 18q0 13 -107 302l-63 169q-45 121 -60 121q-13 0 -45 -80l-79 -202q-3 -9 -34 -87.5t-58 -150t-27 -78.5zM420 1536q0 29 74 92.5t114 63.5 q44 0 88 -19t76.5 -38t48.5 -19q33 0 55 19t33 38t15 19q12 0 12 -19q0 -28 -46 -82.5t-81 -54.5q-44 0 -85 18.5t-75.5 37t-62.5 18.5q-31 0 -60 -12.5t-46 -27.5t-31.5 -27.5t-20.5 -12.5q-8 0 -8 6z" />
<glyph unicode="&#xc4;" horiz-adv-x="1290" d="M-41 6q0 4 11.5 7t28 7.5t24.5 12.5q27 26 61.5 93.5t52.5 111.5t51 129l347 866q14 36 31.5 82t29 76t22.5 58.5t18.5 42t12.5 13.5t9.5 -5t7.5 -10t6.5 -13t3.5 -9q19 -46 49 -130t43 -117l389 -1037q35 -92 60 -124q26 -32 57 -42l17 -4q17 -3 28.5 -6t11.5 -6 q0 -10 -14 -10q-33 0 -98.5 4t-98.5 4q-28 0 -82 -3t-82 -3q-36 0 -36 6q0 8 12.5 11.5t30 4.5t20.5 2q45 14 45 72q0 37 -24 111l-97 256q-16 44 -30 54.5t-66 10.5h-408q-47 0 -60 -8t-30 -51l-86 -234q-9 -24 -20.5 -69.5t-11.5 -63.5q0 -52 38 -73q3 -1 16 -4t23.5 -7 t10.5 -8q0 -10 -21 -10q-20 0 -71 3t-72 3q-25 0 -66 -3t-65 -3q-29 0 -29 12zM375 610q0 -8 5.5 -10t20.5 -2h396q51 0 51 18q0 13 -107 302l-63 169q-45 121 -60 121q-13 0 -45 -80l-79 -202q-3 -9 -34 -87.5t-58 -150t-27 -78.5zM403 1616q0 35 23.5 58.5t58.5 23.5 t58.5 -21t23.5 -55q0 -39 -22.5 -63.5t-61.5 -24.5q-36 0 -58 23t-22 59zM758 1616q0 35 23.5 58.5t58.5 23.5t58.5 -21t23.5 -55q0 -39 -23 -63.5t-61 -24.5q-36 0 -58 23t-22 59z" />
<glyph unicode="&#xc5;" horiz-adv-x="1290" d="M-41 6q0 4 11.5 7t28 7.5t24.5 12.5q27 26 61.5 93.5t52.5 111.5t51 129l347 866q14 36 31.5 82t29 76t22.5 58.5t18.5 42t12.5 13.5t9.5 -5t7.5 -10t6.5 -13t3.5 -9q19 -46 49 -130t43 -117l389 -1037q35 -92 60 -124q26 -32 57 -42l17 -4q17 -3 28.5 -6t11.5 -6 q0 -10 -14 -10q-33 0 -98.5 4t-98.5 4q-28 0 -82 -3t-82 -3q-36 0 -36 6q0 8 12.5 11.5t30 4.5t20.5 2q45 14 45 72q0 37 -24 111l-97 256q-16 44 -30 54.5t-66 10.5h-408q-47 0 -60 -8t-30 -51l-86 -234q-9 -24 -20.5 -69.5t-11.5 -63.5q0 -52 38 -73q3 -1 16 -4t23.5 -7 t10.5 -8q0 -10 -21 -10q-20 0 -71 3t-72 3q-25 0 -66 -3t-65 -3q-29 0 -29 12zM375 610q0 -8 5.5 -10t20.5 -2h396q51 0 51 18q0 13 -107 302l-63 169q-45 121 -60 121q-13 0 -45 -80l-79 -202q-3 -9 -34 -87.5t-58 -150t-27 -78.5zM469 1671q0 66 55 103.5t123 37.5 q69 0 129 -35t60 -98q0 -68 -58 -105.5t-129 -37.5q-63 0 -121.5 37.5t-58.5 97.5zM543 1675q0 -43 31.5 -74.5t74.5 -31.5q48 0 80.5 30.5t32.5 79.5q0 46 -33.5 74.5t-79.5 28.5q-47 0 -76.5 -30t-29.5 -77z" />
<glyph unicode="&#xc6;" horiz-adv-x="1710" d="M-41 6q0 6 4 6q3 1 15 2.5t25.5 5.5t27.5 13q63 43 131 143l770 1161q0 40 -30.5 63t-76.5 23h-10q-20 0 -20 11q0 10 20 10h23q36 -2 83 -6t70 -4q80 0 241 5t241 5q17 0 52 2t52 2q8 0 8 -14q0 -6 -1 -18t-1 -17q0 -17 2 -53t2 -54q0 -12 -8 -12q-7 0 -16 14 q-15 28 -30 38.5t-54 21.5q-47 12 -117 12h-248q-21 0 -28.5 -1.5t-12 -10t-4.5 -27.5v-483q0 -26 5 -33.5t30 -7.5h233q94 0 119 22q21 17 27 39q0 2 1 7.5t2.5 11t3 11.5t4 9.5t5.5 3.5q10 0 10 -39q0 -16 -3 -46t-3 -46q0 -24 2 -72t2 -73q0 -21 -8 -21q-4 0 -6.5 7.5 t-4 19t-1.5 12.5q-5 15 -21 35q-23 29 -102 29h-264q-20 0 -25.5 -7.5t-5.5 -29.5v-479q0 -53 29 -80q43 -39 200 -39q183 0 236 74q3 3 7.5 11.5t9 13.5t8.5 5q8 0 8 -8q0 -20 -23.5 -86.5t-36.5 -79.5q-14 -14 -51 -14q-70 0 -208 3t-208 3q-38 0 -112.5 -3t-112.5 -3 q-39 0 -39 10q0 6 15.5 9t35 4.5t23.5 2.5q45 11 61 50q21 60 27 452h-406q-42 0 -56.5 -10t-39.5 -49l-147 -234q-74 -113 -74 -159q0 -26 25 -47q4 -3 15 -6t19.5 -6t8.5 -7q0 -8 -23 -8q-20 0 -61 2t-62 2q-25 0 -75.5 -2t-75.5 -2q-27 0 -27 10zM537 606q0 -8 24 -8h377 v627q-103 -154 -252 -382.5t-149 -236.5z" />
<glyph unicode="&#xc7;" horiz-adv-x="1460" d="M82 731q0 154 53 293q81 218 248.5 330t402.5 112q184 0 322 -30q10 -2 84.5 -21.5t93.5 -19.5q6 0 13 5t10 5q6 0 6 -23q0 -14 -3 -42t-3 -42q0 -20 3 -59t3 -59q0 -31 -8 -31q-5 0 -8 2.5t-6 8.5t-5 12t-6 16.5t-8 19.5q-13 30 -53 70q-145 127 -478 127 q-129 0 -229 -50.5t-160 -138t-90.5 -196.5t-30.5 -234q0 -148 46.5 -284.5t130.5 -242.5t212 -169t281 -63q173 0 303 92q62 46 78 86l2 7q2 7 4 13.5t5.5 14t7 12t6.5 4.5q8 0 8 -25q0 -26 -14.5 -90t-16.5 -75q-1 -5 -1.5 -11.5t-1 -8t-1.5 -5t-3.5 -5t-6 -3l-10.5 -4.5 q-115 -44 -291 -58q-1 0 -12.5 -1.5t-17 -2.5t-14 -4.5t-12.5 -9.5l-45 -64q-8 -11 -8 -16q0 -6 25 -6q69 0 125.5 -27t56.5 -86q0 -33 -15.5 -63t-51.5 -55t-60.5 -41.5t-79.5 -36t-69 -24.5t-65 -20l-9 -3q-51 -17 -64 -17q-16 0 -16 14q0 6 4.5 10t9 6t13.5 4.5t10 2.5 q278 96 278 201q0 90 -141 90q-22 0 -22 12q0 11 20 41l41 62q12 20 12 22q0 8 -20 8q-360 0 -561 201t-201 563z" />
<glyph unicode="&#xc8;" horiz-adv-x="1099" d="M145 4q0 8 35 12q26 3 40.5 6t33.5 15t27 33q26 69 26 514v694q0 68 -26.5 99.5t-94.5 43.5q-28 5 -28 13q0 12 26 12q30 0 88 -6t88 -6q80 0 241 5t241 5q18 0 52 2t52 2q8 0 8 -14q0 -6 -1 -18t-1 -17q0 -17 2 -53t2 -54q0 -12 -8 -12q-7 0 -16 14q-15 28 -30 38.5 t-54 21.5q-47 12 -117 12h-248q-21 0 -28.5 -1.5t-12 -10t-4.5 -27.5v-483q0 -26 5 -33.5t30 -7.5h234q93 0 118 22q21 17 27 39q0 2 1 7.5t2.5 11t3 11.5t4 9.5t5.5 3.5q11 0 11 -39q0 -16 -3.5 -46t-3.5 -46q0 -24 2.5 -72t2.5 -73q0 -21 -9 -21q-4 0 -6.5 7.5t-4 19 t-1.5 12.5q-6 17 -20 35q-23 29 -103 29h-264q-20 0 -25.5 -7.5t-5.5 -29.5v-479q0 -53 29 -80q43 -39 201 -39q223 0 276 74q3 3 7.5 11.5t9 13.5t8.5 5q8 0 8 -8q0 -20 -23 -86.5t-36 -79.5q-14 -14 -52 -14q-70 0 -228.5 3t-227.5 3q-38 0 -113 -3t-113 -3q-39 0 -39 10z M330 1583q0 9 57.5 66t67.5 57q18 0 150 -63t161 -82q14 -9 14 -17q0 -10 -10 -10q-5 0 -16.5 4t-12.5 4q-46 14 -127 28t-139 21.5t-67 7.5q-10 0 -34.5 -13t-33.5 -13q-10 0 -10 10z" />
<glyph unicode="&#xc9;" horiz-adv-x="1099" d="M145 4q0 8 35 12q26 3 40.5 6t33.5 15t27 33q26 69 26 514v694q0 68 -26.5 99.5t-94.5 43.5q-28 5 -28 13q0 12 26 12q30 0 88 -6t88 -6q80 0 241 5t241 5q18 0 52 2t52 2q8 0 8 -14q0 -6 -1 -18t-1 -17q0 -17 2 -53t2 -54q0 -12 -8 -12q-7 0 -16 14q-15 28 -30 38.5 t-54 21.5q-47 12 -117 12h-248q-21 0 -28.5 -1.5t-12 -10t-4.5 -27.5v-483q0 -26 5 -33.5t30 -7.5h234q93 0 118 22q21 17 27 39q0 2 1 7.5t2.5 11t3 11.5t4 9.5t5.5 3.5q11 0 11 -39q0 -16 -3.5 -46t-3.5 -46q0 -24 2.5 -72t2.5 -73q0 -21 -9 -21q-4 0 -6.5 7.5t-4 19 t-1.5 12.5q-6 17 -20 35q-23 29 -103 29h-264q-20 0 -25.5 -7.5t-5.5 -29.5v-479q0 -53 29 -80q43 -39 201 -39q223 0 276 74q3 3 7.5 11.5t9 13.5t8.5 5q8 0 8 -8q0 -20 -23 -86.5t-36 -79.5q-14 -14 -52 -14q-70 0 -228.5 3t-227.5 3q-38 0 -113 -3t-113 -3q-39 0 -39 10z M385 1544q0 8 14 17q29 19 161.5 82t150.5 63q10 0 67.5 -57t57.5 -66q0 -10 -11 -10q-6 0 -29 8t-48 8q-59 0 -156.5 -13t-167.5 -34q-1 0 -12.5 -4t-16.5 -4q-10 0 -10 10z" />
<glyph unicode="&#xca;" horiz-adv-x="1099" d="M145 4q0 8 35 12q26 3 40.5 6t33.5 15t27 33q26 69 26 514v694q0 68 -26.5 99.5t-94.5 43.5q-28 5 -28 13q0 12 26 12q30 0 88 -6t88 -6q80 0 241 5t241 5q18 0 52 2t52 2q8 0 8 -14q0 -6 -1 -18t-1 -17q0 -17 2 -53t2 -54q0 -12 -8 -12q-7 0 -16 14q-15 28 -30 38.5 t-54 21.5q-47 12 -117 12h-248q-21 0 -28.5 -1.5t-12 -10t-4.5 -27.5v-483q0 -26 5 -33.5t30 -7.5h234q93 0 118 22q21 17 27 39q0 2 1 7.5t2.5 11t3 11.5t4 9.5t5.5 3.5q11 0 11 -39q0 -16 -3.5 -46t-3.5 -46q0 -24 2.5 -72t2.5 -73q0 -21 -9 -21q-4 0 -6.5 7.5t-4 19 t-1.5 12.5q-6 17 -20 35q-23 29 -103 29h-264q-20 0 -25.5 -7.5t-5.5 -29.5v-479q0 -53 29 -80q43 -39 201 -39q223 0 276 74q3 3 7.5 11.5t9 13.5t8.5 5q8 0 8 -8q0 -20 -23 -86.5t-36 -79.5q-14 -14 -52 -14q-70 0 -228.5 3t-227.5 3q-38 0 -113 -3t-113 -3q-39 0 -39 10z M334 1548q0 16 26 29q30 16 134 81t114 71q12 8 21 8q2 0 30 -21q8 -6 53.5 -37.5t73 -48t37.5 -16.5q11 0 11 -8q0 -5 -41 -38.5t-52 -33.5q-9 0 -96.5 56.5t-91.5 56.5q-6 0 -16.5 -4.5t-26 -13t-30 -17t-35 -20.5t-33.5 -19q-12 -6 -26.5 -15.5t-23 -14.5t-12.5 -5 q-16 0 -16 10z" />
<glyph unicode="&#xcb;" horiz-adv-x="1099" d="M145 4q0 8 35 12q26 3 40.5 6t33.5 15t27 33q26 69 26 514v694q0 68 -26.5 99.5t-94.5 43.5q-28 5 -28 13q0 12 26 12q30 0 88 -6t88 -6q80 0 241 5t241 5q18 0 52 2t52 2q8 0 8 -14q0 -6 -1 -18t-1 -17q0 -17 2 -53t2 -54q0 -12 -8 -12q-7 0 -16 14q-15 28 -30 38.5 t-54 21.5q-47 12 -117 12h-248q-21 0 -28.5 -1.5t-12 -10t-4.5 -27.5v-483q0 -26 5 -33.5t30 -7.5h234q93 0 118 22q21 17 27 39q0 2 1 7.5t2.5 11t3 11.5t4 9.5t5.5 3.5q11 0 11 -39q0 -16 -3.5 -46t-3.5 -46q0 -24 2.5 -72t2.5 -73q0 -21 -9 -21q-4 0 -6.5 7.5t-4 19 t-1.5 12.5q-6 17 -20 35q-23 29 -103 29h-264q-20 0 -25.5 -7.5t-5.5 -29.5v-479q0 -53 29 -80q43 -39 201 -39q223 0 276 74q3 3 7.5 11.5t9 13.5t8.5 5q8 0 8 -8q0 -20 -23 -86.5t-36 -79.5q-14 -14 -52 -14q-70 0 -228.5 3t-227.5 3q-38 0 -113 -3t-113 -3q-39 0 -39 10z M322 1616q0 35 23 58.5t58 23.5t58.5 -21t23.5 -55q0 -39 -22.5 -63.5t-61.5 -24.5q-36 0 -57.5 23t-21.5 59zM676 1616q0 35 23.5 58.5t58.5 23.5t58.5 -21t23.5 -55q0 -39 -23 -63.5t-61 -24.5q-36 0 -58 23t-22 59z" />
<glyph unicode="&#xcc;" horiz-adv-x="745" d="M90 1583q0 9 57.5 66t67.5 57q18 0 150 -63t161 -82q15 -10 15 -17q0 -10 -11 -10q-5 0 -15.5 4t-12.5 4q-46 14 -127.5 28t-139.5 21.5t-67 7.5q-10 0 -34.5 -13t-33.5 -13q-10 0 -10 10zM168 1434q0 12 35 12q25 0 82 -6t82 -6q33 0 90 7t75 7q39 0 39 -12 q0 -4 -15.5 -9.5t-37.5 -11.5t-31 -12q-49 -30 -49 -160v-956q0 -111 11.5 -171.5t54.5 -84.5q15 -8 41 -12t42.5 -7t16.5 -10q0 -12 -20 -12q-32 0 -103 5t-102 5q-34 0 -92 -3t-92 -3q-19 0 -19 10q0 6 17.5 10.5t43.5 14t42 24.5q28 26 28 197v999q0 81 -18.5 118 t-81.5 50q-39 8 -39 17z" />
<glyph unicode="&#xcd;" horiz-adv-x="745" d="M145 1540q0 6 15 16q29 19 161 82.5t150 63.5q10 0 67.5 -57t57.5 -66q0 -10 -10 -10q-6 0 -29.5 8t-48.5 8q-59 0 -156.5 -13t-167.5 -34q-2 0 -12.5 -4t-15.5 -4q-11 0 -11 10zM168 1434q0 12 35 12q25 0 82 -6t82 -6q33 0 90 7t75 7q39 0 39 -12q0 -4 -15.5 -9.5 t-37.5 -11.5t-31 -12q-49 -30 -49 -160v-956q0 -111 11.5 -171.5t54.5 -84.5q15 -8 41 -12t42.5 -7t16.5 -10q0 -12 -20 -12q-32 0 -103 5t-102 5q-34 0 -92 -3t-92 -3q-19 0 -19 10q0 6 17.5 10.5t43.5 14t42 24.5q28 26 28 197v999q0 81 -18.5 118t-81.5 50q-39 8 -39 17z " />
<glyph unicode="&#xce;" horiz-adv-x="745" d="M131 1548q0 16 27 29q30 16 134 81t114 71q12 8 20 8q3 0 31 -21q8 -6 53.5 -37.5t73 -48t37.5 -16.5t10 -8q0 -5 -40.5 -38.5t-51.5 -33.5q-9 0 -97 56.5t-92 56.5q-6 0 -16.5 -4.5t-26 -13t-30 -17t-35 -20.5t-33.5 -19q-12 -6 -26.5 -15.5t-23 -14.5t-12.5 -5 q-16 0 -16 10zM168 1434q0 12 35 12q25 0 82 -6t82 -6q33 0 90 7t75 7q39 0 39 -12q0 -4 -15.5 -9.5t-37.5 -11.5t-31 -12q-49 -30 -49 -160v-956q0 -111 11.5 -171.5t54.5 -84.5q15 -8 41 -12t42.5 -7t16.5 -10q0 -12 -20 -12q-32 0 -103 5t-102 5q-34 0 -92 -3t-92 -3 q-19 0 -19 10q0 6 17.5 10.5t43.5 14t42 24.5q28 26 28 197v999q0 81 -18.5 118t-81.5 50q-39 8 -39 17z" />
<glyph unicode="&#xcf;" horiz-adv-x="745" d="M119 1616q0 35 23.5 58.5t58.5 23.5t58.5 -21t23.5 -55q0 -39 -22.5 -63.5t-61.5 -24.5q-36 0 -58 23t-22 59zM168 1434q0 12 35 12q25 0 82 -6t82 -6q33 0 90 7t75 7q39 0 39 -12q0 -4 -15.5 -9.5t-37.5 -11.5t-31 -12q-49 -30 -49 -160v-956q0 -111 11.5 -171.5 t54.5 -84.5q15 -8 41 -12t42.5 -7t16.5 -10q0 -12 -20 -12q-32 0 -103 5t-102 5q-34 0 -92 -3t-92 -3q-19 0 -19 10q0 6 17.5 10.5t43.5 14t42 24.5q28 26 28 197v999q0 81 -18.5 118t-81.5 50q-39 8 -39 17zM473 1616q0 35 23.5 58.5t58.5 23.5t58.5 -21t23.5 -55 q0 -39 -23 -63.5t-61 -24.5q-36 0 -58 23t-22 59z" />
<glyph unicode="&#xd0;" horiz-adv-x="1622" d="M150 717q0 2 1.5 7.5t6 19.5t8.5 30q3 12 9 14.5t28 2.5h65q28 0 34.5 6.5t6.5 33.5v426q0 75 -29 116.5t-100 41.5q-20 0 -20 12q0 15 51 15q27 0 79 -4t79 -4q73 0 220 7t220 7q101 0 214 -21.5t187 -62.5q158 -88 244 -256.5t86 -359.5q0 -230 -85.5 -401.5 t-253.5 -267t-402 -95.5q-71 0 -211 8t-211 8q-33 0 -98.5 -4t-98.5 -4q-28 0 -28 12q0 4 8.5 6.5t20.5 4t14 1.5q68 12 86 47q28 49 28 252v353q0 25 -7 29.5t-34 4.5h-82q-36 0 -36 15zM440 469q0 -37 5 -134t11 -159q1 -5 1 -8q6 -35 14 -46t39 -26q114 -57 317 -57 q578 0 578 651q0 191 -90.5 363t-251.5 260q-70 38 -165 58t-183 20q-86 0 -152 -2q-9 0 -29 -1t-26.5 -1.5t-20 -2.5t-18 -5t-12.5 -9.5t-10 -15.5t-4.5 -22.5t-2.5 -31.5v-471q0 -25 8 -31.5t33 -6.5h375q35 0 35 -11q0 -5 -14 -51q-4 -17 -10.5 -22t-20.5 -5h-365 q-27 0 -34 -6t-7 -34v-193zM455 186l2 -18q0 4 -1 8q-1 7 -1 10z" />
<glyph unicode="&#xd1;" horiz-adv-x="1781" d="M143 4q0 5 14.5 7.5t35.5 6t32 11.5q28 20 38.5 89.5t10.5 131.5v856l-1 133q-1 133 -1 145q0 72 19 72q7 0 19 -9t21.5 -18.5t22.5 -23.5t15 -16l1024 -1117q24 -24 30 -24q11 0 11 53l-13 821q0 65 -8 152t-27 112q-12 18 -36 28t-41 14.5t-17 9.5q0 10 19 10 q24 0 73.5 -7t75.5 -7t76.5 5t75.5 5q26 0 26 -8q0 -4 -11 -8t-29.5 -9.5t-30.5 -11.5q-16 -9 -25.5 -73t-11.5 -113.5t-2 -85.5v-1106q0 -70 -12 -70q-11 0 -33 19.5t-49.5 50.5t-28.5 32l-981 1065q-38 41 -43 41q-8 0 -8 -53v-870q0 -58 13.5 -120.5t45.5 -86.5 q23 -17 51 -23q33 -7 33 -12q0 -12 -39 -12q-26 0 -72.5 5t-72.5 5t-78 -3t-78 -3q-33 0 -33 10zM598 1536q0 29 74 92.5t114 63.5q44 0 88 -19t76.5 -38t48.5 -19q33 0 55 19t33 38t15 19q12 0 12 -19q0 -28 -46 -82.5t-81 -54.5q-44 0 -85 18.5t-75.5 37t-62.5 18.5 q-31 0 -60 -12.5t-46 -27.5t-31.5 -27.5t-20.5 -12.5q-8 0 -8 6z" />
<glyph unicode="&#xd2;" d="M82 705q0 131 22 221q58 236 235.5 388t416.5 152q171 0 276 -36q213 -75 338 -263.5t125 -418.5q0 -128 -26 -243t-81 -214t-134 -170.5t-191 -112.5t-246 -41q-329 0 -532 204.5t-203 533.5zM233 782q0 -108 23.5 -215t73.5 -204t120 -171.5t170 -118.5t216 -44 q165 0 283 73.5t175.5 199t57.5 288.5q0 92 -15 185t-44.5 185t-79 172t-113 141t-151.5 96.5t-191 35.5q-132 0 -235 -50.5t-165 -138t-93.5 -197.5t-31.5 -237zM506 1583q0 9 57.5 66t67.5 57q18 0 150 -63t161 -82q14 -9 14 -17q0 -10 -10 -10q-5 0 -15.5 4t-12.5 4 q-46 14 -127.5 28t-139.5 21.5t-67 7.5q-10 0 -34.5 -13t-33.5 -13q-10 0 -10 10z" />
<glyph unicode="&#xd3;" d="M82 705q0 131 22 221q58 236 235.5 388t416.5 152q171 0 276 -36q213 -75 338 -263.5t125 -418.5q0 -128 -26 -243t-81 -214t-134 -170.5t-191 -112.5t-246 -41q-329 0 -532 204.5t-203 533.5zM233 782q0 -108 23.5 -215t73.5 -204t120 -171.5t170 -118.5t216 -44 q165 0 283 73.5t175.5 199t57.5 288.5q0 92 -15 185t-44.5 185t-79 172t-113 141t-151.5 96.5t-191 35.5q-132 0 -235 -50.5t-165 -138t-93.5 -197.5t-31.5 -237zM594 1544q0 8 14 17q29 19 161.5 82t150.5 63q10 0 67 -57t57 -66q0 -10 -10 -10q-6 0 -29.5 8t-48.5 8 q-59 0 -156 -13t-167 -34q-1 0 -12.5 -4t-16.5 -4q-10 0 -10 10z" />
<glyph unicode="&#xd4;" d="M82 705q0 131 22 221q58 236 235.5 388t416.5 152q171 0 276 -36q213 -75 338 -263.5t125 -418.5q0 -128 -26 -243t-81 -214t-134 -170.5t-191 -112.5t-246 -41q-329 0 -532 204.5t-203 533.5zM233 782q0 -108 23.5 -215t73.5 -204t120 -171.5t170 -118.5t216 -44 q165 0 283 73.5t175.5 199t57.5 288.5q0 92 -15 185t-44.5 185t-79 172t-113 141t-151.5 96.5t-191 35.5q-132 0 -235 -50.5t-165 -138t-93.5 -197.5t-31.5 -237zM547 1548q0 16 26 29q30 16 134 81t114 71q12 8 21 8q2 0 30 -21q8 -6 53.5 -37.5t73 -48t37.5 -16.5 q11 0 11 -8q0 -5 -41 -38.5t-52 -33.5q-9 0 -96.5 56.5t-91.5 56.5q-6 0 -16.5 -4.5t-26 -13t-30 -17t-35 -20.5t-33.5 -19q-12 -6 -26.5 -15.5t-23 -14.5t-12.5 -5q-16 0 -16 10z" />
<glyph unicode="&#xd5;" d="M82 705q0 131 22 221q58 236 235.5 388t416.5 152q171 0 276 -36q213 -75 338 -263.5t125 -418.5q0 -128 -26 -243t-81 -214t-134 -170.5t-191 -112.5t-246 -41q-329 0 -532 204.5t-203 533.5zM233 782q0 -108 23.5 -215t73.5 -204t120 -171.5t170 -118.5t216 -44 q165 0 283 73.5t175.5 199t57.5 288.5q0 92 -15 185t-44.5 185t-79 172t-113 141t-151.5 96.5t-191 35.5q-132 0 -235 -50.5t-165 -138t-93.5 -197.5t-31.5 -237zM510 1536q0 29 74 92.5t114 63.5q44 0 88 -19t76.5 -38t48.5 -19q33 0 55 19t33 38t15 19q12 0 12 -19 q0 -28 -46 -82.5t-81 -54.5q-44 0 -85 18.5t-75.5 37t-62.5 18.5q-31 0 -60 -12.5t-46 -27.5t-31.5 -27.5t-20.5 -12.5q-8 0 -8 6z" />
<glyph unicode="&#xd6;" d="M82 705q0 131 22 221q58 236 235.5 388t416.5 152q171 0 276 -36q213 -75 338 -263.5t125 -418.5q0 -128 -26 -243t-81 -214t-134 -170.5t-191 -112.5t-246 -41q-329 0 -532 204.5t-203 533.5zM233 782q0 -108 23.5 -215t73.5 -204t120 -171.5t170 -118.5t216 -44 q165 0 283 73.5t175.5 199t57.5 288.5q0 92 -15 185t-44.5 185t-79 172t-113 141t-151.5 96.5t-191 35.5q-132 0 -235 -50.5t-165 -138t-93.5 -197.5t-31.5 -237zM510 1616q0 35 23.5 58.5t58.5 23.5t58.5 -21t23.5 -55q0 -39 -22.5 -63.5t-61.5 -24.5q-36 0 -58 23t-22 59z M864 1616q0 35 23.5 58.5t58.5 23.5t58.5 -21t23.5 -55q0 -39 -23 -63.5t-61 -24.5q-36 0 -58 23t-22 59z" />
<glyph unicode="&#xd7;" horiz-adv-x="970" d="M102 399l312 316l-310 319l70 72l309 -320l312 320l73 -72l-311 -319l311 -316l-71 -71l-312 317l-309 -317z" />
<glyph unicode="&#xd8;" d="M82 705q0 133 22 221q62 238 237.5 389t414.5 151q141 0 240 -25.5t202 -99.5l74 95q14 18 20 18q5 0 11 -4l34 -27q13 -10 13 -14q0 -7 -7 -14l-81 -103q114 -103 173.5 -244.5t59.5 -299.5q0 -162 -42.5 -301.5t-124.5 -247.5t-213.5 -170t-297.5 -62q-291 0 -479 152 l-107 -135q-16 -21 -24 -21q-9 0 -17 8l-30 25q-15 11 -15 16t19 29l110 137q-96 102 -144 240t-48 287zM217 791q0 -125 40 -259t108 -239l759 956q-153 156 -366 156q-131 0 -235.5 -48.5t-170.5 -133.5t-100.5 -195t-34.5 -237zM418 221q167 -192 418 -192q246 0 381 155 t135 406q0 159 -44 318.5t-130 277.5z" />
<glyph unicode="&#xd9;" horiz-adv-x="1579" d="M82 1427q0 15 27 15q29 0 90 -4t90 -4q34 0 102 5t101 5q16 0 16 -8q0 -5 -14 -11t-32 -11t-22 -7q-42 -20 -59 -51t-22 -88t-5 -195v-528q0 -241 121.5 -378.5t327.5 -137.5q217 0 350 133t133 383v336q0 36 -6 172.5t-12 210.5q-5 76 -22.5 105t-80.5 40 q-8 1 -19.5 2.5t-17.5 2.5t-12.5 2.5t-9 3.5t-2.5 5q0 17 35 17q31 0 94 -4t94 -4q27 0 84 2t84 2q23 0 23 -13q0 -10 -25 -10q-27 0 -47 -9t-33 -28t-21 -40.5t-12 -55t-5 -62t-1 -71.5v-553q0 -293 -150 -461t-440 -168q-278 0 -423.5 140t-145.5 405v721q0 125 -20 147 q-13 15 -42 24t-50 13.5t-21 9.5zM549 1583q0 9 57.5 66t67.5 57q18 0 150 -63t161 -82q14 -9 14 -17q0 -10 -10 -10q-5 0 -15.5 4t-12.5 4q-46 14 -127.5 28t-139.5 21.5t-67 7.5q-10 0 -34.5 -13t-33.5 -13q-10 0 -10 10z" />
<glyph unicode="&#xda;" horiz-adv-x="1579" d="M82 1427q0 15 27 15q29 0 90 -4t90 -4q34 0 102 5t101 5q16 0 16 -8q0 -5 -14 -11t-32 -11t-22 -7q-42 -20 -59 -51t-22 -88t-5 -195v-528q0 -241 121.5 -378.5t327.5 -137.5q217 0 350 133t133 383v336q0 36 -6 172.5t-12 210.5q-5 76 -22.5 105t-80.5 40 q-8 1 -19.5 2.5t-17.5 2.5t-12.5 2.5t-9 3.5t-2.5 5q0 17 35 17q31 0 94 -4t94 -4q27 0 84 2t84 2q23 0 23 -13q0 -10 -25 -10q-27 0 -47 -9t-33 -28t-21 -40.5t-12 -55t-5 -62t-1 -71.5v-553q0 -293 -150 -461t-440 -168q-278 0 -423.5 140t-145.5 405v721q0 125 -20 147 q-13 15 -42 24t-50 13.5t-21 9.5zM580 1544q0 8 14 17q29 19 161 82t150 63q10 0 67.5 -57t57.5 -66q0 -10 -10 -10q-6 0 -29.5 8t-48.5 8q-59 0 -156.5 -13t-167.5 -34q-2 0 -12.5 -4t-15.5 -4q-10 0 -10 10z" />
<glyph unicode="&#xdb;" horiz-adv-x="1579" d="M82 1427q0 15 27 15q29 0 90 -4t90 -4q34 0 102 5t101 5q16 0 16 -8q0 -5 -14 -11t-32 -11t-22 -7q-42 -20 -59 -51t-22 -88t-5 -195v-528q0 -241 121.5 -378.5t327.5 -137.5q217 0 350 133t133 383v336q0 36 -6 172.5t-12 210.5q-5 76 -22.5 105t-80.5 40 q-8 1 -19.5 2.5t-17.5 2.5t-12.5 2.5t-9 3.5t-2.5 5q0 17 35 17q31 0 94 -4t94 -4q27 0 84 2t84 2q23 0 23 -13q0 -10 -25 -10q-27 0 -47 -9t-33 -28t-21 -40.5t-12 -55t-5 -62t-1 -71.5v-553q0 -293 -150 -461t-440 -168q-278 0 -423.5 140t-145.5 405v721q0 125 -20 147 q-13 15 -42 24t-50 13.5t-21 9.5zM555 1548q0 16 27 29q30 16 132.5 80.5t114.5 71.5q12 8 21 8q3 0 31 -21q10 -6 54 -37t71.5 -48t37.5 -17q11 0 11 -8q0 -5 -40.5 -38.5t-51.5 -33.5q-9 0 -97 56.5t-92 56.5q-6 0 -16.5 -4.5t-26 -13t-30 -17t-35 -20.5t-33.5 -19 q-12 -6 -26.5 -15.5t-23 -14.5t-12.5 -5q-16 0 -16 10z" />
<glyph unicode="&#xdc;" horiz-adv-x="1579" d="M82 1427q0 15 27 15q29 0 90 -4t90 -4q34 0 102 5t101 5q16 0 16 -8q0 -5 -14 -11t-32 -11t-22 -7q-42 -20 -59 -51t-22 -88t-5 -195v-528q0 -241 121.5 -378.5t327.5 -137.5q217 0 350 133t133 383v336q0 36 -6 172.5t-12 210.5q-5 76 -22.5 105t-80.5 40 q-8 1 -19.5 2.5t-17.5 2.5t-12.5 2.5t-9 3.5t-2.5 5q0 17 35 17q31 0 94 -4t94 -4q27 0 84 2t84 2q23 0 23 -13q0 -10 -25 -10q-27 0 -47 -9t-33 -28t-21 -40.5t-12 -55t-5 -62t-1 -71.5v-553q0 -293 -150 -461t-440 -168q-278 0 -423.5 140t-145.5 405v721q0 125 -20 147 q-13 15 -42 24t-50 13.5t-21 9.5zM553 1616q0 35 23.5 58.5t58.5 23.5t58.5 -21t23.5 -55q0 -39 -22.5 -63.5t-61.5 -24.5q-36 0 -58 23t-22 59zM907 1616q0 35 23.5 58.5t58.5 23.5t58.5 -21t23.5 -55q0 -39 -23 -63.5t-61 -24.5q-36 0 -58 23t-22 59z" />
<glyph unicode="&#xdd;" horiz-adv-x="1318" d="M-61 1432q0 14 51 14q27 0 83 -6t85 -6q27 0 78.5 7t76.5 7q43 0 43 -8q0 -4 -10 -7.5t-22.5 -6.5t-22.5 -11.5t-10 -21.5q0 -48 43 -115l287 -432q3 -4 7 -11q41 -59 52 -64l6 -1q14 0 45 51l230 361q43 68 64.5 125t21.5 84q0 20 -15.5 31t-15.5 12q0 8 16 8 q14 0 44 -4t44 -4q26 0 80 7t82 7q57 0 57 -16q0 -7 -18 -7q-31 0 -66 -12q-30 -11 -83.5 -74t-118.5 -165l-273 -431q-2 -2 -10 -13.5t-10.5 -14.5t-9.5 -13.5t-9 -15t-6.5 -14t-6.5 -16t-3.5 -15t-1.5 -16.5v-424q0 -113 43 -150q24 -20 56 -29t50.5 -11.5t18.5 -8.5 q0 -10 -41 -10q-30 0 -91 4t-91 4q-28 0 -86 -2t-86 -2q-43 0 -43 8q0 5 8 8t22.5 5t18.5 3q52 16 71 65t19 124v407q0 9 -1.5 17t-3.5 13.5t-6.5 13.5t-7 11.5t-9 13t-9.5 13.5l-408 613q-26 37 -44.5 55.5t-49.5 32.5q-16 7 -88 22q-6 0 -16 3t-10 8zM502 1544q0 8 14 17 q29 19 161 82t150 63q10 0 67.5 -57t57.5 -66q0 -10 -10 -10q-6 0 -29.5 8t-48.5 8q-59 0 -156 -13t-167 -34q-1 0 -12.5 -4t-16.5 -4q-10 0 -10 10z" />
<glyph unicode="&#xde;" horiz-adv-x="1189" d="M166 -2q0 3 4 5.5t9 3.5t10.5 1.5t7.5 1.5q46 8 77 47q33 45 33 228v989q0 51 -11.5 83.5t-49.5 53.5q-7 4 -23 8t-27.5 7t-11.5 6q0 10 15 10q29 0 88 -4t88 -4q27 0 80.5 7t79.5 7q34 0 34 -14q0 -3 -4 -7q-10 -5 -39.5 -10.5t-48.5 -19.5q-9 -7 -16 -17t-11.5 -25 t-7 -25t-3.5 -29.5t-1 -27v-28v-22.5q0 -21 10 -36.5t29 -15.5q27 0 81 3.5t81 3.5q130 0 217 -33q117 -43 184.5 -136t67.5 -216q0 -71 -16 -137.5t-48.5 -125t-78 -102t-109 -69t-137.5 -25.5q-26 0 -79.5 8t-53.5 20q0 7 6 7q16 0 48 -6.5t48 -6.5q80 0 148 50t98 126 q24 61 24 166q0 416 -391 416q-61 0 -90 -4q-10 -1 -17 -12.5t-11 -31t-7 -39t-3.5 -46t-1 -42.5t0 -37.5t0.5 -22.5v-412q0 -95 8 -243.5t25 -168.5q41 -47 113 -47q20 0 20 -10q0 -12 -49 -12q-34 0 -100.5 7t-100.5 7q-26 0 -79.5 -5t-79.5 -5q-29 0 -29 8z" />
<glyph unicode="&#xdf;" horiz-adv-x="1861" d="M123 164q0 78 20 78q12 0 17.5 -16t8.5 -38.5t7 -29.5q63 -129 264 -129q95 0 152 39q117 80 117 206q0 77 -50 134t-131 106l-190 117q-86 53 -137 137t-51 178q0 76 40.5 149t106.5 107q39 21 100.5 33t110.5 12q68 0 137 -12t90 -12q12 0 23 4t18 4q10 0 10 -8l-3 -18 q-3 -18 -3 -52q0 -7 1 -28.5t1 -28.5q0 -84 -22 -84q-11 0 -17 24q-18 69 -49 94q-36 30 -99 48t-114 18q-102 0 -165.5 -53t-63.5 -146q0 -146 184 -258l182 -112q100 -62 147.5 -125.5t47.5 -163.5q0 -173 -162 -293q-103 -74 -235 -74q-152 0 -262 45q-25 8 -27 21 q-4 41 -4 127zM1028 164q0 78 21 78q12 0 17 -16t8 -38.5t7 -29.5q63 -129 265 -129q94 0 151 39q117 80 117 206q0 132 -180 240l-191 117q-86 53 -137 137t-51 178q0 76 40.5 149t106.5 107q39 21 100.5 33t110.5 12q69 0 138 -12t89 -12q12 0 23 4t18 4q11 0 11 -8 l-3 -18q-3 -18 -3 -52q0 -7 1 -28.5t1 -28.5q0 -84 -23 -84q-10 0 -16 24q-18 68 -50 94q-36 30 -99 48t-114 18q-102 0 -165.5 -53t-63.5 -146q0 -146 184 -258l183 -112q65 -41 104.5 -77t64.5 -89.5t25 -122.5q0 -173 -162 -293q-103 -74 -235 -74q-152 0 -262 45 q-25 8 -27 21q-4 41 -4 127z" />
<glyph unicode="&#xe0;" horiz-adv-x="1214" d="M0 8q0 6 23 10q30 4 58 39.5t48 81.5l416 1008q7 16 14.5 35t12 30t10 24t9 19.5t7.5 13t7.5 9t6.5 2.5q14 0 45 -78l406 -1044q34 -83 56 -109q21 -24 48 -31q4 -1 18 -3.5t21.5 -4.5t7.5 -6q0 -7 -9.5 -8.5t-43.5 -1.5q-24 0 -63 3t-74 3q-43 0 -77.5 -3t-45.5 -3 q-59 0 -59 8q0 11 45 16q51 6 51 60q0 36 -23 94l-84 217q-10 27 -26.5 40t-52.5 13h-357q-37 0 -47.5 -6.5t-23.5 -42.5l-76 -196q-29 -83 -29 -121q0 -51 35 -56q41 -6 41 -14q0 -12 -35 -12q-25 0 -58.5 3t-56.5 3q-13 0 -45.5 -3t-60.5 -3q-39 0 -39 14zM377 518 q0 -8 16 -8h346q39 0 39 14q0 23 -80 224l-69 174q-40 100 -45 100q-8 0 -33 -66l-105 -256q-69 -169 -69 -182zM399 1372q0 6 19 25q39 39 67 61q26 23 37 23q2 0 31 -11q50 -19 137 -59.5t115 -56.5q10 -5 10 -13q0 -10 -16 -10q-9 0 -27 6q-41 12 -113.5 24t-123.5 18.5 t-60 6.5q-6 0 -26 -12q-17 -10 -35 -10q-15 0 -15 8z" />
<glyph unicode="&#xe1;" horiz-adv-x="1214" d="M0 8q0 6 23 10q30 4 58 39.5t48 81.5l416 1008q7 16 14.5 35t12 30t10 24t9 19.5t7.5 13t7.5 9t6.5 2.5q14 0 45 -78l406 -1044q34 -83 56 -109q21 -24 48 -31q4 -1 18 -3.5t21.5 -4.5t7.5 -6q0 -7 -9.5 -8.5t-43.5 -1.5q-24 0 -63 3t-74 3q-43 0 -77.5 -3t-45.5 -3 q-59 0 -59 8q0 11 45 16q51 6 51 60q0 36 -23 94l-84 217q-10 27 -26.5 40t-52.5 13h-357q-37 0 -47.5 -6.5t-23.5 -42.5l-76 -196q-29 -83 -29 -121q0 -51 35 -56q41 -6 41 -14q0 -12 -35 -12q-25 0 -58.5 3t-56.5 3q-13 0 -45.5 -3t-60.5 -3q-39 0 -39 14zM377 518 q0 -8 16 -8h346q39 0 39 14q0 23 -80 224l-69 174q-40 100 -45 100q-8 0 -33 -66l-105 -256q-69 -169 -69 -182zM420 1341q0 8 12 15q114 61 244 110q35 13 37 13q15 0 37 -19l65 -63q21 -21 21 -25q0 -8 -17 -8q-12 0 -31.5 11t-33.5 11q-7 0 -56 -6.5t-119 -19t-116 -23.5 q-24 -6 -29 -6q-14 0 -14 10z" />
<glyph unicode="&#xe2;" horiz-adv-x="1214" d="M0 8q0 6 23 10q30 4 58 39.5t48 81.5l416 1008q7 16 14.5 35t12 30t10 24t9 19.5t7.5 13t7.5 9t6.5 2.5q14 0 45 -78l406 -1044q34 -83 56 -109q21 -24 48 -31q4 -1 18 -3.5t21.5 -4.5t7.5 -6q0 -7 -9.5 -8.5t-43.5 -1.5q-24 0 -63 3t-74 3q-43 0 -77.5 -3t-45.5 -3 q-59 0 -59 8q0 11 45 16q51 6 51 60q0 36 -23 94l-84 217q-10 27 -26.5 40t-52.5 13h-357q-37 0 -47.5 -6.5t-23.5 -42.5l-76 -196q-29 -83 -29 -121q0 -51 35 -56q41 -6 41 -14q0 -12 -35 -12q-25 0 -58.5 3t-56.5 3q-13 0 -45.5 -3t-60.5 -3q-39 0 -39 14zM377 518 q0 -8 16 -8h346q39 0 39 14q0 23 -80 224l-69 174q-40 100 -45 100q-8 0 -33 -66l-105 -256q-69 -169 -69 -182zM412 1325q0 11 28 25l222 129q12 8 18 8q10 0 35 -19q25 -20 74.5 -51t66.5 -35q16 -3 16 -10q0 -3 -6.5 -8t-19 -13t-21.5 -16q-27 -24 -41 -24q-12 0 -36 12 l-119 74q-16 8 -19 8q-5 0 -22 -10l-115 -62q-2 -1 -11.5 -6.5t-20 -10.5t-17.5 -5q-12 0 -12 14z" />
<glyph unicode="&#xe3;" horiz-adv-x="1214" d="M0 8q0 6 23 10q30 4 58 39.5t48 81.5l416 1008q7 16 14.5 35t12 30t10 24t9 19.5t7.5 13t7.5 9t6.5 2.5q14 0 45 -78l406 -1044q34 -83 56 -109q21 -24 48 -31q4 -1 18 -3.5t21.5 -4.5t7.5 -6q0 -7 -9.5 -8.5t-43.5 -1.5q-24 0 -63 3t-74 3q-43 0 -77.5 -3t-45.5 -3 q-59 0 -59 8q0 11 45 16q51 6 51 60q0 36 -23 94l-84 217q-10 27 -26.5 40t-52.5 13h-357q-37 0 -47.5 -6.5t-23.5 -42.5l-76 -196q-29 -83 -29 -121q0 -51 35 -56q41 -6 41 -14q0 -12 -35 -12q-25 0 -58.5 3t-56.5 3q-13 0 -45.5 -3t-60.5 -3q-39 0 -39 14zM377 518 q0 -8 16 -8h346q39 0 39 14q0 23 -80 224l-69 174q-40 100 -45 100q-8 0 -33 -66l-105 -256q-69 -169 -69 -182zM397 1319q0 8 9 20q23 35 78 74t87 39q41 0 80 -14q23 -8 60.5 -28.5t50.5 -20.5q41 0 74 49q9 14 22 14q12 0 12 -18q0 -23 -43.5 -73t-74.5 -50 q-39 0 -102 33.5t-99 33.5q-54 0 -113 -51q-16 -16 -28 -16q-13 0 -13 8z" />
<glyph unicode="&#xe4;" horiz-adv-x="1214" d="M0 8q0 6 23 10q30 4 58 39.5t48 81.5l416 1008q7 16 14.5 35t12 30t10 24t9 19.5t7.5 13t7.5 9t6.5 2.5q14 0 45 -78l406 -1044q34 -83 56 -109q21 -24 48 -31q4 -1 18 -3.5t21.5 -4.5t7.5 -6q0 -7 -9.5 -8.5t-43.5 -1.5q-24 0 -63 3t-74 3q-43 0 -77.5 -3t-45.5 -3 q-59 0 -59 8q0 11 45 16q51 6 51 60q0 36 -23 94l-84 217q-10 27 -26.5 40t-52.5 13h-357q-37 0 -47.5 -6.5t-23.5 -42.5l-76 -196q-29 -83 -29 -121q0 -51 35 -56q41 -6 41 -14q0 -12 -35 -12q-25 0 -58.5 3t-56.5 3q-13 0 -45.5 -3t-60.5 -3q-39 0 -39 14zM377 518 q0 -8 16 -8h346q39 0 39 14q0 23 -80 224l-69 174q-40 100 -45 100q-8 0 -33 -66l-105 -256q-69 -169 -69 -182zM377 1382q0 31 22.5 51.5t57.5 20.5t57.5 -18.5t22.5 -49.5q0 -34 -22 -54.5t-60 -20.5q-36 0 -57 19t-21 52zM696 1382q0 31 22 51.5t56 20.5t57 -18.5 t23 -49.5q0 -34 -22.5 -54.5t-59.5 -20.5q-35 0 -55.5 19.5t-20.5 51.5z" />
<glyph unicode="&#xe5;" horiz-adv-x="1214" d="M0 8q0 6 23 10q30 4 58 39.5t48 81.5l416 1008q7 16 14.5 35t12 30t10 24t9 19.5t7.5 13t7.5 9t6.5 2.5q14 0 45 -78l406 -1044q34 -83 56 -109q21 -24 48 -31q4 -1 18 -3.5t21.5 -4.5t7.5 -6q0 -7 -9.5 -8.5t-43.5 -1.5q-24 0 -63 3t-74 3q-43 0 -77.5 -3t-45.5 -3 q-59 0 -59 8q0 11 45 16q51 6 51 60q0 36 -23 94l-84 217q-10 27 -26.5 40t-52.5 13h-357q-37 0 -47.5 -6.5t-23.5 -42.5l-76 -196q-29 -83 -29 -121q0 -51 35 -56q41 -6 41 -14q0 -12 -35 -12q-25 0 -58.5 3t-56.5 3q-13 0 -45.5 -3t-60.5 -3q-39 0 -39 14zM377 518 q0 -8 16 -8h346q39 0 39 14q0 23 -80 224l-69 174q-40 100 -45 100q-8 0 -33 -66l-105 -256q-69 -169 -69 -182zM444 1430q0 57 51 88.5t115 31.5q39 0 77.5 -11t68.5 -38.5t30 -64.5q0 -60 -54 -92.5t-120 -32.5q-58 0 -113 33t-55 86zM522 1432q0 -35 27.5 -62t62.5 -27 q40 0 68.5 27t28.5 66q0 37 -29 60.5t-68 23.5q-40 0 -65 -24t-25 -64z" />
<glyph unicode="&#xe6;" horiz-adv-x="1595" d="M-18 8q2 6 22 10q31 4 68 39.5t67 81.5l652 1028q6 8 6 17q0 11 -38 16.5t-38 16.5q0 12 29 12q17 0 80 -5t96 -5q71 0 211 4t211 4q14 0 44 2t48 2q12 0 12 -14q0 -3 -1 -11t-1 -12l2 -59q0 -8 1 -20t1 -19q0 -17 -10 -17q-4 0 -8.5 3t-6.5 6.5l-6 10.5t-6 9 q-15 22 -46.5 33.5t-56.5 13.5t-65 2h-215q-22 0 -28.5 -4.5t-6.5 -26.5v-426q0 -8 1.5 -11.5t3 -4t6.5 -0.5h219q110 0 123 59q6 29 18 29q16 0 16 -35q0 -12 -3 -37.5t-3 -40.5q0 -19 2 -58t2 -64q0 -21 -14 -21q-3 0 -5.5 1.5t-4 5t-2 6.5t-1.5 7.5t-1 6.5q-3 21 -19 37 q-19 24 -86 24h-241q-7 0 -9 -2.5t-2 -13.5v-418q0 -46 25 -68q36 -32 170 -32q200 0 240 63q2 4 6 10.5t5.5 9t5 5t7.5 2.5q15 0 15 -15q0 -12 -9 -30l-28 -70q-12 -32 -19 -39q-12 -12 -49 -12q-119 0 -226 3t-173 3q-23 0 -86.5 -3t-112.5 -3q-41 0 -41 12q0 6 11 12 t26 7q69 4 84 43q22 56 22 356q0 12 -3.5 15t-16.5 3h-389q-23 0 -30 -3.5t-17 -20.5l-137 -221q-58 -98 -58 -138q0 -36 35 -39q8 -1 13 -2t12 -2.5t11 -4t3 -5.5q-2 -12 -37 -12q-25 0 -67.5 3t-65.5 3q-13 0 -47 -3t-62 -3q-8 0 -12 0.5t-10.5 1.5t-9.5 4t-2 8zM483 516 q0 -6 15 -6h354q14 0 17 3t3 17v588q0 17 -6 17q-3 0 -10 -11l-352 -567q-21 -31 -21 -41z" />
<glyph unicode="&#xe7;" horiz-adv-x="1300" d="M82 621q0 126 44 239.5t123.5 199.5t198 136.5t259.5 50.5q177 0 329 -37q98 -24 109 -24q3 0 8 4t10 4q13 0 13 -20q0 -8 -3.5 -31t-3.5 -41q0 -15 3.5 -48.5t3.5 -52.5q0 -28 -15 -28q-8 0 -13.5 7.5t-11.5 22.5t-10 21q-23 37 -43 57q-126 109 -415 109 q-111 0 -197.5 -43t-138.5 -116.5t-78.5 -165.5t-26.5 -197q0 -125 40.5 -240.5t114 -204.5t184.5 -142.5t243 -53.5q143 0 262 77q52 37 68 76q1 3 3.5 9.5t4.5 11t4.5 9.5t5.5 8t6 3q15 0 15 -22q0 -31 -25 -140q-1 -2 -2 -6t-1 -5.5t-1 -4t-1.5 -3.5l-1.5 -3t-2.5 -2.5 t-3 -2t-4.5 -2.5t-5.5 -2t-6.5 -3q-63 -23 -143.5 -37.5t-138.5 -14.5q-26 0 -37.5 -4t-20.5 -16l-24 -35q-15 -19 -15 -20q0 -4 23 -7q162 -13 162 -98q0 -24 -12.5 -47t-30.5 -40t-48.5 -34t-54.5 -28t-62 -24t-57 -18.5t-53 -15.5q-56 -14 -59 -14q-21 0 -21 12 q0 14 37 23q38 12 73 26.5t78.5 36.5t70 49.5t26.5 55.5q0 73 -123 73q-22 0 -22 15q0 9 28 49l23 33q10 13 10 18t-24 8q-295 14 -461 184.5t-166 465.5z" />
<glyph unicode="&#xe8;" horiz-adv-x="1011" d="M147 6q0 3 3 6t8 5.5t12 4.5t14 3q15 1 25 2.5t23 5.5t22 13t14 22q13 33 18 175.5t5 252.5v587q0 58 -23 84.5t-84 36.5q-24 4 -24 13q0 12 28 12q17 0 70 -5t86 -5q71 0 211 4t211 4q14 0 44 2t48 2q12 0 12 -14q0 -3 -1 -11t-1 -12l2 -59q0 -8 1 -20t1 -19 q0 -17 -10 -17q-5 0 -9 3.5t-10 14t-7 11.5q-12 17 -30.5 27.5t-44 15t-45 5.5t-48.5 1h-215q-22 0 -28.5 -4.5t-6.5 -26.5v-409v-16t2.5 -9.5t7.5 -6.5t14 -1h205q23 0 40.5 2t36 7.5t30.5 18t16 31.5q6 29 18 29q17 0 17 -35q0 -12 -3 -37.5t-3 -40.5q0 -19 2 -58t2 -64 q0 -21 -15 -21q-3 0 -5.5 1.5t-4 5t-2 6.5t-1.5 7.5t-1 6.5q-3 22 -18 37q-19 24 -86 24h-230q-14 0 -18 -6.5t-4 -24.5v-403q0 -46 24 -68q36 -32 170 -32q200 0 240 63q2 3 5 8.5t4.5 8t4 5.5t5.5 4t6 1q14 0 14 -15q0 -14 -8 -30l-29 -70q-13 -34 -18 -39 q-12 -12 -50 -12q-119 0 -226 3t-173 3q-23 0 -86.5 -3t-112.5 -3q-41 0 -41 12zM317 1352q0 5 19 24q44 44 67 62q25 22 37 22q4 0 31 -10q49 -19 136 -59.5t116 -57.5q10 -5 10 -12q0 -10 -16 -10q-9 0 -27 6q-41 12 -113.5 24t-123.5 18.5t-60 6.5q-7 0 -28.5 -11.5 t-32.5 -11.5q-15 0 -15 9z" />
<glyph unicode="&#xe9;" horiz-adv-x="1011" d="M147 6q0 3 3 6t8 5.5t12 4.5t14 3q15 1 25 2.5t23 5.5t22 13t14 22q13 33 18 175.5t5 252.5v587q0 58 -23 84.5t-84 36.5q-24 4 -24 13q0 12 28 12q17 0 70 -5t86 -5q71 0 211 4t211 4q14 0 44 2t48 2q12 0 12 -14q0 -3 -1 -11t-1 -12l2 -59q0 -8 1 -20t1 -19 q0 -17 -10 -17q-5 0 -9 3.5t-10 14t-7 11.5q-12 17 -30.5 27.5t-44 15t-45 5.5t-48.5 1h-215q-22 0 -28.5 -4.5t-6.5 -26.5v-409v-16t2.5 -9.5t7.5 -6.5t14 -1h205q23 0 40.5 2t36 7.5t30.5 18t16 31.5q6 29 18 29q17 0 17 -35q0 -12 -3 -37.5t-3 -40.5q0 -19 2 -58t2 -64 q0 -21 -15 -21q-3 0 -5.5 1.5t-4 5t-2 6.5t-1.5 7.5t-1 6.5q-3 22 -18 37q-19 24 -86 24h-230q-14 0 -18 -6.5t-4 -24.5v-403q0 -46 24 -68q36 -32 170 -32q200 0 240 63q2 3 5 8.5t4.5 8t4 5.5t5.5 4t6 1q14 0 14 -15q0 -14 -8 -30l-29 -70q-13 -34 -18 -39 q-12 -12 -50 -12q-119 0 -226 3t-173 3q-23 0 -86.5 -3t-112.5 -3q-41 0 -41 12zM379 1321q0 7 12 14q121 64 244 111q32 12 37 12q16 0 37 -18l65 -64l6.5 -5.5t10.5 -10t4 -8.5q0 -9 -17 -9q-12 0 -31.5 11.5t-33.5 11.5q-7 0 -56 -6.5t-119 -19t-116 -23.5q-24 -6 -29 -6 q-14 0 -14 10z" />
<glyph unicode="&#xea;" horiz-adv-x="1011" d="M147 6q0 3 3 6t8 5.5t12 4.5t14 3q15 1 25 2.5t23 5.5t22 13t14 22q13 33 18 175.5t5 252.5v587q0 58 -23 84.5t-84 36.5q-24 4 -24 13q0 12 28 12q17 0 70 -5t86 -5q71 0 211 4t211 4q14 0 44 2t48 2q12 0 12 -14q0 -3 -1 -11t-1 -12l2 -59q0 -8 1 -20t1 -19 q0 -17 -10 -17q-5 0 -9 3.5t-10 14t-7 11.5q-12 17 -30.5 27.5t-44 15t-45 5.5t-48.5 1h-215q-22 0 -28.5 -4.5t-6.5 -26.5v-409v-16t2.5 -9.5t7.5 -6.5t14 -1h205q23 0 40.5 2t36 7.5t30.5 18t16 31.5q6 29 18 29q17 0 17 -35q0 -12 -3 -37.5t-3 -40.5q0 -19 2 -58t2 -64 q0 -21 -15 -21q-3 0 -5.5 1.5t-4 5t-2 6.5t-1.5 7.5t-1 6.5q-3 22 -18 37q-19 24 -86 24h-230q-14 0 -18 -6.5t-4 -24.5v-403q0 -46 24 -68q36 -32 170 -32q200 0 240 63q2 3 5 8.5t4.5 8t4 5.5t5.5 4t6 1q14 0 14 -15q0 -14 -8 -30l-29 -70q-13 -34 -18 -39 q-12 -12 -50 -12q-119 0 -226 3t-173 3q-23 0 -86.5 -3t-112.5 -3q-41 0 -41 12zM336 1325q0 11 29 25l221 129q12 8 18 8q10 0 35 -19q25 -20 74.5 -51t66.5 -35q1 0 4 -1q5 -1 7 -1.5t4 -2.5t2 -5t-6.5 -8t-19 -13t-21.5 -16q-27 -24 -41 -24q-13 0 -37 12l-119 74 q-16 8 -18 8q-6 0 -23 -10l-115 -62q-2 -1 -11.5 -6.5t-20 -10.5t-17.5 -5q-12 0 -12 14z" />
<glyph unicode="&#xeb;" horiz-adv-x="1011" d="M147 6q0 3 3 6t8 5.5t12 4.5t14 3q15 1 25 2.5t23 5.5t22 13t14 22q13 33 18 175.5t5 252.5v587q0 58 -23 84.5t-84 36.5q-24 4 -24 13q0 12 28 12q17 0 70 -5t86 -5q71 0 211 4t211 4q14 0 44 2t48 2q12 0 12 -14q0 -3 -1 -11t-1 -12l2 -59q0 -8 1 -20t1 -19 q0 -17 -10 -17q-5 0 -9 3.5t-10 14t-7 11.5q-12 17 -30.5 27.5t-44 15t-45 5.5t-48.5 1h-215q-22 0 -28.5 -4.5t-6.5 -26.5v-409v-16t2.5 -9.5t7.5 -6.5t14 -1h205q23 0 40.5 2t36 7.5t30.5 18t16 31.5q6 29 18 29q17 0 17 -35q0 -12 -3 -37.5t-3 -40.5q0 -19 2 -58t2 -64 q0 -21 -15 -21q-3 0 -5.5 1.5t-4 5t-2 6.5t-1.5 7.5t-1 6.5q-3 22 -18 37q-19 24 -86 24h-230q-14 0 -18 -6.5t-4 -24.5v-403q0 -46 24 -68q36 -32 170 -32q200 0 240 63q2 3 5 8.5t4.5 8t4 5.5t5.5 4t6 1q14 0 14 -15q0 -14 -8 -30l-29 -70q-13 -34 -18 -39 q-12 -12 -50 -12q-119 0 -226 3t-173 3q-23 0 -86.5 -3t-112.5 -3q-41 0 -41 12zM317 1382q0 31 22.5 51.5t57.5 20.5t57.5 -18.5t22.5 -49.5q0 -34 -22 -54.5t-60 -20.5q-36 0 -57 19t-21 52zM637 1382q0 15 6 28.5t16 23t24.5 15t31.5 5.5q34 0 57 -18.5t23 -49.5 q0 -34 -22.5 -54.5t-59.5 -20.5q-35 0 -55.5 19.5t-20.5 51.5z" />
<glyph unicode="&#xec;" horiz-adv-x="704" d="M143 1352q0 5 19 24q44 44 67 62q25 22 37 22q4 0 31 -10q49 -19 136 -59.5t116 -57.5q10 -5 10 -12q0 -10 -16 -10q-9 0 -27 6q-41 12 -113.5 24t-123.5 18.5t-60 6.5q-7 0 -28.5 -11.5t-32.5 -11.5q-15 0 -15 9zM168 1217q0 5 9.5 8.5t23.5 3.5q9 0 62 -5t91 -5 q42 0 81 6t61 6q39 0 39 -12q0 -9 -37 -17q-3 -1 -9.5 -3t-11.5 -3.5t-11 -3.5t-9 -4q-17 -11 -26.5 -36t-11 -45.5t-1.5 -51.5v-809q0 -37 0.5 -59t4 -51.5t10 -48t18.5 -35.5t30 -27q3 -2 17 -4.5t28 -4t25.5 -5t11.5 -7.5q0 -12 -24 -12q-23 0 -54 2t-64 4t-61 2 q-19 0 -64.5 -3t-86.5 -3q-33 0 -33 12q0 2 1.5 4t5.5 3.5t7 2.5t8.5 2t8.5 2q45 15 61 29q23 21 23 166v844q0 70 -15.5 101.5t-68.5 39.5q-39 8 -39 17z" />
<glyph unicode="&#xed;" horiz-adv-x="704" d="M143 1321q0 6 13 14q124 65 243 111q32 12 37 12q16 0 37 -18l66 -64q20 -20 20 -24q0 -9 -16 -9q-12 0 -32 11.5t-34 11.5q-7 0 -56 -6.5t-119 -19t-116 -23.5q-24 -6 -28 -6q-15 0 -15 10zM168 1217q0 12 33 12q9 0 62 -5t91 -5q42 0 81 6t61 6q39 0 39 -12 q0 -9 -37 -17q-40 -13 -41 -14q-39 -24 -39 -133v-809q0 -63 2.5 -97.5t17 -71t43.5 -52.5q4 -3 25 -5.5t39 -6.5t18 -9q0 -12 -24 -12q-26 0 -85.5 4t-93.5 4q-19 0 -64.5 -3t-86.5 -3q-33 0 -33 12q0 2 1.5 4t5.5 3.5t7 2.5t8.5 2t8.5 2q45 15 61 29q23 21 23 166v844 q0 70 -15.5 101.5t-68.5 39.5q-39 8 -39 17z" />
<glyph unicode="&#xee;" horiz-adv-x="704" d="M141 1325q0 11 29 25l221 129q12 8 19 8q9 0 34 -19q25 -20 75 -51t67 -35q16 -3 16 -10q0 -3 -6.5 -8t-19 -13t-21.5 -16q-27 -24 -41 -24q-13 0 -37 12l-119 74q-16 8 -18 8q-6 0 -23 -10l-114 -62q-2 -1 -11.5 -6.5t-20 -10.5t-17.5 -5q-13 0 -13 14zM168 1217 q0 12 33 12q9 0 62 -5t91 -5q42 0 81 6t61 6q39 0 39 -12q0 -9 -37 -17q-40 -13 -41 -14q-39 -24 -39 -133v-809q0 -63 2.5 -97.5t17 -71t43.5 -52.5q4 -3 25 -5.5t39 -6.5t18 -9q0 -12 -24 -12q-26 0 -85.5 4t-93.5 4q-19 0 -64.5 -3t-86.5 -3q-33 0 -33 12q0 2 1.5 4 t5.5 3.5t7 2.5t8.5 2t8.5 2q45 15 61 29q23 21 23 166v844q0 70 -15.5 101.5t-68.5 39.5q-39 8 -39 17z" />
<glyph unicode="&#xef;" horiz-adv-x="704" d="M117 1382q0 31 22.5 51.5t57.5 20.5t57 -18t22 -50q0 -34 -21.5 -54.5t-59.5 -20.5q-36 0 -57 19t-21 52zM168 1217q0 12 33 12q9 0 62 -5t91 -5q42 0 81 6t61 6q39 0 39 -12q0 -9 -37 -17q-40 -13 -41 -14q-39 -24 -39 -133v-809q0 -63 2.5 -97.5t17 -71t43.5 -52.5 q4 -3 25 -5.5t39 -6.5t18 -9q0 -12 -24 -12q-26 0 -85.5 4t-93.5 4q-19 0 -64.5 -3t-86.5 -3q-33 0 -33 12q0 2 1.5 4t5.5 3.5t7 2.5t8.5 2t8.5 2q45 15 61 29q23 21 23 166v844q0 70 -15.5 101.5t-68.5 39.5q-39 8 -39 17zM436 1382q0 31 22 51.5t56 20.5t57 -18.5 t23 -49.5q0 -34 -22.5 -54.5t-59.5 -20.5q-35 0 -55.5 19.5t-20.5 51.5z" />
<glyph unicode="&#xf0;" horiz-adv-x="1462" d="M143 612q0 5 4 17l9 28q4 17 22 17h80q20 0 25.5 6t5.5 27v360q0 63 -22.5 96.5t-84.5 36.5q-24 0 -24 12q0 15 51 15q20 0 65.5 -4t73.5 -4q58 0 184.5 6t200.5 6q89 0 189 -18t165 -54q140 -75 216.5 -219.5t76.5 -304.5q0 -297 -173 -473t-484 -176q-86 0 -196 7 t-173 7q-19 0 -71 -3t-93 -3q-30 0 -30 12q0 4 8.5 6.5t20.5 4t14 1.5q45 7 61 37q25 45 25 213v303q0 21 -5.5 25t-25.5 4h-86q-11 0 -16 0.5t-9 3t-4 8.5zM416 383q0 -266 41 -287q109 -59 293 -59q258 0 378.5 144t120.5 405q0 156 -80 304.5t-215 221.5q-59 32 -143 48 t-160 16h-157q-45 0 -61.5 -11.5t-16.5 -60.5v-399q0 -20 6 -25.5t24 -5.5h310q22 0 28.5 -2.5t6.5 -9.5t-5 -17l-8 -27q-4 -12 -10.5 -15t-22.5 -3h-299q-21 0 -25.5 -5t-4.5 -28v-184z" />
<glyph unicode="&#xf1;" horiz-adv-x="1607" d="M143 6q0 3 16 7.5t34.5 8.5t21.5 7q20 18 30.5 79.5t10.5 106.5v778q0 29 -0.5 72t-1 75t-0.5 36q0 61 22 61q20 0 62 -47l907 -954q13 -13 19 -13q8 0 8 33l-10 696q0 47 -8 125.5t-21 96.5q-12 17 -33.5 25.5t-36 12t-14.5 9.5q0 10 22 10q30 0 71 -6t73 -6 q12 0 52.5 4t68.5 4t28 -8q0 -5 -11.5 -9t-28.5 -8.5t-25 -9.5q-19 -11 -26 -91t-7 -138v-951q0 -47 -18 -47q-20 0 -50 35l-909 952q-23 23 -27 23q-8 0 -8 -31v-735q0 -44 13 -98t39 -76q14 -9 43 -19q2 -1 7.5 -1.5t10.5 -1.5t9.5 -3.5t4.5 -5.5q0 -12 -41 -12 q-18 0 -63 4t-70 4q-18 0 -58 -3t-73 -3t-33 12zM567 1319q0 9 8 20q23 35 78.5 74t87.5 39q41 0 80 -14q17 -6 35 -15t30.5 -16t24.5 -12.5t21 -5.5q19 0 35 9.5t23 18t16 21.5q9 14 22 14q12 0 12 -18q0 -23 -43.5 -73t-74.5 -50q-32 0 -67.5 17t-69.5 33.5t-64 16.5 q-54 0 -113 -51q-16 -16 -28 -16q-13 0 -13 8z" />
<glyph unicode="&#xf2;" horiz-adv-x="1413" d="M82 598q0 112 20 186q54 197 212.5 330t363.5 133q148 0 246 -33q187 -65 297 -225t110 -354q0 -109 -23 -207t-71.5 -182t-118.5 -145t-169 -95.5t-218 -34.5q-291 0 -470 173.5t-179 453.5zM225 666q0 -92 20.5 -182.5t64 -172.5t104.5 -145t147.5 -100t186.5 -37 q213 0 329.5 131.5t116.5 341.5q0 78 -12.5 156.5t-38 156.5t-68 145t-97.5 119t-132 81.5t-166 29.5q-114 0 -203 -42.5t-143 -116.5t-81.5 -166.5t-27.5 -198.5zM498 1352q0 6 18 24q40 40 68 62q25 22 37 22q3 0 30 -10q49 -19 136 -59.5t116 -57.5q10 -5 10 -12 q0 -10 -16 -10q-9 0 -27 6q-41 12 -113.5 24t-123.5 18.5t-60 6.5q-7 0 -28.5 -11.5t-32.5 -11.5q-14 0 -14 9z" />
<glyph unicode="&#xf3;" horiz-adv-x="1413" d="M82 598q0 112 20 186q54 197 212.5 330t363.5 133q148 0 246 -33q187 -65 297 -225t110 -354q0 -109 -23 -207t-71.5 -182t-118.5 -145t-169 -95.5t-218 -34.5q-291 0 -470 173.5t-179 453.5zM225 666q0 -92 20.5 -182.5t64 -172.5t104.5 -145t147.5 -100t186.5 -37 q213 0 329.5 131.5t116.5 341.5q0 78 -12.5 156.5t-38 156.5t-68 145t-97.5 119t-132 81.5t-166 29.5q-114 0 -203 -42.5t-143 -116.5t-81.5 -166.5t-27.5 -198.5zM498 1321q0 7 12 14q121 64 244 111q32 12 37 12q15 0 36 -18l66 -64q20 -20 20 -24q0 -9 -16 -9 q-12 0 -32 11.5t-34 11.5q-7 0 -55.5 -6.5t-118.5 -19t-116 -23.5q-24 -6 -29 -6q-14 0 -14 10z" />
<glyph unicode="&#xf4;" horiz-adv-x="1413" d="M82 598q0 112 20 186q54 197 212.5 330t363.5 133q148 0 246 -33q187 -65 297 -225t110 -354q0 -109 -23 -207t-71.5 -182t-118.5 -145t-169 -95.5t-218 -34.5q-291 0 -470 173.5t-179 453.5zM225 666q0 -92 20.5 -182.5t64 -172.5t104.5 -145t147.5 -100t186.5 -37 q213 0 329.5 131.5t116.5 341.5q0 78 -12.5 156.5t-38 156.5t-68 145t-97.5 119t-132 81.5t-166 29.5q-114 0 -203 -42.5t-143 -116.5t-81.5 -166.5t-27.5 -198.5zM475 1325q0 11 29 25l221 129q12 8 18 8q10 0 35 -19q25 -20 75 -51t67 -35q16 -3 16 -10q0 -3 -6.5 -8 t-19 -13t-21.5 -16q-27 -24 -41 -24q-13 0 -37 12l-119 74q-16 8 -18 8q-6 0 -23 -10l-114 -62q-2 -1 -11.5 -6.5t-20.5 -10.5t-18 -5q-12 0 -12 14z" />
<glyph unicode="&#xf5;" horiz-adv-x="1413" d="M82 598q0 112 20 186q54 197 212.5 330t363.5 133q148 0 246 -33q187 -65 297 -225t110 -354q0 -109 -23 -207t-71.5 -182t-118.5 -145t-169 -95.5t-218 -34.5q-291 0 -470 173.5t-179 453.5zM225 666q0 -92 20.5 -182.5t64 -172.5t104.5 -145t147.5 -100t186.5 -37 q213 0 329.5 131.5t116.5 341.5q0 78 -12.5 156.5t-38 156.5t-68 145t-97.5 119t-132 81.5t-166 29.5q-114 0 -203 -42.5t-143 -116.5t-81.5 -166.5t-27.5 -198.5zM469 1319q0 9 8 20q23 35 78.5 74t87.5 39q41 0 80 -14q23 -8 60.5 -28.5t50.5 -20.5q40 0 73 49q9 14 23 14 q12 0 12 -18q0 -23 -44 -73t-75 -50q-39 0 -101.5 33.5t-98.5 33.5q-54 0 -113 -51q-16 -16 -29 -16q-12 0 -12 8z" />
<glyph unicode="&#xf6;" horiz-adv-x="1413" d="M82 598q0 112 20 186q54 197 212.5 330t363.5 133q148 0 246 -33q187 -65 297 -225t110 -354q0 -109 -23 -207t-71.5 -182t-118.5 -145t-169 -95.5t-218 -34.5q-291 0 -470 173.5t-179 453.5zM225 666q0 -92 20.5 -182.5t64 -172.5t104.5 -145t147.5 -100t186.5 -37 q213 0 329.5 131.5t116.5 341.5q0 78 -12.5 156.5t-38 156.5t-68 145t-97.5 119t-132 81.5t-166 29.5q-114 0 -203 -42.5t-143 -116.5t-81.5 -166.5t-27.5 -198.5zM467 1382q0 31 22.5 51.5t57.5 20.5t57.5 -18.5t22.5 -49.5q0 -34 -22 -54.5t-60 -20.5q-36 0 -57 19t-21 52 zM786 1382q0 31 22 51.5t56 20.5t57 -18.5t23 -49.5q0 -34 -22.5 -54.5t-59.5 -20.5q-35 0 -55.5 19.5t-20.5 51.5z" />
<glyph unicode="&#xf7;" horiz-adv-x="1019" d="M102 670v96h816v-96h-816zM420 426q0 43 26 70.5t66 27.5q41 0 69.5 -27t28.5 -67q0 -42 -27 -69.5t-71 -28.5q-40 0 -66 27t-26 67zM420 1006q0 43 26 70.5t66 27.5q41 0 69.5 -27t28.5 -67q0 -42 -27 -71t-71 -30q-39 0 -65.5 28.5t-26.5 68.5z" />
<glyph unicode="&#xf8;" horiz-adv-x="1413" d="M82 598q0 112 20 186q54 197 212.5 330t363.5 133q148 0 246 -33q82 -29 143 -73l70 84q11 14 18 14q2 0 19 -10l36 -25q11 -7 11 -12q0 -8 -13 -21l-71 -86q92 -86 143 -203.5t51 -246.5q0 -109 -23 -207t-71.5 -182t-118.5 -145t-169 -95.5t-218 -34.5q-255 0 -426 135 l-108 -129q-11 -14 -21 -14q-8 0 -22 14l-25 23q-8 8 -8 12q0 6 20 29l103 121q-162 170 -162 436zM225 666q0 -224 109 -398l663 791q-131 131 -317 131q-114 0 -203 -42.5t-143 -116.5t-81.5 -166.5t-27.5 -198.5zM383 199q143 -170 365 -170q213 0 329.5 131.5 t116.5 341.5q0 130 -35 259t-104 228z" />
<glyph unicode="&#xf9;" horiz-adv-x="1449" d="M102 1210q0 15 31 15q18 0 66 -3t86 -3q31 0 84 4t88 4q30 0 30 -10q0 -5 -7.5 -8.5t-21 -6.5t-20.5 -6q-33 -13 -49.5 -28.5t-26.5 -53.5t-10 -106v-545q0 -201 104.5 -317.5t280.5 -116.5q187 0 300.5 112t113.5 322v479q0 129 -20.5 185.5t-79.5 66.5q-5 1 -22 2.5 t-26.5 4.5t-9.5 9q0 15 37 15q19 0 71 -3t93 -3q31 0 75.5 2t71.5 2t27 -13q0 -12 -29 -12q-32 0 -53 -16.5t-30 -50.5t-12 -68t-3 -88v-469q0 -255 -129 -395t-391 -140q-235 0 -369.5 114.5t-134.5 348.5v613q0 106 -14 122q-16 16 -66 27q-4 1 -10.5 2t-10 2t-7.5 2 t-5.5 3t-1.5 5zM516 1352q0 5 19 24q44 44 67 62q25 22 37 22q4 0 31 -10q49 -19 136 -59.5t116 -57.5q10 -5 10 -12q0 -10 -17 -10q-8 0 -26 6q-41 12 -113.5 24t-123.5 18.5t-60 6.5q-7 0 -29 -11.5t-33 -11.5q-14 0 -14 9z" />
<glyph unicode="&#xfa;" horiz-adv-x="1449" d="M102 1210q0 15 31 15q18 0 66 -3t86 -3q31 0 84 4t88 4q30 0 30 -10q0 -5 -7.5 -8.5t-21 -6.5t-20.5 -6q-33 -13 -49.5 -28.5t-26.5 -53.5t-10 -106v-545q0 -201 104.5 -317.5t280.5 -116.5q187 0 300.5 112t113.5 322v479q0 129 -20.5 185.5t-79.5 66.5q-5 1 -22 2.5 t-26.5 4.5t-9.5 9q0 15 37 15q19 0 71 -3t93 -3q31 0 75.5 2t71.5 2t27 -13q0 -12 -29 -12q-32 0 -53 -16.5t-30 -50.5t-12 -68t-3 -88v-469q0 -255 -129 -395t-391 -140q-235 0 -369.5 114.5t-134.5 348.5v613q0 106 -14 122q-16 16 -66 27q-4 1 -10.5 2t-10 2t-7.5 2 t-5.5 3t-1.5 5zM516 1321q0 7 12 14q121 64 244 111q32 12 37 12q16 0 37 -18l65 -64l7 -6q6 -5 10 -9.5t4 -8.5q0 -9 -17 -9q-12 0 -31.5 11.5t-33.5 11.5q-7 0 -56 -6.5t-119 -19t-116 -23.5q-24 -6 -29 -6q-14 0 -14 10z" />
<glyph unicode="&#xfb;" horiz-adv-x="1449" d="M102 1210q0 15 31 15q18 0 66 -3t86 -3q31 0 84 4t88 4q30 0 30 -10q0 -5 -7.5 -8.5t-21 -6.5t-20.5 -6q-33 -13 -49.5 -28.5t-26.5 -53.5t-10 -106v-545q0 -201 104.5 -317.5t280.5 -116.5q187 0 300.5 112t113.5 322v479q0 129 -20.5 185.5t-79.5 66.5q-5 1 -22 2.5 t-26.5 4.5t-9.5 9q0 15 37 15q19 0 71 -3t93 -3q31 0 75.5 2t71.5 2t27 -13q0 -12 -29 -12q-32 0 -53 -16.5t-30 -50.5t-12 -68t-3 -88v-469q0 -255 -129 -395t-391 -140q-235 0 -369.5 114.5t-134.5 348.5v613q0 106 -14 122q-16 16 -66 27q-4 1 -10.5 2t-10 2t-7.5 2 t-5.5 3t-1.5 5zM494 1325q0 11 28 25l221 129q12 8 19 8q10 0 35 -19q25 -20 74.5 -51t66.5 -35q16 -3 16 -10q0 -3 -6.5 -8t-19 -13t-21.5 -16q-27 -24 -41 -24q-13 0 -37 12l-118 74q-16 8 -19 8q-5 0 -22 -10l-115 -62q-2 -1 -11.5 -6.5t-20 -10.5t-17.5 -5q-12 0 -12 14 z" />
<glyph unicode="&#xfc;" horiz-adv-x="1449" d="M102 1210q0 15 31 15q18 0 66 -3t86 -3q31 0 84 4t88 4q30 0 30 -10q0 -5 -7.5 -8.5t-21 -6.5t-20.5 -6q-33 -13 -49.5 -28.5t-26.5 -53.5t-10 -106v-545q0 -201 104.5 -317.5t280.5 -116.5q187 0 300.5 112t113.5 322v479q0 129 -20.5 185.5t-79.5 66.5q-5 1 -22 2.5 t-26.5 4.5t-9.5 9q0 15 37 15q19 0 71 -3t93 -3q31 0 75.5 2t71.5 2t27 -13q0 -12 -29 -12q-32 0 -53 -16.5t-30 -50.5t-12 -68t-3 -88v-469q0 -255 -129 -395t-391 -140q-235 0 -369.5 114.5t-134.5 348.5v613q0 106 -14 122q-16 16 -66 27q-4 1 -10.5 2t-10 2t-7.5 2 t-5.5 3t-1.5 5zM485 1382q0 31 22.5 51.5t57.5 20.5t57.5 -18.5t22.5 -49.5q0 -34 -22 -54.5t-60 -20.5q-36 0 -57 19t-21 52zM805 1382q0 31 22 51.5t56 20.5t57 -18.5t23 -49.5q0 -34 -22.5 -54.5t-59.5 -20.5q-35 0 -55.5 19.5t-20.5 51.5z" />
<glyph unicode="&#xfd;" horiz-adv-x="1157" d="M-41 1214q0 15 51 15q35 0 79 -5t69 -5q15 0 65.5 6t69.5 6q45 0 45 -8t-28.5 -16.5t-28.5 -24.5q0 -45 36 -97l267 -391q24 -35 34 -35q2 0 4 0.5t4 3t4 4t5 6l5 7.5t6 9.5t7 10.5l203 304q44 66 59 101.5t15 74.5q0 11 -4 17.5t-9.5 9t-9.5 5t-4 5.5q0 8 21 8 q6 0 38 -3t70 -3q4 0 45.5 6t65.5 6q55 0 55 -12q0 -11 -22 -11q-26 0 -56 -12q-24 -8 -54.5 -40.5t-86.5 -117.5l-293 -438q-3 -4 -9 -13t-8.5 -13t-6 -11.5t-4.5 -15t-1 -17.5v-358q0 -100 37 -125q30 -20 84 -31q29 -4 29 -12q0 -10 -43 -10q-32 0 -84.5 3t-81.5 3 q-17 0 -62 -2t-81 -2q-45 0 -45 10q0 5 7 7t20 3.5t20 3.5q75 21 75 160v344q0 26 -30 68l-359 518q-51 73 -102 82q-13 2 -29 4.5t-24 4t-15.5 3.5t-10.5 4t-3 6zM371 1321q0 7 12 14q121 64 244 111q32 12 37 12q15 0 36 -18l66 -64q20 -20 20 -24q0 -9 -16 -9 q-12 0 -31.5 11.5t-33.5 11.5q-7 0 -56 -6.5t-119 -19t-116 -23.5q-24 -6 -29 -6q-14 0 -14 10z" />
<glyph unicode="&#xfe;" horiz-adv-x="1087" d="M166 0q0 8 22 12q49 7 76 41q27 37 27 191v837q0 52 -6.5 72.5t-30.5 34.5q-9 6 -28 9t-31.5 6.5t-12.5 10.5q0 13 21 13q18 0 66.5 -4t86.5 -4q22 0 69 5t73 5q37 0 37 -12q0 -10 -14 -12.5t-35.5 -6.5t-34.5 -14q-16 -13 -23.5 -30.5t-8.5 -31t-1 -41.5v-59 q0 -27 28 -27q45 0 82 3t60 3q112 0 192 -28q104 -37 165 -116.5t61 -182.5t-39 -190.5t-120 -144t-190 -56.5q-24 0 -72 7t-48 17q0 8 10 8q6 0 32 -5t52 -5q68 0 126 42t83 106q22 53 22 141q0 169 -83 258.5t-253 89.5h-80q-21 0 -24.5 -20t-3.5 -113v-412 q0 -313 26 -346q38 -41 97 -41q22 0 22 -10q0 -12 -49 -12q-29 0 -80 6t-78 6q-35 0 -84.5 -4t-74.5 -4q-31 0 -31 8z" />
<glyph unicode="&#xff;" horiz-adv-x="1157" d="M-41 1214q0 15 51 15q35 0 79 -5t69 -5q15 0 65.5 6t69.5 6q45 0 45 -8t-28.5 -16.5t-28.5 -24.5q0 -45 36 -97l267 -391q24 -35 34 -35q2 0 4 0.5t4 3t4 4t5 6l5 7.5t6 9.5t7 10.5l203 304q44 66 59 101.5t15 74.5q0 11 -4 17.5t-9.5 9t-9.5 5t-4 5.5q0 8 21 8 q6 0 38 -3t70 -3q4 0 45.5 6t65.5 6q55 0 55 -12q0 -11 -22 -11q-26 0 -56 -12q-24 -8 -54.5 -40.5t-86.5 -117.5l-293 -438q-3 -4 -9 -13t-8.5 -13t-6 -11.5t-4.5 -15t-1 -17.5v-358q0 -100 37 -125q30 -20 84 -31q29 -4 29 -12q0 -10 -43 -10q-32 0 -84.5 3t-81.5 3 q-17 0 -62 -2t-81 -2q-45 0 -45 10q0 5 7 7t20 3.5t20 3.5q75 21 75 160v344q0 26 -30 68l-359 518q-51 73 -102 82q-13 2 -29 4.5t-24 4t-15.5 3.5t-10.5 4t-3 6zM340 1382q0 31 22.5 51.5t57.5 20.5t57.5 -18.5t22.5 -49.5q0 -34 -22 -54.5t-60 -20.5q-36 0 -57 19t-21 52 zM659 1382q0 31 22 51.5t56 20.5t57 -18.5t23 -49.5q0 -34 -22.5 -54.5t-59.5 -20.5q-35 0 -55.5 19.5t-20.5 51.5z" />
<glyph unicode="&#x152;" horiz-adv-x="1843" d="M82 705q0 131 22 221q58 236 235.5 388t416.5 152q83 0 187 -16t161 -16q80 0 240.5 5t240.5 5q17 0 52 2t53 2q8 0 8 -14q0 -6 -1 -18t-1 -17q0 -17 2 -53t2 -54q0 -12 -8 -12t-17 14q-15 28 -30 38.5t-54 21.5q-47 12 -116 12h-248q-21 0 -28.5 -1.5t-12 -10 t-4.5 -27.5v-483q0 -26 5 -33.5t30 -7.5h233q94 0 119 22q19 16 26 39q0 1 1.5 7.5t2.5 11.5t3 11t4.5 9.5t5.5 3.5q10 0 10 -39q0 -16 -3 -46t-3 -46q0 -24 2 -72t2 -73q0 -21 -8 -21q-4 0 -7 7.5t-4.5 19t-1.5 12.5q-6 17 -20 35q-23 29 -102 29h-265q-20 0 -25 -7.5 t-5 -29.5v-479q0 -54 28 -80q43 -39 201 -39q224 0 277 74q2 3 5.5 9t6 10t6 7.5t6.5 3.5q8 0 8 -8q0 -20 -23 -86.5t-36 -79.5q-14 -14 -51 -14q-70 0 -229 3t-228 3q-54 0 -164 -16.5t-172 -16.5q-329 0 -532 204.5t-203 533.5zM233 782q0 -108 23.5 -215t73.5 -204 t120 -171.5t170 -118.5t216 -44q80 0 145 16q37 11 43 25q15 39 21 212t6 302v694q0 25 -4.5 34t-24.5 21q-119 72 -264 72q-132 0 -235 -50.5t-165 -138t-93.5 -197.5t-31.5 -237z" />
<glyph unicode="&#x153;" horiz-adv-x="1671" d="M82 598q0 112 20 186q54 197 212.5 330t363.5 133q76 0 172 -14t151 -14q62 0 201 4t221 4q14 0 44.5 2t48.5 2q12 0 12 -14q0 -3 -1 -11t-1 -12l2 -59q0 -8 1 -20t1 -19q0 -17 -10 -17q-4 0 -8.5 3t-6.5 6.5l-6 10.5t-6 9q-15 22 -46.5 33.5t-56.5 13.5t-65 2h-215 q-22 0 -28.5 -4.5t-6.5 -26.5v-409q0 -21 3.5 -27t21.5 -6h205q109 0 122 59q6 29 19 29q16 0 16 -35q0 -12 -3 -37.5t-3 -40.5q0 -19 2 -58t2 -64q0 -21 -14 -21q-3 0 -5.5 1.5t-4 5t-2 6.5t-1.5 7.5t-1 6.5q-3 21 -19 37q-19 24 -86 24h-229q-14 0 -18.5 -6.5t-4.5 -24.5 v-403q0 -46 25 -68q36 -32 170 -32q199 0 239 63q2 3 5 8.5t4.5 8t4 5.5t5.5 4t6 1q14 0 14 -15q0 -14 -8 -30l-29 -70q-13 -34 -18 -39q-12 -12 -49 -12q-119 0 -226.5 3t-173.5 3q-69 0 -164.5 -14.5t-148.5 -14.5q-291 0 -470 173.5t-179 453.5zM225 666 q0 -92 20.5 -182.5t64 -172.5t104.5 -145t147.5 -100t186.5 -37q48 0 80.5 3.5t55 15t35 24.5t19.5 40t8.5 53t1.5 71v839q0 45 -87 80t-181 35q-114 0 -203 -42.5t-143 -116.5t-81.5 -166.5t-27.5 -198.5z" />
<glyph unicode="&#x178;" horiz-adv-x="1318" d="M-61 1432q0 14 51 14q27 0 83 -6t85 -6q27 0 78.5 7t76.5 7q43 0 43 -8q0 -4 -10 -7.5t-22.5 -6.5t-22.5 -11.5t-10 -21.5q0 -48 43 -115l287 -432q3 -4 7 -11q41 -59 52 -64l6 -1q14 0 45 51l230 361q43 68 64.5 125t21.5 84q0 20 -15.5 31t-15.5 12q0 8 16 8 q14 0 44 -4t44 -4q26 0 80 7t82 7q57 0 57 -16q0 -7 -18 -7q-31 0 -66 -12q-30 -11 -83.5 -74t-118.5 -165l-273 -431q-2 -2 -10 -13.5t-10.5 -14.5t-9.5 -13.5t-9 -15t-6.5 -14t-6.5 -16t-3.5 -15t-1.5 -16.5v-424q0 -113 43 -150q24 -20 56 -29t50.5 -11.5t18.5 -8.5 q0 -10 -41 -10q-30 0 -91 4t-91 4q-28 0 -86 -2t-86 -2q-43 0 -43 8q0 5 8 8t22.5 5t18.5 3q52 16 71 65t19 124v407q0 9 -1.5 17t-3.5 13.5t-6.5 13.5t-7 11.5t-9 13t-9.5 13.5l-408 613q-26 37 -44.5 55.5t-49.5 32.5q-16 7 -88 22q-6 0 -16 3t-10 8zM428 1616 q0 35 23.5 58.5t58.5 23.5t58.5 -21t23.5 -55q0 -39 -22.5 -63.5t-61.5 -24.5q-36 0 -58 23t-22 59zM782 1616q0 35 23.5 58.5t58.5 23.5t58.5 -21t23.5 -55q0 -39 -23 -63.5t-61 -24.5q-36 0 -58 23t-22 59z" />
<glyph unicode="&#x2c6;" horiz-adv-x="499" d="M0 1548q0 16 27 29q30 16 132.5 80.5t114.5 71.5q12 8 21 8q3 0 31 -21q10 -6 54 -37t71.5 -48t37.5 -17q11 0 11 -8q0 -5 -40.5 -38.5t-51.5 -33.5q-9 0 -97 56.5t-92 56.5q-6 0 -16.5 -4.5t-26 -13t-30 -17t-35 -20.5t-33.5 -19q-12 -6 -26.5 -15.5t-23 -14.5t-12.5 -5 q-16 0 -16 10z" />
<glyph unicode="&#x2dc;" horiz-adv-x="516" d="M0 1536q0 29 74 92.5t114 63.5q44 0 88 -19t76.5 -38t48.5 -19q33 0 55 19t33 38t15 19q12 0 12 -19q0 -28 -46 -82.5t-81 -54.5q-44 0 -85 18.5t-75.5 37t-62.5 18.5q-31 0 -60 -12.5t-46 -27.5t-31.5 -27.5t-20.5 -12.5q-8 0 -8 6z" />
<glyph unicode="&#x2000;" horiz-adv-x="906" />
<glyph unicode="&#x2001;" horiz-adv-x="1812" />
<glyph unicode="&#x2002;" horiz-adv-x="906" />
<glyph unicode="&#x2003;" horiz-adv-x="1812" />
<glyph unicode="&#x2004;" horiz-adv-x="604" />
<glyph unicode="&#x2005;" horiz-adv-x="453" />
<glyph unicode="&#x2006;" horiz-adv-x="302" />
<glyph unicode="&#x2007;" horiz-adv-x="302" />
<glyph unicode="&#x2008;" horiz-adv-x="226" />
<glyph unicode="&#x2009;" horiz-adv-x="362" />
<glyph unicode="&#x200a;" horiz-adv-x="100" />
<glyph unicode="&#x2010;" horiz-adv-x="696" d="M123 686q0 4 1.5 7.5t5.5 6.5l6 4.5t7.5 4.5t6.5 4l352 151q50 25 63 25q8 0 8 -27q0 -34 -6 -44.5t-26 -20.5l-301 -154q-59 -29 -78 -29q-13 0 -26 28.5t-13 43.5z" />
<glyph unicode="&#x2011;" horiz-adv-x="696" d="M123 686q0 4 1.5 7.5t5.5 6.5l6 4.5t7.5 4.5t6.5 4l352 151q50 25 63 25q8 0 8 -27q0 -34 -6 -44.5t-26 -20.5l-301 -154q-59 -29 -78 -29q-13 0 -26 28.5t-13 43.5z" />
<glyph unicode="&#x2012;" horiz-adv-x="696" d="M123 686q0 4 1.5 7.5t5.5 6.5l6 4.5t7.5 4.5t6.5 4l352 151q50 25 63 25q8 0 8 -27q0 -34 -6 -44.5t-26 -20.5l-301 -154q-59 -29 -78 -29q-13 0 -26 28.5t-13 43.5z" />
<glyph unicode="&#x2013;" horiz-adv-x="921" d="M41 723q0 2 1.5 6.5t6 16t8.5 28.5q3 12 9 14.5t28 2.5h758q35 0 35 -11q0 -3 -1.5 -7t-5.5 -14t-8 -24q-4 -17 -10 -21.5t-20 -4.5h-764q-37 0 -37 14z" />
<glyph unicode="&#x2014;" horiz-adv-x="1843" d="M41 723q0 2 1.5 6.5t6 16t8.5 28.5q3 12 9 14.5t28 2.5h1675q35 0 35 -11q0 -4 -1 -7.5t-5 -14t-8 -23.5q-4 -17 -10.5 -21.5t-20.5 -4.5h-1681q-37 0 -37 14z" />
<glyph unicode="&#x2018;" horiz-adv-x="331" d="M82 1167q0 48 48 138.5t91 144.5q9 13 19 16q4 0 4 -6q0 -3 -15 -30t-30 -66t-15 -72q0 -39 16.5 -69t33 -47t16.5 -25q0 -14 -46.5 -57t-64.5 -43q-15 0 -36 48.5t-21 67.5z" />
<glyph unicode="&#x2019;" horiz-adv-x="331" d="M82 1366q0 13 46.5 56.5t64.5 43.5q15 0 36 -48.5t21 -67.5q0 -49 -49 -142t-90 -141q-9 -13 -19 -16q-4 0 -4 6q0 2 15 29t29.5 66.5t14.5 72.5q0 39 -16.5 69t-32.5 47t-16 25z" />
<glyph unicode="&#x201a;" horiz-adv-x="331" d="M82 131q0 13 46.5 56.5t64.5 43.5q15 0 36 -48.5t21 -67.5q0 -49 -49 -142t-90 -141q-9 -14 -19 -16q-4 0 -4 6q0 2 15 29t29.5 66.5t14.5 72.5q0 39 -16.5 69t-32.5 47t-16 25z" />
<glyph unicode="&#x201c;" horiz-adv-x="577" d="M82 1167q0 48 48 138.5t91 144.5q9 13 19 16q4 0 4 -6q0 -3 -15 -30t-30 -66t-15 -72q0 -39 16.5 -69t33 -47t16.5 -25q0 -14 -46.5 -57t-64.5 -43q-15 0 -36 48.5t-21 67.5zM328 1167q0 48 48 138.5t91 144.5q9 14 18 16q4 0 4 -6q0 -3 -14.5 -30t-29.5 -66t-15 -72 q0 -39 16.5 -69t33 -47t16.5 -25q0 -14 -46.5 -57t-64.5 -43q-15 0 -36 48.5t-21 67.5z" />
<glyph unicode="&#x201d;" horiz-adv-x="577" d="M82 1366q0 13 45.5 56.5t65.5 43.5q15 0 36 -48.5t21 -67.5q0 -48 -48 -138.5t-91 -144.5q-9 -13 -19 -16q-4 0 -4 6q0 3 15 30t29.5 66t14.5 72q0 39 -16.5 69t-32.5 47t-16 25zM328 1366q0 23 45 61.5t65 38.5q15 0 36.5 -48.5t21.5 -67.5q0 -48 -48.5 -138t-91.5 -145 q-9 -14 -18 -16q-4 0 -4 6q0 3 15 30t29.5 66t14.5 72q0 39 -16.5 69t-32.5 47t-16 25z" />
<glyph unicode="&#x201e;" horiz-adv-x="577" d="M82 131q0 37 36.5 68.5t74.5 31.5q15 0 36 -48.5t21 -67.5q0 -48 -48 -138.5t-91 -144.5q-9 -14 -19 -16q-4 0 -4 6q0 3 15 30t29.5 66t14.5 72q0 39 -16.5 69t-32.5 47t-16 25zM328 131q0 37 36 68.5t74 31.5q15 0 36.5 -48.5t21.5 -67.5q0 -48 -48.5 -138t-91.5 -145 q-9 -14 -18 -16q-4 0 -4 6q0 3 15 30t29.5 66t14.5 72q0 39 -16.5 69t-32.5 47t-16 25z" />
<glyph unicode="&#x2022;" horiz-adv-x="507" d="M150 750q0 7 14 18l74 74q7 10 16 10q6 0 14 -10l80 -78q10 -10 10 -14q0 -10 -10 -17l-74 -74q-11 -14 -18 -14q-11 0 -23 14l-69 68q-14 14 -14 23z" />
<glyph unicode="&#x2026;" horiz-adv-x="1431" d="M141 104q0 44 28 75.5t71 31.5q44 0 70 -27.5t26 -70.5q0 -47 -26.5 -80t-71.5 -33q-43 0 -70 30.5t-27 73.5zM618 104q0 44 28 75.5t71 31.5q44 0 70 -27.5t26 -70.5q0 -47 -26.5 -80t-71.5 -33q-43 0 -70 30.5t-27 73.5zM1096 104q0 44 27.5 75.5t70.5 31.5 q44 0 70 -27.5t26 -70.5q0 -47 -26.5 -80t-71.5 -33q-43 0 -69.5 30.5t-26.5 73.5z" />
<glyph unicode="&#x202f;" horiz-adv-x="362" />
<glyph unicode="&#x2039;" horiz-adv-x="612" d="M61 750q0 11 15 29t65 61l285 256q55 49 72 49q4 0 8 -3.5t4 -8.5q0 -9 -21 -37t-34 -41l-176 -199q-70 -79 -70 -96q0 -20 45 -70l211 -225q45 -45 45 -51q0 -11 -18.5 -30t-30.5 -19q-3 0 -7 2.5t-11 8.5t-14.5 12.5t-21 19.5t-26.5 24l-250 227q-70 62 -70 91z" />
<glyph unicode="&#x203a;" horiz-adv-x="612" d="M102 377q0 9 21.5 37t34.5 41l176 198q69 77 69 97q0 19 -45 69l-211 225q-45 45 -45 52q0 11 19 30t31 19q5 0 12 -6t27.5 -25.5t39.5 -36.5l250 -227q70 -62 70 -90q0 -11 -15 -29t-65 -61l-285 -256q-55 -49 -71 -49q-5 0 -9 4t-4 8z" />
<glyph unicode="&#x205f;" horiz-adv-x="453" />
<glyph unicode="&#x20ac;" horiz-adv-x="1273" d="M43 629q0 2 1.5 6.5t6 16t8.5 28.5q3 12 8.5 14t28.5 2h113v35q0 43 2 66h-131q-37 0 -37 14q0 2 1.5 6.5t6 16t8.5 28.5q3 12 9 14.5t28 2.5h123q12 90 37 171.5t70 158.5t105.5 133t147.5 90t191 34q75 0 141 -18t114.5 -35.5t80.5 -17.5q6 0 12 5t10 5q7 0 7 -23 q0 -14 -3.5 -42t-3.5 -42q0 -20 3.5 -59t3.5 -59q0 -31 -9 -31q-10 0 -20 24t-30 62t-50 63q-79 66 -133.5 86.5t-165.5 20.5q-158 0 -252 -142.5t-108 -383.5h634q35 0 35 -11q0 -4 -1 -7.5t-5 -14t-8 -23.5q-4 -17 -10.5 -21.5t-20.5 -4.5h-626q0 -70 2 -101h577h16.5 t10 -1t7 -3t1.5 -6t-1 -7.5t-5 -14t-8 -23.5q-4 -17 -10.5 -22t-20.5 -5h-563q12 -131 41.5 -235t80 -184.5t128 -124t178.5 -43.5q74 0 124.5 20.5t116.5 71.5q32 25 53 60t30.5 56t19.5 21q8 0 8 -25q0 -26 -14.5 -90t-16.5 -75q-1 -5 -1.5 -11.5t-1 -8t-1.5 -5t-3.5 -5 t-6 -3l-10.5 -4.5q-96 -36 -173 -49t-184 -13q-95 0 -183 44t-159.5 124.5t-120.5 204.5t-63 274h-133q-37 0 -37 15z" />
<glyph unicode="&#x2122;" horiz-adv-x="1558" d="M20 1360q0 10 10.5 37t12.5 37q3 14 12 14q5 0 13 -4q27 -8 94 -8h377q19 0 57 2t57 2q13 0 13 -19q0 -18 -8.5 -52t-18.5 -34q-5 0 -12 11q-3 6 -11.5 11t-22.5 7.5t-27 4.5t-32 2.5t-30 0.5h-28h-19h-60v-6q3 -38 0.5 -223t-2.5 -223q0 -137 15 -156q15 -21 59 -21 q20 0 20 -12q0 -16 -49 -16q-14 0 -43 1t-43 1q-18 0 -53 -2t-53 -2q-29 0 -29 12t34.5 17t39.5 20q8 24 8 153v443q0 14 -12 14h-197q-15 0 -27.5 -8t-19 -16.5t-8.5 -8.5q-7 0 -12 6.5t-5 14.5zM588 725q0 6 9 10.5t21.5 8t16.5 6.5q25 17 37 102q5 43 14.5 134.5 t17.5 161.5t17 134l20 143q6 25 19 25q12 0 22 -20q17 -26 42 -79t38 -75q32 -57 66 -123.5t73.5 -146t63.5 -125.5q0 -7 4 -7q3 3 50 95t99.5 194.5t65.5 124.5q12 20 37.5 74.5t40.5 75.5q9 14 16 14q14 0 19 -22q4 -24 8 -73t4 -54q5 -59 29 -267q23 -240 39 -266 q8 -12 19 -19t20 -9t15.5 -5t6.5 -10q0 -16 -55 -16q-15 0 -47 3t-47 3q-13 0 -39 -1t-39 -1q-23 0 -23 14q0 6 9 10t22.5 7t19.5 6q25 13 25 75q0 1 -6 76l-29 324v8q-17 -31 -48.5 -93t-47.5 -93q-59 -111 -115 -224q-5 -9 -18.5 -39t-22.5 -45q-9 -18 -22 -18 q-14 0 -23 18q-9 15 -22.5 45t-18.5 39q-121 241 -207 400l-2 6v-2l-28 -336q-4 -58 -4 -84q0 -35 10.5 -50.5t42.5 -19.5q1 0 3.5 -0.5t4.5 -1t4.5 -1t4.5 -1t3.5 -1.5t3 -2.5t2 -3.5t0.5 -5q0 -12 -28 -12q-15 0 -47 3t-47 3t-43 -3t-43 -3q-33 0 -33 14z" />
<glyph unicode="&#x25fc;" horiz-adv-x="1228" d="M0 0v1229h1229v-1229h-1229z" />
</font>
</defs>
</svg>
